<svg width="192" height="28" viewBox="0 0 192 28" fill="none" xmlns="http://www.w3.org/2000/svg">
<path d="M5.15 24.25C5.05 24.25 4.95833 24.1833 4.875 24.05C4.775 23.8 4.725 23.55 4.725 23.3V22.875C4.725 22.6083 4.7 22.3417 4.65 22.075C4.63333 21.8917 4.61667 21.6833 4.6 21.45C4.58333 21.2333 4.45 21.125 4.2 21.125L3.85 21.15C3.5 21.15 3.24167 21.125 3.075 21.075C2.95833 21.0417 2.86667 21.025 2.8 21.025C2.66667 21.025 2.55833 21.1 2.475 21.25C2.34167 21.5333 2.25833 21.7667 2.225 21.95C2.19167 22.15 2.175 22.3 2.175 22.4C2.175 22.5167 2.15833 22.6 2.125 22.65C2.10833 22.7167 2.04167 22.7583 1.925 22.775C1.79167 22.775 1.68333 22.7083 1.6 22.575C1.51667 22.4417 1.45 22.2917 1.4 22.125C1.35 21.975 1.325 21.8583 1.325 21.775C1.325 21.4417 1.26667 21.1083 1.15 20.775C1.05 20.4583 1 20.1333 1 19.8L1.075 18.875C1.075 18.575 1.13333 18.2583 1.25 17.925L1.225 17.6C1.225 17.4 1.25 17.225 1.3 17.075C1.35 16.9083 1.375 16.6083 1.375 16.175L1.35 14.4C1.35 14.1333 1.36667 13.875 1.4 13.625C1.43333 13.375 1.45 12.9667 1.45 12.4C1.45 11.9833 1.44167 11.5417 1.425 11.075C1.40833 10.6083 1.38333 10.2083 1.35 9.87501C1.33333 9.54168 1.325 9.36668 1.325 9.35001C1.225 9.05001 1.175 8.75835 1.175 8.47501C1.175 8.25835 1.18333 8.05835 1.2 7.87501C1.21667 7.67501 1.225 7.49168 1.225 7.32501C1.225 7.17501 1.20833 7.02501 1.175 6.87501C1.15833 6.92501 1.13333 6.97501 1.1 7.02501C1.08333 7.07501 1.05 7.12501 1 7.17501C0.966667 7.20835 0.925 7.22501 0.875 7.22501C0.725 7.20835 0.625 7.15835 0.575 7.07501C0.525 6.97501 0.5 6.83335 0.5 6.65001C0.5 6.11668 0.566667 5.60835 0.7 5.12501C0.833333 4.62501 1.05 4.21668 1.35 3.90001C1.65 3.58335 2.04167 3.42501 2.525 3.42501L3.35 3.50001C3.7 3.55001 4.14167 3.57501 4.675 3.57501L5.55 3.55001C5.73333 3.55001 5.90833 3.57501 6.075 3.62501C6.24167 3.67501 6.51667 3.70001 6.9 3.70001C7.15 3.70001 7.45 3.66668 7.8 3.60001C8.23333 3.53335 8.65 3.50001 9.05 3.50001C9.45 3.50001 9.84167 3.57501 10.225 3.72501L10.375 3.75001C10.475 3.75001 10.5917 3.72501 10.725 3.67501C10.875 3.62501 11.0417 3.60001 11.225 3.60001C11.4917 3.60001 11.7583 3.73335 12.025 4.00001C12.3083 4.26668 12.45 4.60835 12.45 5.02501C12.45 5.17501 12.4167 5.34168 12.35 5.52501C12.3 5.70835 12.275 5.90835 12.275 6.12501V6.45001C12.275 6.75001 12.25 7.00835 12.2 7.22501C12.15 7.44168 12.125 7.62501 12.125 7.77501L12.175 8.50001C12.175 8.80001 12.1 9.26668 11.95 9.90001C11.9 10.1 11.8 10.2 11.65 10.2C11.4333 10.1833 11.325 10.0167 11.325 9.70001C11.325 9.58335 11.325 9.49168 11.325 9.42501C11.3417 9.35835 11.3583 9.28335 11.375 9.20001C11.3917 9.11668 11.4083 9.01668 11.425 8.90001C11.425 8.66668 11.3 8.38335 11.05 8.05001C11.0167 8.00001 10.9833 7.95835 10.95 7.92501C10.9333 7.89168 10.9083 7.87501 10.875 7.87501C10.8583 7.85835 10.825 7.85001 10.775 7.85001C10.725 7.85001 10.575 7.85001 10.325 7.85001C8.925 7.83335 8.20833 7.81668 8.175 7.80001C7.925 7.73335 7.68333 7.70001 7.45 7.70001C7.18333 7.70001 6.925 7.72501 6.675 7.77501C6.425 7.80835 6.18333 7.84168 5.95 7.87501C5.73333 7.89168 5.625 8.04168 5.625 8.32501V8.50001C5.69167 8.78335 5.725 9.07501 5.725 9.37501L5.75 9.90001C5.78333 10.15 5.975 10.275 6.325 10.275C6.45833 10.275 6.625 10.2667 6.825 10.25C7.04167 10.2333 7.29167 10.225 7.575 10.225C7.89167 10.225 8.24167 10.2583 8.625 10.325C9.20833 10.475 9.5 10.825 9.5 11.375L9.475 11.65C9.425 11.9667 9.4 12.275 9.4 12.575C9.38333 13.0583 9.34167 13.375 9.275 13.525C9.225 13.675 9.15833 13.8 9.075 13.9C8.80833 14.2333 8.63333 14.8167 8.55 15.65V15.775C8.55 15.9417 8.525 16.1083 8.475 16.275C8.44167 16.425 8.34167 16.5 8.175 16.5C8.00833 16.5 7.9 16.4583 7.85 16.375C7.8 16.2917 7.775 16.1583 7.775 15.975L7.8 14.825C7.8 14.5917 7.79167 14.4167 7.775 14.3C7.75833 14.1833 7.71667 14.1083 7.65 14.075C7.6 14.0417 7.25833 14.025 6.625 14.025C6.375 14.025 6.2 14.0833 6.1 14.2C6 14.3167 5.91667 14.4583 5.85 14.625C5.78333 14.7917 5.75 14.9083 5.75 14.975C5.75 15.0583 5.75833 15.15 5.775 15.25C5.80833 15.3333 5.825 15.45 5.825 15.6L5.8 16.825C5.8 17.225 5.75 17.625 5.65 18.025C5.58333 18.3583 5.55 18.625 5.55 18.825C5.55 19.0917 5.575 19.2917 5.625 19.425C5.69167 19.575 5.725 19.7667 5.725 20C5.725 20.1833 5.68333 20.4333 5.6 20.75C5.48333 21.25 5.425 21.7083 5.425 22.125C5.425 22.4583 5.43333 22.7417 5.45 22.975C5.48333 23.225 5.5 23.4333 5.5 23.6C5.5 23.7667 5.46667 23.9167 5.4 24.05C5.35 24.1833 5.26667 24.25 5.15 24.25Z" fill="#1E1E1E"/>
<path d="M15.4645 27.05C15.1478 27.05 14.9895 26.725 14.9895 26.075L15.0145 25.675C14.8311 24.775 14.7395 24.0333 14.7395 23.45V23.3C14.7395 22.9 14.7061 22.5417 14.6395 22.225C14.5895 21.925 14.4561 21.65 14.2395 21.4C14.1561 21.3333 14.0978 21.2667 14.0645 21.2C14.0478 21.1333 14.0145 21.025 13.9645 20.875C13.9311 20.7417 13.7895 20.3333 13.5395 19.65C13.4728 19.5167 13.4395 19.375 13.4395 19.225C13.4395 19.1417 13.4645 19.0583 13.5145 18.975C13.6311 18.775 13.7061 18.5583 13.7395 18.325C13.7895 18.0917 13.8228 17.7917 13.8395 17.425C13.8561 16.925 13.9228 16.225 14.0395 15.325C14.0395 15.0417 14.0228 14.825 13.9895 14.675C13.9561 14.5083 13.9395 14.35 13.9395 14.2L13.9645 12.975C13.9978 12.275 14.0228 11.5583 14.0395 10.825C14.0561 10.075 14.0728 9.56668 14.0895 9.30001C14.0895 9.10001 14.0645 8.90835 14.0145 8.72501C13.9811 8.52501 13.9645 8.33335 13.9645 8.15001L13.9895 8.00001C13.9895 7.90001 13.9978 7.83335 14.0145 7.80001C13.9978 7.71668 13.9395 7.67501 13.8395 7.67501H13.7395C13.5728 7.67501 13.4895 7.54168 13.4895 7.27501C13.4895 6.99168 13.5478 6.52501 13.6645 5.87501C13.7311 5.54168 13.7645 5.29168 13.7645 5.12501V5.00001C13.7645 4.78335 13.7978 4.56668 13.8645 4.35001C13.9478 4.13335 14.1478 3.94168 14.4645 3.77501C14.9145 3.57501 15.3561 3.47501 15.7895 3.47501C16.0561 3.47501 16.3478 3.49168 16.6645 3.52501C17.1145 3.59168 17.7561 3.62501 18.5895 3.62501C18.9895 3.62501 19.3645 3.61668 19.7145 3.60001C20.0811 3.56668 20.6895 3.55001 21.5395 3.55001C21.7561 3.55001 21.9561 3.52501 22.1395 3.47501C22.3395 3.40835 22.7061 3.37501 23.2395 3.37501C23.5728 3.37501 23.9978 3.40001 24.5145 3.45001C24.8978 3.51668 25.1228 3.73335 25.1895 4.10001C25.2728 4.45001 25.3145 4.81668 25.3145 5.20001V5.52501C25.3145 5.84168 25.2811 6.13335 25.2145 6.40001C25.1478 6.65001 25.0728 6.91668 24.9895 7.20001C24.7395 7.81668 24.5228 8.80001 24.3395 10.15C24.3228 10.3333 24.2811 10.5083 24.2145 10.675C24.1478 10.8417 24.0145 10.925 23.8145 10.925C23.5311 10.9083 23.3895 10.6083 23.3895 10.025C23.3895 9.74168 23.4061 9.45001 23.4395 9.15001C23.4728 8.83335 23.4895 8.56668 23.4895 8.35001C23.4895 7.93334 23.4145 7.72501 23.2645 7.72501C23.1978 7.74168 23.1311 7.75835 23.0645 7.77501C23.0145 7.79168 22.9311 7.80001 22.8145 7.80001C22.6645 7.80001 22.5145 7.78335 22.3645 7.75001C22.2311 7.71668 22.0978 7.70001 21.9645 7.70001H21.1395C20.8395 7.70001 20.5478 7.73335 20.2645 7.80001C20.1978 7.81668 20.1228 7.82501 20.0395 7.82501C19.8728 7.82501 19.6978 7.80001 19.5145 7.75001C19.3311 7.70001 19.1478 7.66668 18.9645 7.65001C18.6645 7.65001 18.5145 7.77501 18.5145 8.02501V8.32501C18.4645 8.47501 18.4395 8.63335 18.4395 8.80001C18.4395 9.01668 18.4561 9.22501 18.4895 9.42501C18.5395 9.62501 18.5728 9.81668 18.5895 10C18.6061 10.1167 18.6395 10.175 18.6895 10.175C18.7395 10.175 18.7978 10.1583 18.8645 10.125C18.9978 10.0583 19.1895 10.025 19.4395 10.025C19.5395 10.025 19.6478 10.05 19.7645 10.1C19.8978 10.1333 20.0895 10.15 20.3395 10.15L20.9895 10.125C21.2728 10.125 21.5228 10.1833 21.7395 10.3C21.9561 10.4167 22.0645 10.6833 22.0645 11.1V12.075C22.0645 12.5917 21.9645 13.075 21.7645 13.525C21.6311 13.925 21.5645 14.3583 21.5645 14.825V15.025C21.5645 15.1583 21.5478 15.275 21.5145 15.375C21.4978 15.475 21.4061 15.525 21.2395 15.525C20.9728 15.525 20.8395 15.35 20.8395 15C20.8395 14.85 20.8478 14.7167 20.8645 14.6C20.8978 14.4833 20.9145 14.3667 20.9145 14.25C20.9145 14.15 20.8395 14.1 20.6895 14.1C20.2561 14.1 19.9478 14.125 19.7645 14.175C19.5978 14.2083 19.4645 14.25 19.3645 14.3C19.2645 14.3333 19.1645 14.35 19.0645 14.35C18.9811 14.35 18.9061 14.3417 18.8395 14.325C18.7728 14.2917 18.6978 14.2667 18.6145 14.25C18.5311 14.25 18.4895 14.2917 18.4895 14.375L18.5145 14.575C18.5645 14.675 18.5895 14.8083 18.5895 14.975C18.5895 15.1583 18.5728 15.3333 18.5395 15.5C18.5228 15.65 18.5145 15.7917 18.5145 15.925C18.5145 16.175 18.6061 16.3833 18.7895 16.55C18.9728 16.7 19.3978 16.775 20.0645 16.775C20.2978 16.775 20.5145 16.7667 20.7145 16.75C20.9145 16.7333 21.1645 16.7167 21.4645 16.7C21.8645 16.7 22.3728 16.7417 22.9895 16.825C23.6061 16.8917 24.0478 17 24.3145 17.15C24.6645 17.35 24.9145 17.6333 25.0645 18C25.2145 18.35 25.2895 18.9 25.2895 19.65C25.2895 20.4833 25.2145 21.6583 25.0645 23.175C25.0145 23.5583 24.9145 23.8333 24.7645 24C24.6145 24.1833 24.4561 24.275 24.2895 24.275C24.1395 24.275 24.0061 24.2167 23.8895 24.1C23.7895 23.9833 23.7395 23.825 23.7395 23.625C23.7395 23.5083 23.7561 23.375 23.7895 23.225C23.8395 23.075 23.8645 22.925 23.8645 22.775C23.8645 22.4583 23.8061 22.15 23.6895 21.85C23.6561 21.7167 23.6228 21.5917 23.5895 21.475C23.5728 21.375 23.5311 21.3083 23.4645 21.275C23.3978 21.2583 23.2978 21.25 23.1645 21.25C23.0478 21.25 22.9395 21.2417 22.8395 21.225C22.5061 21.1917 22.1728 21.175 21.8395 21.175C21.6395 21.175 21.4811 21.1833 21.3645 21.2C21.2645 21.2167 21.1478 21.225 21.0145 21.225C20.8811 21.225 20.7395 21.2083 20.5895 21.175C20.4561 21.1583 20.3061 21.15 20.1395 21.15C19.6561 21.15 19.2228 21.1083 18.8395 21.025C18.5228 20.9583 18.2311 20.925 17.9645 20.925C17.6478 20.925 17.3645 21.0167 17.1145 21.2C16.8811 21.4 16.6728 21.7667 16.4895 22.3C16.3228 22.8333 16.1811 23.6083 16.0645 24.625L16.0395 25.3V25.475C16.0395 25.8083 15.9978 26.1417 15.9145 26.475C15.7645 26.8583 15.6145 27.05 15.4645 27.05Z" fill="#1E1E1E"/>
<path d="M26.8551 23.9C26.6884 23.9 26.5801 23.8417 26.5301 23.725C26.4801 23.6083 26.4551 23.4583 26.4551 23.275C26.4551 22.3583 26.4384 21.4667 26.4051 20.6C26.3717 20.1167 26.3551 19.725 26.3551 19.425C26.3551 18.8083 26.4551 18.4 26.6551 18.2C27.2717 17.5833 27.7051 17.0667 27.9551 16.65C28.2051 16.2333 28.5134 16.025 28.8801 16.025C29.1467 16.025 29.4301 16.1417 29.7301 16.375L30.1801 16.725C30.4467 16.8917 30.6967 17.0917 30.9301 17.325C31.0134 17.4083 31.1217 17.45 31.2551 17.45C31.4384 17.45 31.6217 17.4167 31.8051 17.35C32.0051 17.2667 32.1634 17.225 32.2801 17.225C32.7134 17.175 33.0217 16.9833 33.2051 16.65C33.3884 16.3167 33.4801 15.9667 33.4801 15.6C33.4801 15.3 33.4301 15.0333 33.3301 14.8C33.2467 14.5667 33.1217 14.425 32.9551 14.375C32.8051 14.325 32.6551 14.2667 32.5051 14.2C32.2717 14.1 32.0217 14.0333 31.7551 14C31.6551 14 31.5967 14.0667 31.5801 14.2C31.5134 14.4333 31.4801 14.6417 31.4801 14.825V15.25C31.4801 15.3833 31.4551 15.4833 31.4051 15.55C31.3717 15.6 31.2884 15.625 31.1551 15.625C30.9384 15.625 30.8134 15.4167 30.7801 15C30.7467 14.5833 30.6467 14.2583 30.4801 14.025C30.2801 13.825 29.9384 13.6583 29.4551 13.525C29.1217 13.4083 28.7967 13.275 28.4801 13.125C28.1634 12.9583 27.9217 12.7333 27.7551 12.45C27.6884 12.3833 27.5967 12.35 27.4801 12.35C27.3634 12.3333 27.2467 12.2917 27.1301 12.225C27.0301 12.1583 26.9717 12.0167 26.9551 11.8C26.9051 10.9333 26.8217 10.2583 26.7051 9.77501C26.6051 9.42501 26.5551 9.09168 26.5551 8.77501C26.5551 8.40835 26.6467 7.99168 26.8301 7.52501L27.0801 6.60001C27.3467 5.61668 27.9634 4.82501 28.9301 4.22501C29.2801 4.00835 29.5134 3.89168 29.6301 3.87501C29.9134 3.84168 30.1884 3.77501 30.4551 3.67501C30.8884 3.52501 31.5384 3.45001 32.4051 3.45001C32.9717 3.45001 33.3634 3.47501 33.5801 3.52501C33.7967 3.57501 34.1634 3.60001 34.6801 3.60001C35.0967 3.60001 35.5051 3.82501 35.9051 4.27501C36.0551 4.42501 36.1801 4.52501 36.2801 4.57501C36.5967 4.67501 36.8551 4.86668 37.0551 5.15001C37.2717 5.43335 37.3801 5.73335 37.3801 6.05001V6.50001L37.3551 6.70001L37.3801 8.22501C37.3801 8.79168 37.3551 9.25835 37.3051 9.62501C37.2551 9.97501 37.1301 10.15 36.9301 10.15C36.8301 10.15 36.7634 10.1167 36.7301 10.05C36.6967 9.96668 36.6717 9.84168 36.6551 9.67501C36.6551 9.57501 36.6634 9.47501 36.6801 9.37501C36.6967 9.25835 36.7051 9.13335 36.7051 9.00001C36.7051 8.93335 36.6967 8.85001 36.6801 8.75001C36.6634 8.65001 36.6384 8.56668 36.6051 8.50001C36.5717 8.41668 36.5301 8.37501 36.4801 8.37501C36.4467 8.37501 36.4134 8.40835 36.3801 8.47501C36.3134 8.60835 36.2301 8.70835 36.1301 8.77501C36.0301 8.84168 35.9384 8.90001 35.8551 8.95001C35.7884 8.98335 35.7301 9.00835 35.6801 9.02501C35.3801 9.20835 35.1967 9.38335 35.1301 9.55001C35.0634 9.71668 35.0301 9.85835 35.0301 9.97501V10.05C35.0301 10.2833 34.9384 10.4 34.7551 10.4C34.6051 10.3833 34.5051 10.325 34.4551 10.225C34.4217 10.1083 34.4051 9.95835 34.4051 9.77501C34.4051 9.15835 34.3801 8.72501 34.3301 8.47501C34.2801 8.22501 34.1634 8.00001 33.9801 7.80001C33.5801 7.46668 33.1384 7.25835 32.6551 7.17501C32.4884 7.10835 32.3217 7.05835 32.1551 7.02501C31.9217 7.02501 31.7384 7.33335 31.6051 7.95001L31.4801 8.57501C31.4467 8.70835 31.3634 8.77501 31.2301 8.77501C31.0134 8.77501 30.9051 8.50001 30.9051 7.95001C30.6717 8.36668 30.5551 8.72501 30.5551 9.02501C30.5551 9.44168 30.6884 9.76668 30.9551 10C31.2384 10.2333 31.5051 10.35 31.7551 10.35C31.8217 10.3333 31.8717 10.325 31.9051 10.325C31.9551 10.3083 32.0717 10.3 32.2551 10.3C32.8051 10.3 33.4384 10.4583 34.1551 10.775C34.8717 11.0917 35.3967 11.3833 35.7301 11.65C36.2301 12.0333 36.6551 12.475 37.0051 12.975C37.3717 13.4583 37.5551 14.0333 37.5551 14.7L37.5301 15.75L37.5051 16.35L37.3551 17.175C37.2884 17.5917 37.2217 17.8667 37.1551 18C37.0884 18.1167 37.0467 18.2583 37.0301 18.425L36.5051 21.925C36.4551 22.3417 36.2967 22.55 36.0301 22.55C35.8467 22.5333 35.7301 22.4333 35.6801 22.25C35.6301 22.0833 35.6051 21.8 35.6051 21.4C35.6051 21.0833 35.5884 20.8583 35.5551 20.725C35.5384 20.5917 35.4801 20.525 35.3801 20.525L35.2301 20.55L34.5301 20.875C34.2801 20.975 34.0801 21.0583 33.9301 21.125C33.7801 21.1917 33.5384 21.225 33.2051 21.225L31.8301 21.2C31.3801 21.2 30.9217 21.25 30.4551 21.35C30.3551 21.35 30.2551 21.3333 30.1551 21.3C30.0717 21.2833 29.9884 21.275 29.9051 21.275C29.8051 21.275 29.7134 21.3167 29.6301 21.4C29.5634 21.5 29.5217 21.7083 29.5051 22.025C29.5051 22.1417 29.4717 22.225 29.4051 22.275C29.3551 22.3417 29.2967 22.375 29.2301 22.375C29.0301 22.375 28.8801 22.1833 28.7801 21.8C28.6301 21.2667 28.2884 20.7667 27.7551 20.3C27.6717 20.2333 27.5967 20.2 27.5301 20.2C27.3801 20.2 27.3051 20.4917 27.3051 21.075L27.3301 21.725V22.475C27.3301 22.8583 27.2967 23.1917 27.2301 23.475C27.1801 23.7583 27.0551 23.9 26.8551 23.9Z" fill="#1E1E1E"/>
<path d="M45.7365 22.375C45.5365 22.375 45.4365 22.2667 45.4365 22.05C45.4365 21.6333 45.3782 21.2917 45.2615 21.025L45.2115 20.85C45.1615 20.7 45.0615 20.6083 44.9115 20.575C44.7615 20.5583 44.6282 20.55 44.5115 20.55H44.3115C44.1615 20.55 44.0282 20.5417 43.9115 20.525C43.8115 20.525 43.7199 20.5833 43.6365 20.7C43.3532 21.0833 43.1865 21.475 43.1365 21.875C43.1365 22.1083 43.0532 22.225 42.8865 22.225C42.7865 22.225 42.7199 22.2 42.6865 22.15C42.6699 22.1167 42.6532 22.0333 42.6365 21.9V21.825C42.6365 21.525 42.4782 20.8917 42.1615 19.925C42.1115 19.7583 42.0865 19.5917 42.0865 19.425C42.0865 19.275 42.1115 19.1333 42.1615 19C42.2949 18.6 42.3865 18.075 42.4365 17.425C42.4865 16.775 42.5282 16.125 42.5615 15.475C42.5782 14.6083 42.6199 14.0167 42.6865 13.7C42.6865 13.6 42.6615 13.5417 42.6115 13.525C42.5615 13.5083 42.5032 13.5 42.4365 13.5C42.3699 13.5 42.3032 13.4833 42.2365 13.45C42.1865 13.4167 42.1615 13.3417 42.1615 13.225V13.1C42.2782 12.3167 42.3615 11.775 42.4115 11.475C42.4615 11.1583 42.4949 10.9333 42.5115 10.8C42.5449 10.65 42.5615 10.5 42.5615 10.35L42.4615 7.90001C42.4615 7.71668 42.3865 7.53335 42.2365 7.35001C42.1032 7.16668 41.9449 7.06668 41.7615 7.05001C41.1615 6.98335 40.7782 6.95001 40.6115 6.95001C40.3282 6.95001 40.0865 7.01668 39.8865 7.15001C39.6865 7.28335 39.5699 7.55001 39.5365 7.95001C39.5365 8.03335 39.5282 8.12501 39.5115 8.22501C39.4949 8.32501 39.4865 8.43335 39.4865 8.55001L39.5115 8.87501C39.5115 9.00835 39.4949 9.15001 39.4615 9.30001C39.4282 9.43335 39.4115 9.56668 39.4115 9.70001L39.4365 9.92501C39.4365 9.95835 39.4115 9.99168 39.3615 10.025C39.3282 10.0583 39.2865 10.075 39.2365 10.075C39.1365 10.075 39.0282 10 38.9115 9.85001C38.8115 9.70001 38.7615 9.32501 38.7615 8.72501L38.8115 8.07501C38.8115 7.72501 38.7699 7.42501 38.6865 7.17501C38.6032 6.92501 38.5615 6.65001 38.5615 6.35001C38.5615 6.16668 38.5782 5.96668 38.6115 5.75001C38.6615 5.51668 38.6865 5.12501 38.6865 4.57501C38.6865 4.22501 38.7699 3.95001 38.9365 3.75001C39.1032 3.53335 39.5449 3.42501 40.2615 3.42501C40.7282 3.42501 41.3282 3.47501 42.0615 3.57501C42.3115 3.59168 42.6782 3.60001 43.1615 3.60001C43.9282 3.60001 44.8199 3.58334 45.8365 3.55001L47.7865 3.52501L48.5365 3.55001L49.4865 3.50001C49.7365 3.50001 49.9615 3.56668 50.1615 3.70001C50.3782 3.81668 50.4865 4.16668 50.4865 4.75001V6.07501C50.4865 6.32501 50.4532 6.53335 50.3865 6.70001C50.2699 7.03335 50.1949 7.50001 50.1615 8.10001C50.1615 8.46668 50.0365 8.65001 49.7865 8.65001C49.6532 8.65001 49.5699 8.59168 49.5365 8.47501C49.5032 8.34168 49.4782 8.21668 49.4615 8.10001C49.4615 7.96668 49.4532 7.85001 49.4365 7.75001C49.3699 7.41668 49.2782 7.21668 49.1615 7.15001C49.0615 7.08335 48.8865 7.05001 48.6365 7.05001C48.4032 7.05001 48.1865 7.03335 47.9865 7.00001L47.5865 6.95001C47.3365 6.95001 47.1115 7.04168 46.9115 7.22501C46.7282 7.39168 46.6115 7.61668 46.5615 7.90001C46.4615 8.68335 46.3865 10.35 46.3365 12.9C46.3032 13.9 46.2865 14.7583 46.2865 15.475C46.4199 16.1417 46.4865 16.7833 46.4865 17.4C46.4865 17.8167 46.4365 18.0833 46.3365 18.2C46.3032 18.2833 46.2865 18.3667 46.2865 18.45L46.3365 19.075C46.3365 19.4917 46.2615 20.075 46.1115 20.825C46.0782 21.075 46.0615 21.3167 46.0615 21.55C46.0615 21.7833 46.0449 21.975 46.0115 22.125C45.9782 22.2917 45.8865 22.375 45.7365 22.375Z" fill="#1E1E1E"/>
<path d="M52.4516 24.625C52.3516 24.625 52.2516 24.5417 52.1516 24.375C52.0682 24.225 52.0266 24.05 52.0266 23.85V23.525C52.0099 23.375 51.9766 23.0667 51.9266 22.6C51.8766 22.1333 51.8182 21.6417 51.7516 21.125C51.7016 20.6083 51.6766 20.25 51.6766 20.05L51.7266 19.05C51.7766 18.2 51.8016 17.3333 51.8016 16.45C51.8016 16.0167 51.7932 15.7 51.7766 15.5V15.35C51.7766 15.2333 51.7849 15.125 51.8016 15.025C51.8182 14.925 51.8266 14.8167 51.8266 14.7V14.15C51.7932 13.5333 51.7766 12.7583 51.7766 11.825V9.45001C51.7766 9.28335 51.7266 9.15835 51.6266 9.07501C51.5266 8.97501 51.4766 8.81668 51.4766 8.60001L51.5016 8.20001C51.6016 7.45001 51.6516 6.85835 51.6516 6.42501C51.6516 5.94168 51.6266 5.59168 51.5766 5.37501L51.5516 4.95001C51.5516 4.80001 51.6016 4.60001 51.7016 4.35001C51.8016 4.08334 51.9432 3.85001 52.1266 3.65001C52.3266 3.45001 52.5682 3.35001 52.8516 3.35001C53.0182 3.35001 53.2182 3.38335 53.4516 3.45001C53.7016 3.50001 53.9849 3.52501 54.3016 3.52501C54.5182 3.52501 54.6766 3.51668 54.7766 3.50001C54.8932 3.46668 55.0266 3.44168 55.1766 3.42501C55.4766 3.42501 55.6932 3.57501 55.8266 3.87501C55.9599 4.15835 56.0266 4.45835 56.0266 4.77501C56.0266 4.94168 56.0016 5.09168 55.9516 5.22501C55.9182 5.35835 55.9016 5.66668 55.9016 6.15001C55.9016 6.71668 55.9182 7.40835 55.9516 8.22501C56.0016 9.04168 56.0266 9.74168 56.0266 10.325C56.0266 10.7583 56.0099 11.05 55.9766 11.2C55.9599 11.35 55.9516 11.4833 55.9516 11.6C55.9516 12.0167 56.0349 12.4333 56.2016 12.85C56.3016 13.2167 56.3599 13.5917 56.3766 13.975L56.5016 14.975C56.5016 15.2083 56.3849 15.3583 56.1516 15.425C56.0016 15.475 55.9266 15.5583 55.9266 15.675L55.9516 16.075C55.9516 16.3417 55.9349 16.6 55.9016 16.85C55.8682 17.1 55.8516 17.35 55.8516 17.6C55.8849 18.1667 55.9599 18.6167 56.0766 18.95C56.1599 19.2167 56.2016 19.4583 56.2016 19.675C56.2016 19.8917 56.1266 20.0833 55.9766 20.25C55.9432 20.3 55.9266 20.3583 55.9266 20.425V20.825C55.9266 21.525 55.7932 22.3833 55.5266 23.4C55.4766 23.55 55.4016 23.625 55.3016 23.625C55.2349 23.625 55.1516 23.575 55.0516 23.475C54.9682 23.3917 54.9099 23.2167 54.8766 22.95L54.8016 22.225C54.7516 21.6083 54.7016 21.2833 54.6516 21.25C54.6182 21.2167 54.5182 21.2 54.3516 21.2L53.3266 21.25C53.2266 21.25 53.1599 21.3 53.1266 21.4L52.9766 21.925C52.8099 22.3083 52.7266 22.6917 52.7266 23.075L52.7516 23.35C52.7516 23.8167 52.7266 24.1417 52.6766 24.325C52.6432 24.525 52.5682 24.625 52.4516 24.625Z" fill="#1E1E1E"/>
<path d="M64.8318 25.425C64.7318 25.425 64.6652 25.3917 64.6318 25.325C64.6152 25.275 64.6068 25.1667 64.6068 25C64.6068 24.6 64.5818 24.1417 64.5318 23.625C64.4818 23.1083 64.3902 22.6417 64.2568 22.225C64.1402 21.825 63.9568 21.6167 63.7068 21.6C63.4735 21.5833 63.2235 21.575 62.9568 21.575C62.4735 21.575 62.1985 21.6083 62.1318 21.675C62.0652 21.7417 62.0318 21.8167 62.0318 21.9C61.8485 22.5 61.7568 22.9417 61.7568 23.225V23.35C61.7568 23.5667 61.6902 23.6917 61.5568 23.725C61.3235 23.725 61.1818 23.25 61.1318 22.3C61.1152 22.0667 61.0902 21.8917 61.0568 21.775C60.9068 21.1083 60.7985 20.55 60.7318 20.1C60.6485 19.5 60.5235 19.0417 60.3568 18.725C60.3068 18.6417 60.2818 18.5583 60.2818 18.475C60.1985 17.8083 60.0735 17.1417 59.9068 16.475C59.7235 15.5417 59.6152 14.9083 59.5818 14.575C59.5152 13.9583 59.3902 13.3583 59.2068 12.775C59.1735 12.675 59.1568 12.5333 59.1568 12.35C59.1568 12.15 59.1402 12 59.1068 11.9C59.0735 11.8 58.9902 11.7417 58.8568 11.725C58.7235 11.7083 58.6318 11.6417 58.5818 11.525C58.5318 11.3917 58.5068 11.2667 58.5068 11.15C58.4568 8.26668 58.1402 5.99168 57.5568 4.32501C57.5235 4.24168 57.5068 4.15001 57.5068 4.05001C57.5068 3.80001 57.6152 3.57501 57.8318 3.37501C58.0485 3.15835 58.3235 3.04168 58.6568 3.02501L59.1068 3.00001C59.3235 3.00001 59.4818 3.01668 59.5818 3.05001C59.6985 3.08335 59.8068 3.10835 59.9068 3.12501C60.0235 3.12501 60.1402 3.10001 60.2568 3.05001C60.3735 2.98335 60.4985 2.95001 60.6318 2.95001C61.1652 2.98335 61.5152 3.05835 61.6818 3.17501C61.8485 3.29168 61.9652 3.50835 62.0318 3.82501C62.1152 4.12501 62.2068 4.59168 62.3068 5.22501L62.6318 7.20001C62.6985 7.63335 62.8068 8.51668 62.9568 9.85001C63.0735 10.9333 63.2318 11.475 63.4318 11.475C63.6152 11.4583 63.7235 11.4 63.7568 11.3C63.8235 11.0333 63.8985 10.775 63.9818 10.525C64.1485 10.025 64.2735 9.52501 64.3568 9.02501C64.4068 8.60835 64.4985 7.98335 64.6318 7.15001C64.9152 5.26668 65.0568 4.15001 65.0568 3.80001C65.0568 3.61668 65.1402 3.46668 65.3068 3.35001C65.4735 3.23335 65.6485 3.17501 65.8318 3.17501H66.3068C66.3735 3.19168 66.5568 3.20835 66.8568 3.22501C67.1568 3.22501 67.4818 3.23335 67.8318 3.25001C68.1985 3.26668 68.5152 3.27501 68.7818 3.27501C69.0485 3.27501 69.2568 3.35001 69.4068 3.50001C69.5735 3.65001 69.6568 3.85001 69.6568 4.10001L69.6318 4.35001C69.4485 5.03335 69.2985 5.72501 69.1818 6.42501C69.0985 6.80835 68.9485 7.39168 68.7318 8.17501C68.2652 9.79168 67.8818 11.5417 67.5818 13.425L67.5318 13.8C67.4652 14.6833 67.2735 15.525 66.9568 16.325C66.8068 16.7083 66.6735 17.0917 66.5568 17.475L66.2318 18.425C66.0485 18.925 65.9318 19.4167 65.8818 19.9C65.8152 20.3 65.7402 20.5833 65.6568 20.75C65.5068 21.0333 65.4318 21.3417 65.4318 21.675V21.775C65.4318 21.975 65.4152 22.175 65.3818 22.375C65.1985 23.0417 65.0818 23.8167 65.0318 24.7L65.0568 25.2C65.0568 25.35 64.9818 25.425 64.8318 25.425Z" fill="#1E1E1E"/>
<path d="M72.041 6.97501H71.991C71.8243 6.97501 71.741 6.88335 71.741 6.70001L71.766 6.52501V6.60001C71.7493 6.43335 71.741 6.22501 71.741 5.97501C71.741 5.72501 71.7327 5.53335 71.716 5.40001C71.6494 5.15001 71.5493 4.95001 71.416 4.80001L71.191 4.45001C71.1743 4.41668 71.1577 4.39168 71.141 4.37501C71.1243 4.34168 71.1077 4.31668 71.091 4.30001C71.0743 4.26668 71.066 4.22501 71.066 4.17501C71.0493 3.97501 71.0243 3.77501 70.991 3.57501C70.9577 3.37501 70.9327 3.15001 70.916 2.90001C70.916 2.65001 70.891 2.44168 70.841 2.27501C70.8077 2.10835 70.766 1.97501 70.716 1.87501C70.6827 1.75835 70.666 1.64168 70.666 1.52501C70.666 1.40835 70.6993 1.27501 70.766 1.12501C70.7993 1.05835 70.8243 0.983345 70.841 0.900012C70.8744 0.800012 70.9077 0.708346 70.941 0.625013C70.991 0.525012 71.0743 0.441678 71.191 0.375011C71.491 0.175012 71.766 0.0750122 72.016 0.0750122C72.3993 0.0750122 72.691 0.258346 72.891 0.625013C73.1077 0.975012 73.216 1.34168 73.216 1.72501C73.216 1.94168 73.1827 2.14168 73.116 2.32501C72.9827 2.69168 72.9077 3.06668 72.891 3.45001C72.8743 3.83335 72.8077 4.21668 72.691 4.60001C72.4743 5.11668 72.366 5.65001 72.366 6.20001L72.391 6.62501C72.391 6.84168 72.2743 6.95835 72.041 6.97501Z" fill="#1E1E1E"/>
<path d="M85.9311 23.55C85.8311 23.55 85.7311 23.4833 85.6311 23.35C85.5477 23.2167 85.5061 23.0583 85.5061 22.875C85.5061 22.575 85.4894 22.3667 85.4561 22.25C85.3727 21.9833 85.3311 21.7667 85.3311 21.6C85.3311 21.45 85.2977 21.3167 85.2311 21.2C85.1811 21.0833 85.0394 20.9583 84.8061 20.825C84.5061 20.6917 84.1477 20.625 83.7311 20.625C83.5477 20.625 83.4144 20.775 83.3311 21.075C83.2811 21.4583 83.2227 21.7167 83.1561 21.85C83.106 21.9833 83.0227 22.05 82.9061 22.05C82.7727 22.05 82.6811 22.0167 82.6311 21.95C82.5977 21.8833 82.5811 21.5167 82.5811 20.85C82.4644 20.2167 82.4061 19.5917 82.4061 18.975C82.4061 18.7417 82.4144 18.5167 82.4311 18.3C82.4644 18.0667 82.4811 17.825 82.4811 17.575C82.4811 17.2417 82.4644 16.9083 82.4311 16.575C82.4144 16.2417 82.4061 15.9 82.4061 15.55L82.4311 15.05C82.4311 14.75 82.3311 14.475 82.1311 14.225C81.9311 13.9583 81.6561 13.825 81.3061 13.825C80.8894 13.825 80.6394 13.9667 80.5561 14.25C80.4894 14.45 80.4477 14.65 80.4311 14.85C80.4311 15.05 80.4061 15.2167 80.3561 15.35C80.3227 15.4833 80.2394 15.55 80.1061 15.55C79.9894 15.55 79.9144 15.5083 79.8811 15.425C79.8477 15.3417 79.8311 15.2 79.8311 15C79.8311 14.8 79.8144 14.625 79.7811 14.475C79.7644 14.3083 79.7061 14.1583 79.6061 14.025C79.4727 14.1417 79.3894 14.2667 79.3561 14.4C79.3394 14.5333 79.3311 14.7167 79.3311 14.95C79.3311 15.9833 79.3061 16.85 79.2561 17.55C79.1894 18.3167 79.0477 19.65 78.8311 21.55C78.7977 22.0667 78.7644 22.3583 78.7311 22.425C78.7144 22.5083 78.6311 22.5583 78.4811 22.575C78.3644 22.575 78.2894 22.5 78.2561 22.35C78.2227 22.2 78.1977 22.0167 78.1811 21.8C78.1477 21.4667 78.0811 21.15 77.9811 20.85C77.8811 20.55 77.6311 20.4 77.2311 20.4L76.7811 20.425C76.5811 20.425 76.3811 20.375 76.1811 20.275C76.1311 20.2417 76.0811 20.225 76.0311 20.225C75.9477 20.225 75.8894 20.2917 75.8561 20.425L75.7311 21.175C75.6144 21.5417 75.5561 21.925 75.5561 22.325C75.5561 22.5083 75.5061 22.65 75.4061 22.75C75.3227 22.8667 75.2311 22.925 75.1311 22.925C74.9311 22.925 74.8311 22.7583 74.8311 22.425L74.8561 22C74.8561 21.6667 74.8394 21.3333 74.8061 21C74.7727 20.6667 74.7561 20.3333 74.7561 20C74.7561 19.7167 74.7811 19.4333 74.8311 19.15C74.9144 18.6 74.9977 17.7833 75.0811 16.7C75.1144 16.1333 75.1311 15.4917 75.1311 14.775C75.0977 14.4417 75.0811 14.025 75.0811 13.525C75.0811 12.8583 75.0894 12.15 75.1061 11.4C75.1394 10.65 75.1561 9.96668 75.1561 9.35001C75.1561 8.53335 75.1227 7.90835 75.0561 7.47501C75.0227 7.59168 74.9811 7.71668 74.9311 7.85001C74.8977 7.96668 74.8727 8.08335 74.8561 8.20001C74.8561 8.30001 74.8227 8.38335 74.7561 8.45001C74.7061 8.50001 74.6394 8.52501 74.5561 8.52501C74.4227 8.52501 74.3394 8.43335 74.3061 8.25001C74.2894 8.06668 74.2811 7.63335 74.2811 6.95001C74.231 6.70001 74.2061 6.35001 74.2061 5.90001C74.2061 5.50001 74.2811 5.10001 74.4311 4.70001C74.5811 4.28335 74.8977 3.87501 75.3811 3.47501C75.5811 3.34168 75.8061 3.27501 76.0561 3.27501C76.2061 3.27501 76.3561 3.28335 76.5061 3.30001C76.6561 3.31668 76.7977 3.32501 76.9311 3.32501C77.0811 3.32501 77.2144 3.31668 77.3311 3.30001C77.4644 3.26668 77.5894 3.25001 77.7061 3.25001C78.0894 3.25001 78.4394 3.30835 78.7561 3.42501C79.0894 3.52501 79.2561 3.75001 79.2561 4.10001C79.2561 4.45001 79.2811 4.75001 79.3311 5.00001C79.3644 5.18335 79.3894 5.74168 79.4061 6.67501L79.3811 8.50001C79.3811 8.98335 79.4561 9.29168 79.6061 9.42501C79.7561 9.55835 80.1144 9.62501 80.6811 9.62501H81.6061C82.1894 9.59168 82.4811 9.35835 82.4811 8.92501C82.4811 8.79168 82.4644 8.64168 82.4311 8.47501C82.3977 8.30835 82.3811 8.12501 82.3811 7.92501L82.3561 6.92501L82.3811 6.85001C82.3811 6.76668 82.3727 6.71668 82.3561 6.70001C82.1894 6.58335 82.1061 6.45001 82.1061 6.30001C82.1061 6.20001 82.1227 6.07501 82.1561 5.92501C82.2227 5.65835 82.2561 5.17501 82.2561 4.47501C82.2561 4.17501 82.3144 3.95001 82.4311 3.80001C82.5477 3.65001 82.7394 3.53335 83.0061 3.45001C83.4561 3.30001 83.9061 3.22501 84.3561 3.22501L85.4311 3.27501C85.7311 3.27501 85.9727 3.40001 86.1561 3.65001C86.3394 3.88335 86.4311 4.15001 86.4311 4.45001C86.4311 4.65001 86.4227 4.83335 86.4061 5.00001C86.356 5.31668 86.3311 5.74168 86.3311 6.27501C86.3311 7.15835 86.4227 8.33335 86.6061 9.80001C86.6561 10.1167 86.6811 10.3167 86.6811 10.4C86.6477 10.6667 86.5977 10.8167 86.5311 10.85C86.4644 10.8667 86.4061 10.8833 86.3561 10.9C86.2227 10.9 86.1561 10.9667 86.1561 11.1C86.1894 14.8167 86.2144 16.7333 86.2311 16.85C86.2477 18.0667 86.3144 19.025 86.4311 19.725C86.4644 19.8417 86.4811 19.9667 86.4811 20.1C86.4811 20.2833 86.4477 20.6083 86.3811 21.075C86.3811 21.8417 86.3644 22.3167 86.3311 22.5C86.3144 22.7 86.2727 22.95 86.2061 23.25C86.1394 23.45 86.0477 23.55 85.9311 23.55Z" fill="#1E1E1E"/>
<path d="M89.0076 23.675C88.7576 23.675 88.6326 23.2833 88.6326 22.5L88.6826 21.625C88.6826 21.3917 88.641 21.1083 88.5576 20.775C88.5076 20.6417 88.441 20.5333 88.3576 20.45C88.291 20.3833 88.1993 20.325 88.0826 20.275C87.9826 20.225 87.891 20.15 87.8076 20.05C87.7243 19.95 87.6826 19.775 87.6826 19.525C87.6826 19.0917 87.8243 18.5083 88.1076 17.775C88.3076 17.175 88.466 16.5833 88.5826 16C88.666 15.5833 88.791 15.175 88.9576 14.775L88.9826 14.7C88.9826 14.6333 88.9326 14.5917 88.8326 14.575C88.5993 14.5083 88.4826 14.375 88.4826 14.175C88.4826 14.1083 88.5409 13.8917 88.6576 13.525C88.7909 13.1583 88.9326 12.7667 89.0826 12.35C89.2493 11.9333 89.3993 11.5917 89.5326 11.325C89.8159 10.7083 90.0076 10.0417 90.1076 9.32501C90.141 9.15835 90.1909 9.00001 90.2576 8.85001C90.341 8.63335 90.3909 8.40835 90.4076 8.17501C90.4576 7.54168 90.5493 6.81668 90.6826 6.00001C90.8326 5.16668 91.0076 4.54168 91.2076 4.12501C91.291 3.92501 91.4076 3.76668 91.5576 3.65001C91.7076 3.51668 91.9076 3.45001 92.1576 3.45001H92.3326C92.6493 3.45001 92.9576 3.42501 93.2576 3.37501C93.5743 3.32501 93.8743 3.30001 94.1576 3.30001H95.5576C95.7576 3.30001 95.9993 3.50835 96.2826 3.92501C96.5659 4.32501 96.7576 4.76668 96.8576 5.25001C97.0243 5.96668 97.2409 6.51668 97.5076 6.90001C97.7743 7.28335 97.9493 7.72501 98.0326 8.22501C98.0326 8.35835 97.9826 8.45835 97.8826 8.52501C97.7993 8.57501 97.7576 8.65001 97.7576 8.75001C97.7743 9.11668 97.841 9.46668 97.9576 9.80001C98.0743 10.1167 98.1326 10.5167 98.1326 11C98.1326 11.4667 98.2493 11.9167 98.4826 12.35C98.7826 12.9833 99.0993 14.275 99.4326 16.225C99.6493 17.4417 99.8493 18.325 100.033 18.875C100.199 19.275 100.283 19.6167 100.283 19.9C100.283 20.1167 100.233 20.2667 100.133 20.35C100.049 20.45 99.966 20.525 99.8826 20.575C99.7993 20.625 99.7243 20.675 99.6576 20.725C99.6076 20.775 99.5826 20.85 99.5826 20.95V21.9C99.5826 22.3667 99.5743 22.6833 99.5576 22.85C99.5076 23.25 99.3826 23.45 99.1826 23.45C99.0493 23.45 98.9493 23.3167 98.8826 23.05L98.8576 21.725C98.8076 21.425 98.766 21.2167 98.7326 21.1C98.6993 20.9833 98.6326 20.9083 98.5326 20.875C98.4326 20.8417 98.2743 20.8167 98.0576 20.8C97.8576 20.8 97.5743 20.775 97.2076 20.725H97.1076C97.0076 20.725 96.9409 20.7583 96.9076 20.825C96.8909 20.9083 96.8826 21.0417 96.8826 21.225C96.8826 21.4083 96.8743 21.6583 96.8576 21.975C96.841 22.1083 96.7993 22.2083 96.7326 22.275C96.666 22.3583 96.591 22.4 96.5076 22.4C96.4076 22.4 96.2993 22.325 96.1826 22.175C96.0659 22.025 96.0076 21.8667 96.0076 21.7V21.575C96.0076 21.3417 95.9743 21.1083 95.9076 20.875C95.841 20.6583 95.8076 20.4333 95.8076 20.2L95.8326 19.975C95.8326 19.8583 95.8076 19.7667 95.7576 19.7C95.7243 19.65 95.6909 19.6 95.6576 19.55C95.5243 19.0167 95.4409 18.5833 95.4076 18.25C95.3909 18 95.3576 17.8083 95.3076 17.675C95.2743 17.5417 95.1743 17.475 95.0076 17.475C94.9409 17.475 94.8826 17.4667 94.8326 17.45C94.5659 17.35 94.3076 17.3 94.0576 17.3C93.6909 17.3 93.3326 17.35 92.9826 17.45C92.8326 17.5 92.6993 17.5417 92.5826 17.575C92.466 17.5917 92.366 17.7667 92.2826 18.1C92.216 18.4333 92.1493 18.8083 92.0826 19.225C92.0326 19.6583 91.9743 20.05 91.9076 20.4C91.8743 20.5333 91.8576 20.675 91.8576 20.825V21.25C91.8576 21.5 91.816 21.7083 91.7326 21.875C91.6493 22.0417 91.5493 22.125 91.4326 22.125C91.3326 22.125 91.2576 22.0833 91.2076 22C91.1576 21.9167 91.1326 21.8167 91.1326 21.7L91.1576 21.225C91.1576 20.9583 91.016 20.8167 90.7326 20.8C90.6826 20.8 90.616 20.7583 90.5326 20.675C90.466 20.5917 90.3743 20.55 90.2576 20.55C90.1076 20.55 89.9743 20.6167 89.8576 20.75C89.591 21.2333 89.4576 21.7083 89.4576 22.175V22.65C89.4576 23.3333 89.3076 23.675 89.0076 23.675ZM94.8826 13.075C94.9159 13.0583 94.9326 13.025 94.9326 12.975C94.9326 12.825 94.841 12.4417 94.6576 11.825L94.3576 10.575C94.3243 10.425 94.2243 10.2917 94.0576 10.175C94.0243 10.7083 93.9243 11.2083 93.7576 11.675C93.6076 12.125 93.516 12.575 93.4826 13.025C93.666 13.0583 93.841 13.075 94.0076 13.075H94.8826Z" fill="#1E1E1E"/>
<path d="M102.481 24.075C102.365 24.075 102.256 24 102.156 23.85C102.056 23.7167 101.998 23.525 101.981 23.275C101.931 21.9583 101.84 20.9167 101.706 20.15C101.623 19.5833 101.581 19.0917 101.581 18.675C101.581 18.4917 101.598 18.325 101.631 18.175C101.681 18.025 101.706 17.8667 101.706 17.7C101.69 17.5667 101.665 17.4417 101.631 17.325C101.615 17.1917 101.606 17.025 101.606 16.825C101.606 16.5417 101.631 16.2417 101.681 15.925C101.731 15.6083 101.756 15.2083 101.756 14.725C101.756 14.125 101.715 13.7667 101.631 13.65L101.506 13.5C101.356 13.3833 101.281 13.2083 101.281 12.975C101.281 12.8583 101.298 12.7167 101.331 12.55C101.565 11 101.681 9.85835 101.681 9.12501L101.631 7.47501C101.631 7.25835 101.648 7.01668 101.681 6.75001C101.715 6.46668 101.731 6.17501 101.731 5.87501C101.731 5.50835 101.698 5.18335 101.631 4.90001C101.581 4.60001 101.556 4.35001 101.556 4.15001C101.556 3.91668 101.615 3.72501 101.731 3.57501C101.898 3.34168 102.331 3.22501 103.031 3.22501L104.106 3.25001C104.323 3.25001 104.49 3.24168 104.606 3.22501C104.74 3.20835 104.856 3.19168 104.956 3.17501C105.523 3.17501 105.84 3.53335 105.906 4.25001L106.056 8.90001C106.056 9.21668 106.031 9.40001 105.981 9.45001C105.948 9.48335 105.898 9.50835 105.831 9.52501C105.698 9.59168 105.631 9.75835 105.631 10.025C105.631 10.1917 105.64 10.3917 105.656 10.625C105.69 10.8417 105.706 11.0917 105.706 11.375C105.706 11.625 105.69 11.8417 105.656 12.025L105.631 12.375C105.631 12.5417 105.648 12.7083 105.681 12.875C105.748 13.2417 105.781 13.75 105.781 14.4L105.756 15.475C105.756 15.675 105.781 15.8667 105.831 16.05C105.881 16.2333 105.915 16.4083 105.931 16.575C105.931 16.675 105.981 16.725 106.081 16.725L106.806 16.75C106.956 16.75 107.098 16.725 107.231 16.675C107.381 16.625 107.523 16.6 107.656 16.6L108.356 16.65L109.706 16.625C110.44 16.625 111.048 16.6833 111.531 16.8C112.015 16.9167 112.281 17.1417 112.331 17.475C112.365 17.625 112.406 17.7833 112.456 17.95C112.506 18.1167 112.54 18.3667 112.556 18.7C112.556 19.1167 112.465 19.5167 112.281 19.9C112.165 20.1167 112.056 20.4333 111.956 20.85L111.656 22.75C111.606 22.9833 111.498 23.1 111.331 23.1C111.148 23.1 111.048 22.9083 111.031 22.525C111.031 22.1417 110.973 21.75 110.856 21.35C110.74 20.9667 110.448 20.725 109.981 20.625C109.398 20.5583 108.923 20.525 108.556 20.525C108.04 20.525 107.656 20.5583 107.406 20.625C107.156 20.6917 106.865 20.725 106.531 20.725C106.298 20.725 106.04 20.7 105.756 20.65C105.49 20.6167 105.273 20.6 105.106 20.6C104.856 20.6 104.665 20.6167 104.531 20.65C104.415 20.7 104.231 20.725 103.981 20.725C103.815 20.725 103.615 20.7083 103.381 20.675C103.315 20.675 103.281 20.7167 103.281 20.8L103.106 21.375C102.973 21.6917 102.906 22.025 102.906 22.375L102.931 23.025C102.931 23.3917 102.881 23.6583 102.781 23.825C102.698 23.9917 102.598 24.075 102.481 24.075Z" fill="#1E1E1E"/>
<path d="M114.762 24.075C114.645 24.075 114.537 24 114.437 23.85C114.337 23.7167 114.278 23.525 114.262 23.275C114.212 21.9583 114.12 20.9167 113.987 20.15C113.903 19.5833 113.862 19.0917 113.862 18.675C113.862 18.4917 113.878 18.325 113.912 18.175C113.962 18.025 113.987 17.8667 113.987 17.7C113.97 17.5667 113.945 17.4417 113.912 17.325C113.895 17.1917 113.887 17.025 113.887 16.825C113.887 16.5417 113.912 16.2417 113.962 15.925C114.012 15.6083 114.037 15.2083 114.037 14.725C114.037 14.125 113.995 13.7667 113.912 13.65L113.787 13.5C113.637 13.3833 113.562 13.2083 113.562 12.975C113.562 12.8583 113.578 12.7167 113.612 12.55C113.845 11 113.962 9.85835 113.962 9.12501L113.912 7.47501C113.912 7.25835 113.928 7.01668 113.962 6.75001C113.995 6.46668 114.012 6.17501 114.012 5.87501C114.012 5.50835 113.978 5.18335 113.912 4.90001C113.862 4.60001 113.837 4.35001 113.837 4.15001C113.837 3.91668 113.895 3.72501 114.012 3.57501C114.178 3.34168 114.612 3.22501 115.312 3.22501L116.387 3.25001C116.603 3.25001 116.77 3.24168 116.887 3.22501C117.02 3.20835 117.137 3.19168 117.237 3.17501C117.803 3.17501 118.12 3.53335 118.187 4.25001L118.337 8.90001C118.337 9.21668 118.312 9.40001 118.262 9.45001C118.228 9.48335 118.178 9.50835 118.112 9.52501C117.978 9.59168 117.912 9.75835 117.912 10.025C117.912 10.1917 117.92 10.3917 117.937 10.625C117.97 10.8417 117.987 11.0917 117.987 11.375C117.987 11.625 117.97 11.8417 117.937 12.025L117.912 12.375C117.912 12.5417 117.928 12.7083 117.962 12.875C118.028 13.2417 118.062 13.75 118.062 14.4L118.037 15.475C118.037 15.675 118.062 15.8667 118.112 16.05C118.162 16.2333 118.195 16.4083 118.212 16.575C118.212 16.675 118.262 16.725 118.362 16.725L119.087 16.75C119.237 16.75 119.378 16.725 119.512 16.675C119.662 16.625 119.803 16.6 119.937 16.6L120.637 16.65L121.987 16.625C122.72 16.625 123.328 16.6833 123.812 16.8C124.295 16.9167 124.562 17.1417 124.612 17.475C124.645 17.625 124.687 17.7833 124.737 17.95C124.787 18.1167 124.82 18.3667 124.837 18.7C124.837 19.1167 124.745 19.5167 124.562 19.9C124.445 20.1167 124.337 20.4333 124.237 20.85L123.937 22.75C123.887 22.9833 123.778 23.1 123.612 23.1C123.428 23.1 123.328 22.9083 123.312 22.525C123.312 22.1417 123.253 21.75 123.137 21.35C123.02 20.9667 122.728 20.725 122.262 20.625C121.678 20.5583 121.203 20.525 120.837 20.525C120.32 20.525 119.937 20.5583 119.687 20.625C119.437 20.6917 119.145 20.725 118.812 20.725C118.578 20.725 118.32 20.7 118.037 20.65C117.77 20.6167 117.553 20.6 117.387 20.6C117.137 20.6 116.945 20.6167 116.812 20.65C116.695 20.7 116.512 20.725 116.262 20.725C116.095 20.725 115.895 20.7083 115.662 20.675C115.595 20.675 115.562 20.7167 115.562 20.8L115.387 21.375C115.253 21.6917 115.187 22.025 115.187 22.375L115.212 23.025C115.212 23.3917 115.162 23.6583 115.062 23.825C114.978 23.9917 114.878 24.075 114.762 24.075Z" fill="#1E1E1E"/>
<path d="M136.492 26.625L136.442 26.6C136.158 26.5667 136.017 25.9083 136.017 24.625L136.042 22.825C136.042 22.1417 136 21.5417 135.917 21.025C135.85 20.525 135.667 20.275 135.367 20.275C135.233 20.275 135.067 20.35 134.867 20.5C134.667 20.6667 134.383 20.8083 134.017 20.925C133.667 21.0417 133.058 21.1 132.192 21.1C131.108 21.0167 130.342 20.85 129.892 20.6C129.642 20.45 129.442 20.375 129.292 20.375C129.092 20.375 128.958 20.5833 128.892 21L128.792 21.6C128.658 22.0833 128.592 22.575 128.592 23.075L128.617 23.275C128.567 23.6083 128.442 23.775 128.242 23.775C128.108 23.775 127.975 23.6917 127.842 23.525C127.725 23.3583 127.667 23.1 127.667 22.75L127.692 22.35C127.692 21.0833 127.467 19.45 127.017 17.45L126.767 16.35C126.65 15.75 126.575 15.325 126.542 15.075C126.508 14.825 126.483 14.6833 126.467 14.65C126.45 14.6 126.425 14.575 126.392 14.575C126.025 14.575 125.842 14.3083 125.842 13.775C125.842 13.375 125.908 12.875 126.042 12.275C126.192 11.675 126.358 11.025 126.542 10.325C126.742 9.60835 126.933 8.87501 127.117 8.12501C127.167 7.95835 127.275 7.68335 127.442 7.30001C127.608 6.90001 127.8 6.48335 128.017 6.05001C128.25 5.61668 128.492 5.25835 128.742 4.97501C129.525 4.10835 130.242 3.59168 130.892 3.42501C131.558 3.25835 132.192 3.17501 132.792 3.17501H133.667C134.1 3.17501 134.617 3.36668 135.217 3.75001C135.817 4.13335 136.275 4.52501 136.592 4.92501C137.175 5.62501 137.658 6.60835 138.042 7.87501C138.425 9.12501 138.617 10.55 138.617 12.15C138.617 13.45 138.45 14.8333 138.117 16.3C138.1 16.4167 138.092 16.6 138.092 16.85C138.092 17.0833 138.083 17.325 138.067 17.575C138.05 17.825 138.008 18.0417 137.942 18.225C137.892 18.4083 137.792 18.5 137.642 18.5C137.575 18.5 137.517 18.4917 137.467 18.475C137.417 18.4417 137.358 18.4167 137.292 18.4C137.258 18.4 137.233 18.4167 137.217 18.45C137.2 18.4667 137.192 18.4917 137.192 18.525C137.192 18.5417 137.183 18.5583 137.167 18.575C136.983 19.2417 136.892 19.7917 136.892 20.225C136.875 21.1083 136.85 21.9333 136.817 22.7C136.783 23.4833 136.767 24.25 136.767 25L136.792 26.075C136.792 26.4417 136.692 26.625 136.492 26.625ZM132.217 17.25C132.583 17.25 132.967 17.0333 133.367 16.6C134.083 15.8167 134.442 14.0833 134.442 11.4C134.442 10.1167 134.308 9.03335 134.042 8.15001C133.975 8.00001 133.767 7.81668 133.417 7.60001C133.267 7.51668 133.133 7.47501 133.017 7.47501C132.5 7.62501 132.183 7.92501 132.067 8.37501C131.967 8.80835 131.917 9.24168 131.917 9.67501V10.15C131.917 10.3333 131.908 10.5 131.892 10.65C131.858 10.8667 131.758 10.975 131.592 10.975C131.425 10.975 131.317 10.8917 131.267 10.725C131.217 10.5583 131.192 10.3833 131.192 10.2C131.175 9.90001 131.117 9.63335 131.017 9.40001L130.867 10.675C130.833 10.8583 130.817 11.0417 130.817 11.225C130.817 11.4083 130.825 11.6333 130.842 11.9C130.858 12.15 130.867 12.4583 130.867 12.825L130.967 13.875C130.967 14.0417 130.942 14.1917 130.892 14.325C130.842 14.4583 130.817 14.575 130.817 14.675C130.817 14.8583 130.883 15.025 131.017 15.175C131.083 15.2917 131.15 15.4333 131.217 15.6C131.3 15.7667 131.342 15.9917 131.342 16.275C131.342 16.5583 131.433 16.7917 131.617 16.975C131.8 17.1583 132 17.25 132.217 17.25Z" fill="#1E1E1E"/>
<path d="M141.711 24.75C141.528 24.7333 141.411 24.5833 141.361 24.3C141.311 24.0333 141.286 23.6833 141.286 23.25C141.286 22.45 141.17 21.6167 140.936 20.75C140.87 20.4833 140.836 19.9833 140.836 19.25C140.836 18.7167 140.845 18.2333 140.861 17.8L140.886 17.425C140.886 16.7583 140.803 16.025 140.636 15.225C140.553 14.8917 140.478 14.6917 140.411 14.625C140.045 14.425 139.861 14.1083 139.861 13.675C139.861 13.525 139.87 13.3583 139.886 13.175C139.903 12.975 139.911 12.7667 139.911 12.55L139.886 12.075C139.803 11.2583 139.761 10.3833 139.761 9.45001C139.761 8.75001 139.77 8.08335 139.786 7.45001L139.811 6.32501C139.811 5.92501 139.77 5.50001 139.686 5.05001C139.636 4.86668 139.611 4.68335 139.611 4.50001C139.611 4.30001 139.653 4.05001 139.736 3.75001C139.786 3.53335 139.903 3.38335 140.086 3.30001C140.286 3.21668 140.653 3.17501 141.186 3.17501C142.703 3.17501 143.586 3.25001 143.836 3.40001C143.92 3.46668 143.961 3.53335 143.961 3.60001L143.936 3.82501C143.936 4.09168 143.97 4.35001 144.036 4.60001L144.136 5.15001C144.136 6.25001 144.278 8.47501 144.561 11.825C144.578 12.0917 144.62 12.225 144.686 12.225C144.853 12.225 145.111 11.6333 145.461 10.45L145.586 10.05C145.636 9.80001 145.778 9.62501 146.011 9.52501C146.111 9.49168 146.186 9.42501 146.236 9.32501C146.37 9.19168 146.478 9.12501 146.561 9.12501C146.678 9.14168 146.761 9.18335 146.811 9.25001C146.861 9.30001 146.903 9.36668 146.936 9.45001C146.986 9.51668 147.045 9.59168 147.111 9.67501C147.445 9.99168 147.661 10.2833 147.761 10.55C147.878 10.8167 147.945 11.0583 147.961 11.275C147.995 11.4917 148.045 11.7 148.111 11.9C148.178 12.0833 148.311 12.2833 148.511 12.5C148.645 11.8833 148.711 11.2917 148.711 10.725V9.87501C148.695 9.49168 148.686 9.02501 148.686 8.47501C148.686 7.72501 148.72 6.74168 148.786 5.52501L148.811 5.02501V4.77501C148.811 4.35835 148.911 3.94168 149.111 3.52501C149.361 3.19168 149.686 3.02501 150.086 3.02501C150.27 3.02501 150.486 3.05001 150.736 3.10001C151.003 3.13335 151.295 3.15001 151.611 3.15001C151.745 3.15001 151.878 3.14168 152.011 3.12501C152.145 3.10835 152.27 3.10001 152.386 3.10001C152.836 3.10001 153.136 3.34168 153.286 3.82501C153.336 4.04168 153.361 4.39168 153.361 4.87501C153.361 6.14168 153.253 7.75001 153.036 9.70001L152.861 11.2C152.811 11.55 152.786 12.6083 152.786 14.375L152.811 16.55C152.811 16.75 152.745 16.9167 152.611 17.05C152.495 17.1667 152.436 17.3333 152.436 17.55C152.436 19.2167 152.27 21.05 151.936 23.05C151.936 23.35 151.92 23.5333 151.886 23.6C151.853 23.6833 151.786 23.725 151.686 23.725C151.586 23.725 151.52 23.6583 151.486 23.525C151.453 23.4083 151.428 23.25 151.411 23.05C151.395 22.7333 151.328 22.425 151.211 22.125C151.111 21.8417 150.861 21.7 150.461 21.7C150.195 21.7 149.895 21.7667 149.561 21.9C149.428 21.95 149.336 22.0417 149.286 22.175C149.253 22.3083 149.228 22.5167 149.211 22.8C149.145 23.8833 149.011 24.425 148.811 24.425C148.595 24.3917 148.486 24.2667 148.486 24.05C148.503 23.8833 148.52 23.7167 148.536 23.55C148.553 23.4 148.561 23.225 148.561 23.025C148.561 22.575 148.52 22.2 148.436 21.9C148.37 21.6 148.278 21.2917 148.161 20.975C148.045 20.675 147.945 20.275 147.861 19.775C147.811 19.4417 147.72 19.1083 147.586 18.775C147.47 18.4417 147.345 18.0083 147.211 17.475C147.078 16.925 146.961 16.425 146.861 15.975C146.761 15.5083 146.686 15.2167 146.636 15.1C146.303 15.6333 145.861 16.9083 145.311 18.925L144.961 20.175C144.895 20.5083 144.853 20.8333 144.836 21.15C144.836 21.7 144.753 22.4583 144.586 23.425C144.57 23.725 144.47 23.875 144.286 23.875C144.103 23.875 144.011 23.7917 144.011 23.625L144.036 23.25C144.036 23 143.986 22.7167 143.886 22.4C143.786 22.1 143.62 21.95 143.386 21.95L142.736 22.025C142.353 22.1083 142.161 22.3667 142.161 22.8C142.161 23.25 142.153 23.5917 142.136 23.825C142.086 24.4417 141.945 24.75 141.711 24.75Z" fill="#1E1E1E"/>
<path d="M156.382 27.05C156.066 27.05 155.907 26.725 155.907 26.075L155.932 25.675C155.749 24.775 155.657 24.0333 155.657 23.45V23.3C155.657 22.9 155.624 22.5417 155.557 22.225C155.507 21.925 155.374 21.65 155.157 21.4C155.074 21.3333 155.016 21.2667 154.982 21.2C154.966 21.1333 154.932 21.025 154.882 20.875C154.849 20.7417 154.707 20.3333 154.457 19.65C154.391 19.5167 154.357 19.375 154.357 19.225C154.357 19.1417 154.382 19.0583 154.432 18.975C154.549 18.775 154.624 18.5583 154.657 18.325C154.707 18.0917 154.741 17.7917 154.757 17.425C154.774 16.925 154.841 16.225 154.957 15.325C154.957 15.0417 154.941 14.825 154.907 14.675C154.874 14.5083 154.857 14.35 154.857 14.2L154.882 12.975C154.916 12.275 154.941 11.5583 154.957 10.825C154.974 10.075 154.991 9.56668 155.007 9.30001C155.007 9.10001 154.982 8.90835 154.932 8.72501C154.899 8.52501 154.882 8.33335 154.882 8.15001L154.907 8.00001C154.907 7.90001 154.916 7.83335 154.932 7.80001C154.916 7.71668 154.857 7.67501 154.757 7.67501H154.657C154.491 7.67501 154.407 7.54168 154.407 7.27501C154.407 6.99168 154.466 6.52501 154.582 5.87501C154.649 5.54168 154.682 5.29168 154.682 5.12501V5.00001C154.682 4.78335 154.716 4.56668 154.782 4.35001C154.866 4.13335 155.066 3.94168 155.382 3.77501C155.832 3.57501 156.274 3.47501 156.707 3.47501C156.974 3.47501 157.266 3.49168 157.582 3.52501C158.032 3.59168 158.674 3.62501 159.507 3.62501C159.907 3.62501 160.282 3.61668 160.632 3.60001C160.999 3.56668 161.607 3.55001 162.457 3.55001C162.674 3.55001 162.874 3.52501 163.057 3.47501C163.257 3.40835 163.624 3.37501 164.157 3.37501C164.491 3.37501 164.916 3.40001 165.432 3.45001C165.816 3.51668 166.041 3.73335 166.107 4.10001C166.191 4.45001 166.232 4.81668 166.232 5.20001V5.52501C166.232 5.84168 166.199 6.13335 166.132 6.40001C166.066 6.65001 165.991 6.91668 165.907 7.20001C165.657 7.81668 165.441 8.80001 165.257 10.15C165.241 10.3333 165.199 10.5083 165.132 10.675C165.066 10.8417 164.932 10.925 164.732 10.925C164.449 10.9083 164.307 10.6083 164.307 10.025C164.307 9.74168 164.324 9.45001 164.357 9.15001C164.391 8.83335 164.407 8.56668 164.407 8.35001C164.407 7.93334 164.332 7.72501 164.182 7.72501C164.116 7.74168 164.049 7.75835 163.982 7.77501C163.932 7.79168 163.849 7.80001 163.732 7.80001C163.582 7.80001 163.432 7.78335 163.282 7.75001C163.149 7.71668 163.016 7.70001 162.882 7.70001H162.057C161.757 7.70001 161.466 7.73335 161.182 7.80001C161.116 7.81668 161.041 7.82501 160.957 7.82501C160.791 7.82501 160.616 7.80001 160.432 7.75001C160.249 7.70001 160.066 7.66668 159.882 7.65001C159.582 7.65001 159.432 7.77501 159.432 8.02501V8.32501C159.382 8.47501 159.357 8.63335 159.357 8.80001C159.357 9.01668 159.374 9.22501 159.407 9.42501C159.457 9.62501 159.491 9.81668 159.507 10C159.524 10.1167 159.557 10.175 159.607 10.175C159.657 10.175 159.716 10.1583 159.782 10.125C159.916 10.0583 160.107 10.025 160.357 10.025C160.457 10.025 160.566 10.05 160.682 10.1C160.816 10.1333 161.007 10.15 161.257 10.15L161.907 10.125C162.191 10.125 162.441 10.1833 162.657 10.3C162.874 10.4167 162.982 10.6833 162.982 11.1V12.075C162.982 12.5917 162.882 13.075 162.682 13.525C162.549 13.925 162.482 14.3583 162.482 14.825V15.025C162.482 15.1583 162.466 15.275 162.432 15.375C162.416 15.475 162.324 15.525 162.157 15.525C161.891 15.525 161.757 15.35 161.757 15C161.757 14.85 161.766 14.7167 161.782 14.6C161.816 14.4833 161.832 14.3667 161.832 14.25C161.832 14.15 161.757 14.1 161.607 14.1C161.174 14.1 160.866 14.125 160.682 14.175C160.516 14.2083 160.382 14.25 160.282 14.3C160.182 14.3333 160.082 14.35 159.982 14.35C159.899 14.35 159.824 14.3417 159.757 14.325C159.691 14.2917 159.616 14.2667 159.532 14.25C159.449 14.25 159.407 14.2917 159.407 14.375L159.432 14.575C159.482 14.675 159.507 14.8083 159.507 14.975C159.507 15.1583 159.491 15.3333 159.457 15.5C159.441 15.65 159.432 15.7917 159.432 15.925C159.432 16.175 159.524 16.3833 159.707 16.55C159.891 16.7 160.316 16.775 160.982 16.775C161.216 16.775 161.432 16.7667 161.632 16.75C161.832 16.7333 162.082 16.7167 162.382 16.7C162.782 16.7 163.291 16.7417 163.907 16.825C164.524 16.8917 164.966 17 165.232 17.15C165.582 17.35 165.832 17.6333 165.982 18C166.132 18.35 166.207 18.9 166.207 19.65C166.207 20.4833 166.132 21.6583 165.982 23.175C165.932 23.5583 165.832 23.8333 165.682 24C165.532 24.1833 165.374 24.275 165.207 24.275C165.057 24.275 164.924 24.2167 164.807 24.1C164.707 23.9833 164.657 23.825 164.657 23.625C164.657 23.5083 164.674 23.375 164.707 23.225C164.757 23.075 164.782 22.925 164.782 22.775C164.782 22.4583 164.724 22.15 164.607 21.85C164.574 21.7167 164.541 21.5917 164.507 21.475C164.491 21.375 164.449 21.3083 164.382 21.275C164.316 21.2583 164.216 21.25 164.082 21.25C163.966 21.25 163.857 21.2417 163.757 21.225C163.424 21.1917 163.091 21.175 162.757 21.175C162.557 21.175 162.399 21.1833 162.282 21.2C162.182 21.2167 162.066 21.225 161.932 21.225C161.799 21.225 161.657 21.2083 161.507 21.175C161.374 21.1583 161.224 21.15 161.057 21.15C160.574 21.15 160.141 21.1083 159.757 21.025C159.441 20.9583 159.149 20.925 158.882 20.925C158.566 20.925 158.282 21.0167 158.032 21.2C157.799 21.4 157.591 21.7667 157.407 22.3C157.241 22.8333 157.099 23.6083 156.982 24.625L156.957 25.3V25.475C156.957 25.8083 156.916 26.1417 156.832 26.475C156.682 26.8583 156.532 27.05 156.382 27.05Z" fill="#1E1E1E"/>
<path d="M169.273 27.05C168.956 27.05 168.798 26.725 168.798 26.075L168.823 25.675C168.64 24.775 168.548 24.0333 168.548 23.45V23.3C168.548 22.9 168.515 22.5417 168.448 22.225C168.398 21.925 168.265 21.65 168.048 21.4C167.965 21.3333 167.906 21.2667 167.873 21.2C167.856 21.1333 167.823 21.025 167.773 20.875C167.74 20.7417 167.598 20.3333 167.348 19.65C167.281 19.5167 167.248 19.375 167.248 19.225C167.248 19.1417 167.273 19.0583 167.323 18.975C167.44 18.775 167.515 18.5583 167.548 18.325C167.598 18.0917 167.631 17.7917 167.648 17.425C167.665 16.925 167.731 16.225 167.848 15.325C167.848 15.0417 167.831 14.825 167.798 14.675C167.765 14.5083 167.748 14.35 167.748 14.2L167.773 12.975C167.806 12.275 167.831 11.5583 167.848 10.825C167.865 10.075 167.881 9.56668 167.898 9.30001C167.898 9.10001 167.873 8.90835 167.823 8.72501C167.79 8.52501 167.773 8.33335 167.773 8.15001L167.798 8.00001C167.798 7.90001 167.806 7.83335 167.823 7.80001C167.806 7.71668 167.748 7.67501 167.648 7.67501H167.548C167.381 7.67501 167.298 7.54168 167.298 7.27501C167.298 6.99168 167.356 6.52501 167.473 5.87501C167.54 5.54168 167.573 5.29168 167.573 5.12501V5.00001C167.573 4.78335 167.606 4.56668 167.673 4.35001C167.756 4.13335 167.956 3.94168 168.273 3.77501C168.723 3.57501 169.165 3.47501 169.598 3.47501C169.865 3.47501 170.156 3.49168 170.473 3.52501C170.923 3.59168 171.565 3.62501 172.398 3.62501C172.798 3.62501 173.173 3.61668 173.523 3.60001C173.89 3.56668 174.498 3.55001 175.348 3.55001C175.565 3.55001 175.765 3.52501 175.948 3.47501C176.148 3.40835 176.515 3.37501 177.048 3.37501C177.381 3.37501 177.806 3.40001 178.323 3.45001C178.706 3.51668 178.931 3.73335 178.998 4.10001C179.081 4.45001 179.123 4.81668 179.123 5.20001V5.52501C179.123 5.84168 179.09 6.13335 179.023 6.40001C178.956 6.65001 178.881 6.91668 178.798 7.20001C178.548 7.81668 178.331 8.80001 178.148 10.15C178.131 10.3333 178.09 10.5083 178.023 10.675C177.956 10.8417 177.823 10.925 177.623 10.925C177.34 10.9083 177.198 10.6083 177.198 10.025C177.198 9.74168 177.215 9.45001 177.248 9.15001C177.281 8.83335 177.298 8.56668 177.298 8.35001C177.298 7.93334 177.223 7.72501 177.073 7.72501C177.006 7.74168 176.94 7.75835 176.873 7.77501C176.823 7.79168 176.74 7.80001 176.623 7.80001C176.473 7.80001 176.323 7.78335 176.173 7.75001C176.04 7.71668 175.906 7.70001 175.773 7.70001H174.948C174.648 7.70001 174.356 7.73335 174.073 7.80001C174.006 7.81668 173.931 7.82501 173.848 7.82501C173.681 7.82501 173.506 7.80001 173.323 7.75001C173.14 7.70001 172.956 7.66668 172.773 7.65001C172.473 7.65001 172.323 7.77501 172.323 8.02501V8.32501C172.273 8.47501 172.248 8.63335 172.248 8.80001C172.248 9.01668 172.265 9.22501 172.298 9.42501C172.348 9.62501 172.381 9.81668 172.398 10C172.415 10.1167 172.448 10.175 172.498 10.175C172.548 10.175 172.606 10.1583 172.673 10.125C172.806 10.0583 172.998 10.025 173.248 10.025C173.348 10.025 173.456 10.05 173.573 10.1C173.706 10.1333 173.898 10.15 174.148 10.15L174.798 10.125C175.081 10.125 175.331 10.1833 175.548 10.3C175.765 10.4167 175.873 10.6833 175.873 11.1V12.075C175.873 12.5917 175.773 13.075 175.573 13.525C175.44 13.925 175.373 14.3583 175.373 14.825V15.025C175.373 15.1583 175.356 15.275 175.323 15.375C175.306 15.475 175.215 15.525 175.048 15.525C174.781 15.525 174.648 15.35 174.648 15C174.648 14.85 174.656 14.7167 174.673 14.6C174.706 14.4833 174.723 14.3667 174.723 14.25C174.723 14.15 174.648 14.1 174.498 14.1C174.065 14.1 173.756 14.125 173.573 14.175C173.406 14.2083 173.273 14.25 173.173 14.3C173.073 14.3333 172.973 14.35 172.873 14.35C172.79 14.35 172.715 14.3417 172.648 14.325C172.581 14.2917 172.506 14.2667 172.423 14.25C172.34 14.25 172.298 14.2917 172.298 14.375L172.323 14.575C172.373 14.675 172.398 14.8083 172.398 14.975C172.398 15.1583 172.381 15.3333 172.348 15.5C172.331 15.65 172.323 15.7917 172.323 15.925C172.323 16.175 172.415 16.3833 172.598 16.55C172.781 16.7 173.206 16.775 173.873 16.775C174.106 16.775 174.323 16.7667 174.523 16.75C174.723 16.7333 174.973 16.7167 175.273 16.7C175.673 16.7 176.181 16.7417 176.798 16.825C177.415 16.8917 177.856 17 178.123 17.15C178.473 17.35 178.723 17.6333 178.873 18C179.023 18.35 179.098 18.9 179.098 19.65C179.098 20.4833 179.023 21.6583 178.873 23.175C178.823 23.5583 178.723 23.8333 178.573 24C178.423 24.1833 178.265 24.275 178.098 24.275C177.948 24.275 177.815 24.2167 177.698 24.1C177.598 23.9833 177.548 23.825 177.548 23.625C177.548 23.5083 177.565 23.375 177.598 23.225C177.648 23.075 177.673 22.925 177.673 22.775C177.673 22.4583 177.615 22.15 177.498 21.85C177.465 21.7167 177.431 21.5917 177.398 21.475C177.381 21.375 177.34 21.3083 177.273 21.275C177.206 21.2583 177.106 21.25 176.973 21.25C176.856 21.25 176.748 21.2417 176.648 21.225C176.315 21.1917 175.981 21.175 175.648 21.175C175.448 21.175 175.29 21.1833 175.173 21.2C175.073 21.2167 174.956 21.225 174.823 21.225C174.69 21.225 174.548 21.2083 174.398 21.175C174.265 21.1583 174.115 21.15 173.948 21.15C173.465 21.15 173.031 21.1083 172.648 21.025C172.331 20.9583 172.04 20.925 171.773 20.925C171.456 20.925 171.173 21.0167 170.923 21.2C170.69 21.4 170.481 21.7667 170.298 22.3C170.131 22.8333 169.99 23.6083 169.873 24.625L169.848 25.3V25.475C169.848 25.8083 169.806 26.1417 169.723 26.475C169.573 26.8583 169.423 27.05 169.273 27.05Z" fill="#1E1E1E"/>
<path d="M183.639 24.15C183.272 24.15 183.089 23.85 183.089 23.25L183.114 22.775C183.18 22.5083 183.214 21.925 183.214 21.025C183.214 20.9083 183.155 20.85 183.039 20.85L182.889 20.875C182.722 20.875 182.572 20.8417 182.439 20.775C182.305 20.7083 182.147 20.675 181.964 20.675C181.78 20.675 181.614 20.7 181.464 20.75C181.18 20.8333 181.039 21.2833 181.039 22.1C181.039 22.2333 181.047 22.35 181.064 22.45C181.097 22.5667 181.114 22.75 181.114 23C181.114 23.35 181.014 23.525 180.814 23.525C180.68 23.525 180.539 23.4417 180.389 23.275C180.255 23.1083 180.189 22.875 180.189 22.575C180.189 22.4583 180.205 22.3333 180.239 22.2C180.289 21.9 180.355 21.1083 180.439 19.825C180.522 18.5583 180.589 17.15 180.639 15.6C180.705 14.0333 180.739 12.75 180.739 11.75C180.739 11.2667 180.73 10.9 180.714 10.65L180.689 10.625C180.689 10.5417 180.672 10.4833 180.639 10.45C180.622 10.4 180.555 10.3667 180.439 10.35C180.339 10.3333 180.264 10.2583 180.214 10.125C180.164 9.97501 180.139 9.81668 180.139 9.65001C180.139 9.46668 180.155 9.30001 180.189 9.15001C180.355 8.13335 180.439 6.92501 180.439 5.52501C180.439 4.80835 180.48 4.29168 180.564 3.97501C180.647 3.64168 180.889 3.45001 181.289 3.40001C181.705 3.33335 182.122 3.30001 182.539 3.30001C182.889 3.30001 183.247 3.28335 183.614 3.25001C183.847 3.25001 184.105 3.38335 184.389 3.65001C184.672 3.90001 184.855 4.14168 184.939 4.37501C185.105 5.05835 185.239 5.57501 185.339 5.92501C185.439 6.27501 185.522 6.53335 185.589 6.70001C185.655 6.86668 185.714 7.00001 185.764 7.10001C185.83 7.18335 185.889 7.29168 185.939 7.42501C186.005 7.55835 186.08 7.75835 186.164 8.02501C186.247 8.27501 186.347 8.51668 186.464 8.75001C186.597 8.96668 186.705 9.17501 186.789 9.37501C186.922 9.87501 187.155 10.3083 187.489 10.675C187.555 10.6417 187.589 10.6 187.589 10.55C187.555 10.2333 187.539 9.92501 187.539 9.62501C187.539 9.20835 187.522 8.93335 187.489 8.80001C187.439 8.15001 187.414 7.69168 187.414 7.42501C187.414 7.20835 187.447 6.95835 187.514 6.67501C187.58 6.37501 187.622 5.97501 187.639 5.47501C187.639 4.55835 187.747 3.90835 187.964 3.52501C188.08 3.29168 188.28 3.17501 188.564 3.17501H188.714C188.764 3.19168 188.864 3.20001 189.014 3.20001L189.614 3.17501C189.83 3.17501 190.055 3.20835 190.289 3.27501L190.439 3.30001C190.522 3.30001 190.605 3.29168 190.689 3.27501C190.789 3.24168 190.889 3.22501 190.989 3.22501C191.322 3.24168 191.547 3.35001 191.664 3.55001C191.78 3.75001 191.839 4.01668 191.839 4.35001C191.839 4.65001 191.814 5.02501 191.764 5.47501C191.697 6.05835 191.647 6.75835 191.614 7.57501C191.597 9.05835 191.572 10.1333 191.539 10.8L191.514 11.95C191.514 12.2667 191.522 12.5583 191.539 12.825C191.572 13.075 191.614 13.7 191.664 14.7C191.664 14.9667 191.697 15.2 191.764 15.4C191.814 15.4833 191.847 15.6333 191.864 15.85V17.275C191.847 17.3083 191.83 17.3417 191.814 17.375C191.814 17.4083 191.805 17.4333 191.789 17.45C191.589 17.5333 191.489 17.6833 191.489 17.9V18.15C191.505 18.3 191.514 18.5 191.514 18.75C191.514 19.35 191.38 20.35 191.114 21.75C191.064 22.0333 190.947 22.175 190.764 22.175C190.58 22.1583 190.489 22.0333 190.489 21.8L190.514 21.25C190.514 20.8167 190.289 20.6 189.839 20.6C189.255 20.6333 188.88 20.8 188.714 21.1C188.564 21.4167 188.489 21.8 188.489 22.25L188.514 22.875C188.514 23.275 188.422 23.475 188.239 23.475C188.072 23.475 187.989 23.3917 187.989 23.225L188.014 22.975C188.014 22.675 187.989 22.375 187.939 22.075C187.905 21.7917 187.889 21.5083 187.889 21.225L187.914 20.85C187.914 20.65 187.889 20.4417 187.839 20.225C187.822 20.1083 187.814 19.9833 187.814 19.85C187.764 19.6333 187.672 19.425 187.539 19.225L187.189 18.575C187.089 18.3417 186.972 18.1083 186.839 17.875C186.789 17.9417 186.747 18.0167 186.714 18.1C186.697 18.1667 186.672 18.225 186.639 18.275C186.605 18.325 186.547 18.35 186.464 18.35C186.264 18.35 186.164 18.2167 186.164 17.95C186.164 17.8833 186.114 17.7083 186.014 17.425C185.93 17.125 185.73 16.4917 185.414 15.525C185.297 15.175 185.23 14.9083 185.214 14.725C185.214 14.5417 185.072 14.2917 184.789 13.975L184.714 13.9V15.375C184.714 15.4917 184.705 15.5583 184.689 15.575C184.689 15.575 184.689 15.5833 184.689 15.6C184.505 15.8667 184.414 16.1417 184.414 16.425L184.439 16.775C184.439 17.2917 184.422 17.6667 184.389 17.9C184.355 18.2167 184.339 18.6833 184.339 19.3L184.389 19.95C184.389 20.25 184.305 20.45 184.139 20.55C183.989 20.6667 183.914 20.8583 183.914 21.125L183.939 21.575C183.955 21.825 183.964 22.1833 183.964 22.65C183.964 23.3833 183.939 23.8083 183.889 23.925C183.839 24.0417 183.755 24.1167 183.639 24.15Z" fill="#1E1E1E"/>
</svg>
