<svg width="209" height="27" viewBox="0 0 209 27" fill="none" xmlns="http://www.w3.org/2000/svg">
<path d="M1.9043 26.5674H1.81641C1.77734 26.5479 1.75781 26.3916 1.75781 26.0986C1.75781 24.8877 2.02637 23.667 2.56348 22.4365C2.50488 22.4561 2.44141 22.4707 2.37305 22.4805C2.17773 22.5391 2.03125 22.7051 1.93359 22.9785C1.89453 23.0859 1.85059 23.1836 1.80176 23.2715C1.74316 23.3594 1.68457 23.4619 1.62598 23.5791C1.55762 23.6865 1.47949 23.8037 1.3916 23.9307C1.37207 23.9404 1.35742 23.9551 1.34766 23.9746C1.2793 24.1113 1.16699 24.1797 1.01074 24.1797C0.893555 24.1602 0.800781 24.1309 0.732422 24.0918C0.664062 24.0527 0.629883 23.9795 0.629883 23.8721L0.644531 23.6523C0.654297 23.3887 0.722656 23.1348 0.849609 22.8906C0.947266 22.7148 0.996094 22.5488 0.996094 22.3926V22.2021C0.986328 22.0947 0.952148 21.9531 0.893555 21.7773C0.825195 21.5918 0.786133 21.4014 0.776367 21.2061L0.761719 21.0742C0.761719 20.9766 0.766602 20.8838 0.776367 20.7959C0.786133 20.6982 0.834961 20.5957 0.922852 20.4883C1.00098 20.3809 1.04004 20.2832 1.04004 20.1953C1.04004 20.1465 1.02051 20.083 0.981445 20.0049C0.942383 19.9268 0.878906 19.7998 0.791016 19.624C0.751953 19.5947 0.732422 19.5508 0.732422 19.4922C0.732422 19.4531 0.737305 19.4238 0.74707 19.4043C0.874023 19.2578 1.02539 18.9844 1.20117 18.584C1.5625 17.7441 1.79688 17.0459 1.9043 16.4893C1.99219 15.8643 2.08496 15.4199 2.18262 15.1562C2.28027 14.8828 2.41699 14.5947 2.59277 14.292C2.9541 13.6572 3.44238 12.666 4.05762 11.3184L4.07227 11.1133C4.16016 10.1855 4.38477 9.29688 4.74609 8.44727C5.11719 7.58789 5.58105 6.71875 6.1377 5.83984C6.14746 5.83008 6.17188 5.8252 6.21094 5.8252C6.2207 5.83496 6.22559 5.84961 6.22559 5.86914C5.95215 6.60156 5.72754 7.31934 5.55176 8.02246L6.38672 6.23535C6.62109 5.75684 6.89453 5.24902 7.20703 4.71191C7.33398 4.4873 7.50488 4.375 7.71973 4.375C7.81738 4.375 7.95898 4.40918 8.14453 4.47754C8.29102 4.5459 8.45215 4.58008 8.62793 4.58008C8.76465 4.58008 8.92578 4.50195 9.11133 4.3457C9.12109 4.33594 9.13574 4.33105 9.15527 4.33105C9.1748 4.33105 9.19922 4.34082 9.22852 4.36035C9.26758 4.37012 9.30176 4.39453 9.33105 4.43359C9.37012 4.47266 9.38965 4.5166 9.38965 4.56543L9.375 4.74121C9.375 4.94629 9.45801 5.05859 9.62402 5.07812C9.89746 5.07812 10.1465 5.05371 10.3711 5.00488C11.1816 4.84863 11.8506 4.73633 12.3779 4.66797C12.915 4.59961 13.5889 4.54102 14.3994 4.49219H14.5166L14.3994 4.52148C14.2139 4.54102 14.0967 4.5752 14.0479 4.62402V4.63867C14.0479 4.64844 14.082 4.6582 14.1504 4.66797C14.5996 4.73633 15.0586 4.77051 15.5273 4.77051C15.918 4.77051 16.3184 4.74609 16.7285 4.69727C16.9727 4.64844 17.1875 4.62402 17.373 4.62402C17.4316 4.62402 17.5342 4.63379 17.6807 4.65332C17.8271 4.66309 17.9736 4.77539 18.1201 4.99023C18.1689 5.06836 18.252 5.1123 18.3691 5.12207L19.043 5.10742C19.2383 5.10742 19.4336 5.13184 19.6289 5.18066C18.8184 5.39551 18.0859 5.50293 17.4316 5.50293C17.2852 5.50293 17.1436 5.49805 17.0068 5.48828C16.792 5.48828 16.6553 5.5127 16.5967 5.56152C16.5381 5.60059 16.5088 5.65918 16.5088 5.7373L17.2119 5.72266C18.7256 5.72266 20.083 5.88867 21.2842 6.2207C20.1904 6.35742 19.1553 6.43066 18.1787 6.44043C17.9834 6.51855 17.7783 6.56738 17.5635 6.58691C17.1729 6.66504 16.6357 6.78223 15.9521 6.93848L14.9268 7.1582C14.4189 7.25586 13.5742 7.36816 12.3926 7.49512C11.8652 7.57324 11.3623 7.70996 10.8838 7.90527C10.5029 8.06152 10.1123 8.18359 9.71191 8.27148C9.56543 8.31055 9.46777 8.37891 9.41895 8.47656C9.34082 8.91602 9.20898 9.49707 9.02344 10.2197C8.83789 10.9326 8.67676 11.5088 8.54004 11.9482C8.84277 11.9482 9.2334 11.9189 9.71191 11.8604C10.1514 11.8115 10.498 11.7822 10.752 11.7725C11.3086 11.7725 11.7383 11.792 12.041 11.8311C12.3438 11.8604 12.7393 11.9238 13.2275 12.0215C13.335 12.0508 13.3887 12.0801 13.3887 12.1094C13.3887 12.1289 13.3691 12.1484 13.3301 12.168C12.9004 12.2852 12.4561 12.3828 11.9971 12.4609C12.5049 12.5098 13.0859 12.6416 13.7402 12.8564C14.5605 12.8662 15.3174 12.9199 16.0107 13.0176L14.7217 13.1494L14.7949 13.1787L15.0439 13.2373C15.0635 13.2471 15.0732 13.2568 15.0732 13.2666C15.0732 13.2764 15.0635 13.2861 15.0439 13.2959C15.0342 13.3057 15.0244 13.3105 15.0146 13.3105H15C14.3555 13.3105 13.7207 13.3936 13.0957 13.5596L13.0371 13.5742C13.0273 13.6621 12.9785 13.7402 12.8906 13.8086C12.8027 13.8672 12.7002 13.9062 12.583 13.9258C12.4756 13.9355 12.373 13.9502 12.2754 13.9697C12.0898 13.999 11.9238 14.0186 11.7773 14.0283H11.1914L10.7227 14.0137C10.3027 14.0137 9.80957 14.0723 9.24316 14.1895C8.8916 14.2676 8.45215 14.3359 7.9248 14.3945C7.77832 14.4043 7.63672 14.4238 7.5 14.4531C7.30469 14.8145 7.08496 15.1611 6.84082 15.4932C6.81152 15.542 6.76758 15.5762 6.70898 15.5957C6.64062 15.8301 6.58203 16.0205 6.5332 16.167C6.49414 16.3037 6.46484 16.4111 6.44531 16.4893C6.42578 16.5576 6.40625 16.6064 6.38672 16.6357C6.2793 16.7725 6.1084 17.0361 5.87402 17.4268L5.83008 17.8223L6.24023 17.251L6.37207 17.1045C6.43066 17.0068 6.50391 16.8262 6.5918 16.5625C6.60156 16.5527 6.61621 16.5479 6.63574 16.5479C6.64551 16.5479 6.65039 16.5527 6.65039 16.5625L6.5332 17.251C6.48438 17.6123 6.41602 17.9395 6.32812 18.2324C6.24023 18.5156 6.06445 18.9111 5.80078 19.4189C5.63477 19.7217 5.5127 19.9805 5.43457 20.1953C5.24902 20.6152 5.04883 21.0107 4.83398 21.3818L4.51172 21.9971C3.74023 23.5107 2.90039 25.0146 1.99219 26.5088C1.97266 26.5381 1.94336 26.5576 1.9043 26.5674ZM5.43457 10.1025C5.53223 9.93652 5.58105 9.75586 5.58105 9.56055L5.56641 9.41406C5.56641 9.42383 5.56152 9.43848 5.55176 9.45801C5.54199 9.46777 5.52246 9.49219 5.49316 9.53125C5.46387 9.56055 5.43945 9.58984 5.41992 9.61914C5.40039 9.64844 5.39062 9.66797 5.39062 9.67773L5.43457 10.1025ZM5.93262 16.1523L6.18164 15.4785L6.16699 15.4199C6.16699 15.2832 6.17676 15.1514 6.19629 15.0244C5.95215 15.2197 5.83008 15.4199 5.83008 15.625C5.83008 15.6738 5.83984 15.7275 5.85938 15.7861C5.89844 15.9131 5.92285 16.0352 5.93262 16.1523ZM7.4707 11.6699C7.61719 11.3867 7.88574 10.7959 8.27637 9.89746L8.75977 8.81348C8.75 8.70605 8.70605 8.60352 8.62793 8.50586C8.46191 8.89648 8.25195 9.42383 7.99805 10.0879C7.75391 10.7422 7.57812 11.2695 7.4707 11.6699ZM19.1602 20.6494C18.7793 20.6494 18.3789 20.625 17.959 20.5762C17.9102 20.5762 17.8809 20.5664 17.8711 20.5469L17.0801 20.6201C16.8359 20.6396 16.5918 20.6494 16.3477 20.6494H16.0986C15.7764 20.6494 15.459 20.5811 15.1465 20.4443C15.0293 20.4443 14.7559 20.4639 14.3262 20.5029C14.3164 20.5029 14.3115 20.5029 14.3115 20.5029C14.3018 20.4932 14.2969 20.4834 14.2969 20.4736H14.3115C14.5068 20.415 14.6875 20.3711 14.8535 20.3418C14.6973 20.3125 14.5215 20.2979 14.3262 20.2979C14.1992 20.2881 14.0771 20.2783 13.96 20.2686C13.833 20.2588 13.7207 20.2393 13.623 20.21C13.5254 20.1807 13.457 20.127 13.418 20.0488L13.4033 19.9902C13.4033 19.9023 13.5303 19.8242 13.7842 19.7559C13.8721 19.707 14.0039 19.6777 14.1797 19.668C14.4727 19.6387 14.6387 19.5752 14.6777 19.4775C14.6777 19.3701 14.6143 19.2822 14.4873 19.2139C14.2334 19.0674 14.1064 18.9307 14.1064 18.8037C14.1064 18.7939 14.1162 18.75 14.1357 18.6719C14.1455 18.5938 14.2627 18.4766 14.4873 18.3203C14.6631 18.1738 14.7998 18.0078 14.8975 17.8223L15.0586 17.5879C15.0781 17.5586 15.1416 17.4902 15.249 17.3828L15.2637 17.3242C15.2637 17.3047 15.2588 17.29 15.249 17.2803C15.2295 17.2705 15.2197 17.2607 15.2197 17.251C15.0049 17.5635 14.7949 17.8809 14.5898 18.2031C14.5801 18.2227 14.5605 18.2324 14.5312 18.2324C14.4629 18.2324 14.4287 18.2129 14.4287 18.1738C14.5166 17.7246 14.6826 17.2852 14.9268 16.8555C14.8682 16.8555 14.8242 16.8408 14.7949 16.8115C14.7559 16.7725 14.7363 16.7383 14.7363 16.709L14.751 16.665C14.8584 16.2939 14.9854 15.918 15.1318 15.5371C14.9463 15.5273 14.8535 15.4639 14.8535 15.3467C14.8535 15.3076 14.8828 15.2441 14.9414 15.1562C14.9707 15.1074 14.9902 15.0586 15 15.0098C15.2539 14.3066 15.6641 13.6279 16.2305 12.9736C16.3086 12.7783 16.3867 12.6025 16.4648 12.4463C16.5137 11.9971 16.6943 11.5625 17.0068 11.1426C17.2607 10.8203 17.4365 10.4883 17.5342 10.1465C17.6318 9.80469 17.7002 9.45801 17.7393 9.10645C17.7881 8.5791 17.9297 8.05664 18.1641 7.53906C18.252 7.36328 18.3447 7.12891 18.4424 6.83594C18.6182 6.39648 18.7549 6.03027 18.8525 5.7373C18.9697 5.75684 19.0723 5.7666 19.1602 5.7666C19.375 5.7666 19.5703 5.69336 19.7461 5.54688C19.8242 5.48828 19.9072 5.43945 19.9951 5.40039C20.0928 5.35156 20.2051 5.32715 20.332 5.32715C20.4688 5.31738 20.5664 5.28809 20.625 5.23926C20.6934 5.19043 20.7471 5.13672 20.7861 5.07812C20.8252 5.01953 20.8789 4.96582 20.9473 4.91699C21.2695 4.69238 21.5967 4.58008 21.9287 4.58008C22.2412 4.58008 22.5586 4.67773 22.8809 4.87305C23.0566 4.96094 23.2373 5.00488 23.4229 5.00488L23.6279 4.99023C24.3896 4.90234 24.8193 4.84375 24.917 4.81445C25.0635 4.78516 25.3125 4.76074 25.6641 4.74121C26.1621 4.71191 26.6455 4.69727 27.1143 4.69727C27.3682 4.69727 27.6172 4.70215 27.8613 4.71191C28.1543 4.72168 28.5986 4.72656 29.1943 4.72656C29.3115 4.72656 29.4189 4.74609 29.5166 4.78516C29.624 4.81445 29.707 4.89258 29.7656 5.01953L28.8574 5.00488L27.9492 5.01953C28.418 5.08789 28.8818 5.16113 29.3408 5.23926C29.9756 5.34668 30.6006 5.43457 31.2158 5.50293C31.3232 5.50293 31.4258 5.49805 31.5234 5.48828L31.5527 5.50293V5.51758L31.5234 5.53223L31.6553 5.54688C31.7334 5.55664 31.8359 5.56641 31.9629 5.57617C32.0898 5.57617 32.2217 5.57617 32.3584 5.57617L32.7246 5.59082V5.60547C32.7246 5.61523 32.7197 5.62012 32.71 5.62012C31.8701 5.69824 30.8691 5.7373 29.707 5.7373C29.6582 5.77637 29.6338 5.82031 29.6338 5.86914C29.6338 5.9082 29.6582 5.95703 29.707 6.01562C29.7559 6.07422 29.8633 6.10352 30.0293 6.10352L30.4541 6.07422L32.9004 5.98633L33.8818 5.94238C33.5791 6.14746 33.2812 6.2793 32.9883 6.33789C32.7051 6.38672 32.4219 6.41602 32.1387 6.42578L32.0361 6.44043C31.792 6.44043 31.6113 6.45996 31.4941 6.49902C31.3867 6.53809 31.333 6.62598 31.333 6.7627V6.80664C31.333 6.88477 31.2793 6.93848 31.1719 6.96777C30.9961 7.0166 30.8057 7.04102 30.6006 7.04102L29.2236 7.23145C28.7354 7.30957 28.2861 7.36816 27.876 7.40723C27.4756 7.43652 26.8506 7.45605 26.001 7.46582C25.8057 7.46582 25.6885 7.45605 25.6494 7.43652C25.6006 7.43652 25.5713 7.43164 25.5615 7.42188L25.166 7.43652C24.8145 7.45605 24.5557 7.51953 24.3896 7.62695C24.2236 7.72461 24.1162 7.86621 24.0674 8.05176L23.8184 8.78418C23.5059 9.72168 23.3496 10.2441 23.3496 10.3516C23.3496 10.459 23.3936 10.542 23.4814 10.6006C23.5693 10.6494 23.8428 10.6738 24.3018 10.6738H24.7852L25.2393 10.7031C25.2686 10.7129 25.293 10.7275 25.3125 10.7471C25.3418 10.7666 25.376 10.7861 25.415 10.8057C25.4541 10.8252 25.5957 10.8545 25.8398 10.8936C26.3086 10.9619 26.9482 11.0059 27.7588 11.0254L28.5352 11.04C28.3008 11.1963 27.9883 11.2744 27.5977 11.2744C27.2852 11.2744 27.0264 11.3281 26.8213 11.4355C27.3291 11.582 27.8613 11.6553 28.418 11.6553C28.5645 11.6553 28.7158 11.6504 28.8721 11.6406C29.0283 11.6309 29.1846 11.626 29.3408 11.626C29.8682 11.626 30.3809 11.6992 30.8789 11.8457C30.6738 11.8164 30.4785 11.8018 30.293 11.8018C29.7363 11.8018 29.2285 11.9287 28.7695 12.1826C28.6133 12.2705 28.3691 12.3145 28.0371 12.3145C27.6465 12.373 27.2607 12.4512 26.8799 12.5488C26.167 12.7441 25.4443 12.8418 24.7119 12.8418C24.4775 12.8418 24.2529 12.8223 24.0381 12.7832C23.9111 12.7539 23.6768 12.7197 23.335 12.6807C22.9248 12.7686 22.3242 12.8418 21.5332 12.9004C21.1816 12.9297 20.9424 13.0176 20.8154 13.1641C20.6982 13.3008 20.6201 13.4521 20.5811 13.6182C20.3271 14.3311 20.0293 15.0391 19.6875 15.7422C20.4688 14.5996 20.9424 13.8965 21.1084 13.6328L21.1377 13.6182C21.1475 13.6279 21.1572 13.6328 21.167 13.6328C21.1768 13.6328 21.1816 13.6377 21.1816 13.6475L21.167 13.6621C20.8154 14.7559 20.3955 15.8301 19.9072 16.8848L19.3652 18.0713C19.8535 18.0225 20.2148 17.998 20.4492 17.998C20.6055 17.998 20.8887 17.9883 21.2988 17.9688C21.8555 17.9297 22.417 17.9053 22.9834 17.8955C23.2373 17.7783 23.4863 17.7197 23.7305 17.7197C24.0234 17.7197 24.3799 17.7734 24.7998 17.8809C24.9951 17.9199 25.1953 17.9541 25.4004 17.9834C25.4102 17.9932 25.4443 17.998 25.5029 17.998C25.6201 18.0176 25.7422 18.0273 25.8691 18.0273C25.8887 18.0273 25.9131 18.042 25.9424 18.0713L26.7627 18.2324L26.792 18.2764C26.7725 18.2959 26.3525 18.3105 25.5322 18.3203C25.1709 18.3691 24.917 18.418 24.7705 18.4668C24.6338 18.5059 24.5508 18.5986 24.5215 18.7451C24.9121 18.7842 25.3027 18.8037 25.6934 18.8037C26.3379 18.8037 26.9824 18.75 27.627 18.6426C28.0664 18.584 28.5156 18.5352 28.9746 18.4961C28.7207 18.7598 28.3447 18.916 27.8467 18.9648C27.7002 18.9844 27.5586 19.0088 27.4219 19.0381C27.207 19.0967 26.9727 19.1406 26.7188 19.1699C26.4746 19.1895 26.2402 19.2285 26.0156 19.2871C25.791 19.3359 25.6055 19.4385 25.459 19.5947C25.4199 19.6338 25.2734 19.6533 25.0195 19.6533L24.8291 19.6387C24.7607 19.6387 24.6973 19.6436 24.6387 19.6533C24.4727 19.6826 24.3018 19.7021 24.126 19.7119C23.6279 19.7314 23.1543 19.8193 22.7051 19.9756C23.4863 19.9268 24.2627 19.8438 25.0342 19.7266H25.0781C25.0781 19.7559 25.0684 19.7705 25.0488 19.7705C23.75 20.1514 22.4023 20.3906 21.0059 20.4883L20.1709 20.5615C19.8193 20.6104 19.4824 20.6396 19.1602 20.6494ZM16.6406 13.5889C16.9922 13.0908 17.2754 12.5928 17.4902 12.0947L17.8125 11.4355C17.8223 11.4258 17.832 11.4111 17.8418 11.3916C17.8613 11.3721 17.8711 11.3477 17.8711 11.3184C17.8613 11.3086 17.8564 11.3037 17.8564 11.3037C17.8564 11.2939 17.8516 11.2793 17.8418 11.2598C17.8418 11.2305 17.8418 11.2012 17.8418 11.1719C17.8613 11.0352 17.9102 10.8984 17.9883 10.7617C18.0957 10.5859 18.1494 10.3955 18.1494 10.1904L17.9883 10.3369L17.71 10.8936C17.71 11.0107 17.7393 11.1084 17.7979 11.1865L17.8564 11.2891C17.8564 11.3184 17.8223 11.333 17.7539 11.333C17.6855 11.333 17.6318 11.3428 17.5928 11.3623C17.5537 11.3721 17.5146 11.3818 17.4756 11.3916C17.2119 12.0166 16.9678 12.6416 16.7432 13.2666L16.6406 13.5889ZM22.3242 10.6592C22.5781 10.2881 22.7637 9.91211 22.8809 9.53125L22.3096 10.6445L22.3242 10.6592ZM22.3096 9.63379C22.5146 9.31152 22.7148 8.98438 22.9102 8.65234L23.2471 8.11035L23.335 7.72949C23.1201 7.90527 22.9199 8.17383 22.7344 8.53516C22.5488 8.88672 22.4072 9.25293 22.3096 9.63379ZM23.7891 22.9785C22.5879 22.9785 21.4746 22.8564 20.4492 22.6123V22.5977H20.6543C22.8516 22.5977 24.9414 22.29 26.9238 21.6748C27.4512 21.499 27.9688 21.2988 28.4766 21.0742C28.9355 20.8789 29.4043 20.6934 29.8828 20.5176C28.9258 20.7617 27.9541 20.9473 26.9678 21.0742C26.8701 21.0742 26.8213 21.0449 26.8213 20.9863C26.8213 20.9668 26.8408 20.9473 26.8799 20.9277C27.8076 20.5371 28.7988 20.1855 29.8535 19.873C30.4883 19.5605 30.9668 19.2822 31.2891 19.0381C31.9727 18.5889 32.5293 18.0664 32.959 17.4707C33.1641 17.1777 33.2861 16.8604 33.3252 16.5186C33.3447 16.4697 33.3789 16.4453 33.4277 16.4453C33.4961 16.4453 33.5303 16.4697 33.5303 16.5186C33.4717 17.0947 33.2031 17.6318 32.7246 18.1299C33.877 17.2803 34.4531 16.499 34.4531 15.7861C34.4531 15.5518 34.3848 15.2783 34.248 14.9658V14.9512C34.1699 14.8828 34.082 14.8145 33.9844 14.7461C33.1641 14.1797 32.4951 13.6523 31.9775 13.1641C31.3428 12.5391 31.0254 11.9189 31.0254 11.3037C31.0254 10.4053 31.6748 9.5459 32.9736 8.72559L33.1348 8.49121L33.0762 8.52051C32.1191 8.9209 31.4062 9.39453 30.9375 9.94141C30.5957 10.3223 30.4248 10.7617 30.4248 11.2598C30.4248 11.4648 30.4541 11.6797 30.5127 11.9043C30.5127 11.9434 30.498 11.958 30.4688 11.9482C30.4297 11.9482 30.4004 11.9434 30.3809 11.9336C30.1953 11.5527 30.1025 11.1865 30.1025 10.835C30.1025 10.0635 30.5518 9.35059 31.4502 8.69629C31.9482 8.3252 32.5977 7.92969 33.3984 7.50977C34.209 7.08008 35.0146 6.78223 35.8154 6.61621C37.0459 6.25488 37.9395 6.00098 38.4961 5.85449L38.7744 5.7666C38.8623 5.7666 38.9062 5.79102 38.9062 5.83984C38.9062 5.85937 38.8965 5.87891 38.877 5.89844C39.4141 5.78125 39.9512 5.67383 40.4883 5.57617L41.8213 5.3125C41.8896 5.3125 41.9238 5.33203 41.9238 5.37109C41.9238 5.39062 41.9092 5.40527 41.8799 5.41504C41.2744 5.63965 40.6787 5.87402 40.0928 6.11816H40.5762L41.0449 5.98633C42.5781 5.47852 44.1895 5.13672 45.8789 4.96094C45.9082 4.96094 45.9277 4.9707 45.9375 4.99023C45.957 5 45.9668 5.01465 45.9668 5.03418C45.9668 5.05371 45.9521 5.06836 45.9229 5.07812C45.249 5.2832 44.5996 5.51758 43.9746 5.78125C43.9941 5.79102 44.0088 5.80566 44.0186 5.8252V5.83984L44.0039 5.86914C43.6328 6.05469 43.3398 6.24512 43.125 6.44043C42.9199 6.63574 42.71 6.86035 42.4951 7.11426L42.2021 7.46582C41.9678 7.69043 41.4746 7.88574 40.7227 8.05176C40.1172 8.21777 39.292 8.54492 38.2471 9.0332C37.8076 9.23828 37.3682 9.43359 36.9287 9.61914C36.5869 9.83398 36.2549 10.0537 35.9326 10.2783L35.9473 10.3223L35.9326 10.3516C35.5908 10.5469 35.3418 10.8887 35.1855 11.377C35.2051 11.3477 35.2295 11.3232 35.2588 11.3037C35.2588 11.2744 35.2637 11.25 35.2734 11.2305C35.293 11.2109 35.3076 11.1865 35.3174 11.1572C35.4443 11.0889 35.5469 11.0107 35.625 10.9229L35.8154 10.7617C37.0459 9.81445 38.4033 9.12109 39.8877 8.68164L39.917 8.66699C39.9268 8.66699 39.9365 8.67187 39.9463 8.68164C39.9561 8.68164 39.9609 8.68652 39.9609 8.69629C39.9609 8.70605 39.9512 8.71582 39.9316 8.72559C39.1602 8.99902 38.4277 9.33105 37.7344 9.72168C36.8457 10.2197 36.2012 10.7861 35.8008 11.4209C35.7129 11.6162 35.6689 11.8115 35.6689 12.0068C35.6689 12.4951 35.9473 12.9736 36.5039 13.4424C36.6113 13.5498 36.709 13.6572 36.7969 13.7646C36.8945 13.8721 36.9971 13.9746 37.1045 14.0723C37.6904 14.5898 38.0762 15.127 38.2617 15.6836V15.4932C38.2617 15.1318 38.1934 14.751 38.0566 14.3506L38.0713 14.3213C38.1104 14.3213 38.1348 14.3262 38.1445 14.3359C38.5547 15.0098 38.7598 15.6885 38.7598 16.3721C38.7598 16.958 38.6084 17.5439 38.3057 18.1299C38.0225 18.6572 37.5195 19.1553 36.7969 19.624L36.7529 19.6533C36.6846 19.7314 36.6113 19.8047 36.5332 19.873C36.5332 19.9121 36.5088 19.9561 36.46 20.0049C36.2158 20.2197 35.9424 20.4199 35.6396 20.6055C35.2393 20.8301 34.8047 21.04 34.3359 21.2354C33.9941 21.4307 33.6377 21.6113 33.2666 21.7773L33.1787 21.792C33.1201 21.792 33.0811 21.7627 33.0615 21.7041L32.4463 21.9238C32.124 22.0996 31.7529 22.2461 31.333 22.3633L30.6738 22.5391C29.8438 22.8027 29.3604 22.9346 29.2236 22.9346C29.0967 22.9346 29.0088 22.9199 28.96 22.8906C28.501 22.7148 28.0078 22.627 27.4805 22.627C27.1973 22.6855 26.9141 22.7344 26.6309 22.7734C26.5137 22.8027 26.4014 22.8418 26.2939 22.8906H26.2354C26.167 22.8906 26.1328 22.8711 26.1328 22.832C25.3223 22.9297 24.541 22.9785 23.7891 22.9785ZM31.8896 11.8164V10.5127C31.665 10.6982 31.5527 10.8789 31.5527 11.0547C31.5527 11.2402 31.6455 11.4551 31.8311 11.6992L31.8896 11.8164ZM34.9365 10.7324C35.1318 10.498 35.3516 10.2881 35.5957 10.1025L35.4346 10.1465C35.2197 10.293 35.083 10.3955 35.0244 10.4541C34.9658 10.5127 34.9365 10.5859 34.9365 10.6738V10.7324ZM41.3672 6.93848L41.6602 6.7627L41.25 6.92383L41.3672 6.93848ZM40.0781 25.9521C39.9023 25.9229 39.8145 25.874 39.8145 25.8057L39.9023 25.6592C40.1953 25.1514 40.3516 24.6338 40.3711 24.1064C40.4004 23.7549 40.4688 23.4131 40.5762 23.0811C40.6543 22.8857 40.6934 22.6904 40.6934 22.4951C40.6934 22.1924 40.5908 21.8945 40.3857 21.6016C40.2783 21.7969 40.1904 22.0117 40.1221 22.2461C40.083 22.373 40.0635 22.4805 40.0635 22.5684C40.0635 22.6562 40.0781 22.7295 40.1074 22.7881L40.1221 22.8174C40.1221 22.8369 40.1123 22.8564 40.0928 22.876C40.0635 22.8955 40.0293 22.9053 39.9902 22.9053C39.9414 22.9053 39.9023 22.8906 39.873 22.8613C39.5996 22.5195 39.4629 22.1387 39.4629 21.7188C39.4629 21.2598 39.5508 20.7422 39.7266 20.166L39.8291 19.8291C39.9268 19.3994 40.1709 18.5889 40.5615 17.3975C40.9521 16.2061 41.3867 15.0293 41.8652 13.8672C42.3535 12.6953 42.7832 11.9287 43.1543 11.5674C43.2129 11.3135 43.3057 11.0645 43.4326 10.8203C43.5596 10.5762 43.6523 10.332 43.7109 10.0879L43.7842 9.76562C43.8428 9.58008 43.8721 9.39453 43.8721 9.20898C43.8721 9.13086 43.8672 9.05762 43.8574 8.98926C43.8477 8.9209 43.8428 8.86719 43.8428 8.82812C43.8428 8.68164 43.8916 8.53516 43.9893 8.38867C44.2139 8.0957 44.3652 7.86621 44.4434 7.7002C44.5312 7.52441 44.5947 7.34863 44.6338 7.17285C44.6826 6.99707 44.7803 6.74805 44.9268 6.42578C45.2197 5.77148 45.5859 5.13184 46.0254 4.50684C45.8691 4.46777 45.7178 4.44824 45.5713 4.44824C45.4639 4.44824 45.3516 4.46289 45.2344 4.49219C45.1172 4.51172 44.9854 4.52148 44.8389 4.52148L44.6191 4.50684C44.7949 4.36035 45.127 4.2627 45.6152 4.21387C45.9668 4.19434 46.2549 4.12109 46.4795 3.99414C46.0596 4.0332 45.6396 4.05762 45.2197 4.06738C44.9561 4.07715 44.6973 4.0918 44.4434 4.11133C44.0625 4.16992 43.6914 4.19922 43.3301 4.19922L42.8613 4.18457L40.0342 4.22852C39.9854 4.22852 39.9609 4.21387 39.9609 4.18457C39.9609 4.1748 39.9609 4.16504 39.9609 4.15527C39.9609 4.14551 40.3857 4.03809 41.2354 3.83301H40.5029C39.5068 3.83301 38.5107 3.81836 37.5146 3.78906C36.7627 3.76953 36.0205 3.75977 35.2881 3.75977C34.5557 3.75977 33.8379 3.76953 33.1348 3.78906C33.0957 3.78906 33.0762 3.7793 33.0762 3.75977C33.0762 3.73047 33.0859 3.71582 33.1055 3.71582C34.9219 3.31543 36.8652 2.97363 38.9355 2.69043C39.8438 2.20215 40.8301 1.78711 41.8945 1.44531C41.9531 1.42578 42.0166 1.41602 42.085 1.41602C42.2705 1.41602 42.4219 1.45996 42.5391 1.54785C42.9102 1.79199 43.3008 1.91406 43.7109 1.91406H43.8428C44.2236 1.91406 44.6094 1.875 45 1.79688C45.4883 1.71875 45.8887 1.67969 46.2012 1.67969C46.5039 1.67969 46.792 1.72852 47.0654 1.82617C47.1729 1.86523 47.2412 1.92383 47.2705 2.00195L47.6953 1.97266C49.4727 1.81641 51.2646 1.73828 53.0713 1.73828H53.3936C53.999 1.73828 54.6045 1.69922 55.21 1.62109C56.2158 1.49414 57.3096 1.43066 58.4912 1.43066C59.2627 1.43066 60.0342 1.45996 60.8057 1.51855C60.0537 1.59668 59.5361 1.63574 59.2529 1.63574C59.3506 1.7041 59.4336 1.78223 59.502 1.87012C59.7656 2.16309 60.21 2.33398 60.835 2.38281C61.2256 2.41211 61.6064 2.42676 61.9775 2.42676C62.1924 2.42676 62.4072 2.42188 62.6221 2.41211C62.8369 2.40234 63.0225 2.39746 63.1787 2.39746C63.208 2.39746 63.2275 2.40723 63.2373 2.42676C63.2471 2.43652 63.252 2.44629 63.252 2.45605C63.2422 2.47559 63.2227 2.49023 63.1934 2.5C62.793 2.54883 62.3633 2.62207 61.9043 2.71973C60.9961 2.9248 60.2832 3.02734 59.7656 3.02734C59.5898 3.02734 59.4189 3.01758 59.2529 2.99805C58.2373 3.06641 57.2217 3.21289 56.2061 3.4375L55.2246 3.61328L55.4443 3.62793H55.5029C55.6592 3.62793 55.7959 3.65723 55.9131 3.71582C55.0146 3.91113 54.1016 4.00879 53.1738 4.00879L52.5732 4.02344C52.124 4.02344 51.8115 4.02832 51.6357 4.03809C51.4697 4.04785 51.3379 4.0918 51.2402 4.16992L51.123 4.24316C50.8301 5.00488 50.498 5.61523 50.127 6.07422C49.834 6.46484 49.541 6.96289 49.248 7.56836L48.8086 8.52051C48.2227 9.74121 47.6953 10.9717 47.2266 12.2119C47.2266 12.2217 47.2217 12.2266 47.2119 12.2266C47.1826 12.2266 47.168 12.2168 47.168 12.1973C47.1973 11.6797 47.251 11.167 47.3291 10.6592C47.0557 11.0498 46.7285 11.8164 46.3477 12.959C45.9668 14.0918 45.5664 15.3418 45.1465 16.709C44.7168 18.125 44.3115 19.3945 43.9307 20.5176C43.5498 21.6309 43.2373 22.3145 42.9932 22.5684C42.8955 22.6562 42.8418 22.749 42.832 22.8467C42.7246 23.4326 42.2607 24.0283 41.4404 24.6338C41.3525 24.585 41.3086 24.5361 41.3086 24.4873C41.3086 24.4482 41.3525 24.3896 41.4404 24.3115C41.5283 24.2236 41.5723 24.1602 41.5723 24.1211C41.5723 24.082 41.543 24.0381 41.4844 23.9893C41.2109 24.0771 41.0254 24.1895 40.9277 24.3262C40.8301 24.4531 40.7617 24.5898 40.7227 24.7363C40.7031 24.8047 40.6787 24.8779 40.6494 24.9561C40.6201 25.0244 40.5957 25.1025 40.5762 25.1904C40.5469 25.3271 40.498 25.459 40.4297 25.5859C40.3613 25.7129 40.2441 25.835 40.0781 25.9521ZM44.0625 17.5L44.9414 15.7861C44.9512 15.6494 44.9707 15.5127 45 15.376C44.7656 15.5811 44.5654 15.8887 44.3994 16.2988C44.2334 16.6992 44.1211 17.0996 44.0625 17.5ZM43.5791 19.2285C43.8135 18.8086 43.9746 18.3887 44.0625 17.9688C43.877 18.3789 43.7109 18.7939 43.5645 19.2139L43.5791 19.2285ZM41.6162 2.45605L42.0117 2.44141C41.9629 2.41211 41.9141 2.39746 41.8652 2.39746L41.6162 2.45605ZM48.2373 22.9053H48.1934C48.1543 22.9053 48.1348 22.8906 48.1348 22.8613C48.4082 22.1777 48.584 21.4844 48.6621 20.7812L48.8232 19.8438C48.7744 19.7461 48.6768 19.6924 48.5303 19.6826C48.374 19.6826 48.125 19.7119 47.7832 19.7705C47.7344 19.7119 47.71 19.6533 47.71 19.5947L47.7246 19.5068L47.8418 19.2725C47.9883 19.0771 48.0615 18.9453 48.0615 18.877C48.0615 18.8379 48.0518 18.8086 48.0322 18.7891C47.8467 18.6328 47.7539 18.4814 47.7539 18.335C47.7539 18.1689 47.832 17.9736 47.9883 17.749C48.1445 17.5244 48.2227 17.334 48.2227 17.1777C48.2227 17.0703 48.2764 16.9922 48.3838 16.9434C48.4912 16.8848 48.6084 16.8408 48.7354 16.8115C48.9209 16.7725 49.0137 16.7285 49.0137 16.6797C49.0137 16.6602 48.999 16.6357 48.9697 16.6064C48.8428 16.4893 48.7793 16.377 48.7793 16.2695V16.167C48.7793 16.1084 48.8086 16.0205 48.8672 15.9033L48.8818 15.8594C49.0283 15.8594 49.1016 15.8984 49.1016 15.9766V16.123C49.1016 16.1719 49.1406 16.2109 49.2188 16.2402C49.3848 16.0547 49.5996 15.6982 49.8633 15.1709C50.1367 14.6436 50.3809 14.1016 50.5957 13.5449C50.8203 12.9883 50.9424 12.5732 50.9619 12.2998L50.7715 12.5342C50.6055 12.7197 50.4639 12.9053 50.3467 13.0908C50.2783 13.2178 50.2441 13.3447 50.2441 13.4717C50.2441 13.5498 50.2539 13.6279 50.2734 13.7061C50.3027 13.7842 50.3271 13.8379 50.3467 13.8672C50.376 13.8867 50.3906 13.9014 50.3906 13.9111C50.3906 13.9307 50.3271 13.9551 50.2002 13.9844C50.083 14.0039 50 14.0479 49.9512 14.1162C49.9023 14.1748 49.8633 14.2432 49.834 14.3213L49.79 14.4385C49.7314 14.5361 49.6826 14.6387 49.6436 14.7461C49.5557 15 49.3945 15.249 49.1602 15.4932C49.1699 15.3174 49.3066 14.8535 49.5703 14.1016C49.8438 13.3496 50.166 12.5 50.5371 11.5527C51.4258 9.27734 51.9727 7.99805 52.1777 7.71484H52.1924C52.5342 7.04102 52.9199 6.38672 53.3496 5.75195C53.3594 5.73242 53.374 5.72266 53.3936 5.72266C53.4229 5.71289 53.4424 5.70801 53.4521 5.70801C53.4619 5.70801 53.4717 5.71777 53.4814 5.7373C53.501 5.74707 53.5107 5.76172 53.5107 5.78125C53.3838 6.25977 53.2861 6.75293 53.2178 7.26074L53.6572 6.83594C54.0967 6.48438 54.3994 6.08398 54.5654 5.63477C54.7217 4.98047 54.9609 4.33105 55.2832 3.68652C55.293 3.66699 55.3125 3.65723 55.3418 3.65723C55.4102 3.65723 55.4443 3.67676 55.4443 3.71582C55.415 3.8916 55.4004 4.07227 55.4004 4.25781C55.4004 4.49219 55.4248 4.72656 55.4736 4.96094C55.5322 5.18555 55.5615 5.41016 55.5615 5.63477C55.5615 5.85937 55.5322 6.08398 55.4736 6.30859C55.3662 6.57227 55.2148 6.81152 55.0195 7.02637C55.0879 7.0459 55.1318 7.08008 55.1514 7.12891C55.2295 7.41211 55.2686 7.70996 55.2686 8.02246C55.2686 8.19824 55.2441 8.4668 55.1953 8.82812C55.1172 9.39453 54.8438 10.0146 54.375 10.6885C54.2676 11.1182 54.1699 11.5479 54.082 11.9775C53.9062 12.9248 53.6523 13.8721 53.3203 14.8193L53.1738 15.1855L53.1006 15.4053C52.9932 15.9424 52.793 16.4844 52.5 17.0312C52.207 17.5781 51.8896 18.1104 51.5479 18.6279C51.2158 19.1455 50.9277 19.6387 50.6836 20.1074C50.6738 20.127 50.6396 20.1367 50.5811 20.1367C50.542 20.1367 50.5225 20.1221 50.5225 20.0928C50.5713 19.8682 50.6055 19.6387 50.625 19.4043C50.5859 19.4043 50.5615 19.3994 50.5518 19.3896V19.3604L50.6396 19.1699C50.6494 19.1602 50.6543 19.1504 50.6543 19.1406C50.6641 19.1211 50.6689 19.0674 50.6689 18.9795C50.542 19.1943 50.4248 19.4043 50.3174 19.6094C50.0146 20.1953 49.6631 20.7715 49.2627 21.3379C48.9111 21.8457 48.5938 22.3584 48.3105 22.876C48.291 22.8955 48.2666 22.9053 48.2373 22.9053ZM54.873 26.5674H54.7852C54.7461 26.5479 54.7266 26.3916 54.7266 26.0986C54.7266 24.8877 54.9951 23.667 55.5322 22.4365C55.4736 22.4561 55.4102 22.4707 55.3418 22.4805C55.1465 22.5391 55 22.7051 54.9023 22.9785C54.8633 23.0859 54.8193 23.1836 54.7705 23.2715C54.7119 23.3594 54.6533 23.4619 54.5947 23.5791C54.5264 23.6865 54.4482 23.8037 54.3604 23.9307C54.3408 23.9404 54.3262 23.9551 54.3164 23.9746C54.248 24.1113 54.1357 24.1797 53.9795 24.1797C53.8623 24.1602 53.7695 24.1309 53.7012 24.0918C53.6328 24.0527 53.5986 23.9795 53.5986 23.8721L53.6133 23.6523C53.623 23.3887 53.6914 23.1348 53.8184 22.8906C53.916 22.7148 53.9648 22.5488 53.9648 22.3926V22.2021C53.9551 22.0947 53.9209 21.9531 53.8623 21.7773C53.7939 21.5918 53.7549 21.4014 53.7451 21.2061L53.7305 21.0742C53.7305 20.9766 53.7354 20.8838 53.7451 20.7959C53.7549 20.6982 53.8037 20.5957 53.8916 20.4883C53.9697 20.3809 54.0088 20.2832 54.0088 20.1953C54.0088 20.1465 53.9893 20.083 53.9502 20.0049C53.9111 19.9268 53.8477 19.7998 53.7598 19.624C53.7207 19.5947 53.7012 19.5508 53.7012 19.4922C53.7012 19.4531 53.7061 19.4238 53.7158 19.4043C53.8428 19.2578 53.9941 18.9844 54.1699 18.584C54.5312 17.7441 54.7656 17.0459 54.873 16.4893C54.9609 15.8643 55.0537 15.4199 55.1514 15.1562C55.249 14.8828 55.3857 14.5947 55.5615 14.292C55.9229 13.6572 56.4111 12.666 57.0264 11.3184L57.041 11.1133C57.1289 10.1855 57.3535 9.29688 57.7148 8.44727C58.0859 7.58789 58.5498 6.71875 59.1064 5.83984C59.1162 5.83008 59.1406 5.8252 59.1797 5.8252C59.1895 5.83496 59.1943 5.84961 59.1943 5.86914C58.9209 6.60156 58.6963 7.31934 58.5205 8.02246L59.3555 6.23535C59.5898 5.75684 59.8633 5.24902 60.1758 4.71191C60.3027 4.4873 60.4736 4.375 60.6885 4.375C60.7861 4.375 60.9277 4.40918 61.1133 4.47754C61.2598 4.5459 61.4209 4.58008 61.5967 4.58008C61.7334 4.58008 61.8945 4.50195 62.0801 4.3457C62.0898 4.33594 62.1045 4.33105 62.124 4.33105C62.1436 4.33105 62.168 4.34082 62.1973 4.36035C62.2363 4.37012 62.2705 4.39453 62.2998 4.43359C62.3389 4.47266 62.3584 4.5166 62.3584 4.56543L62.3438 4.74121C62.3438 4.94629 62.4268 5.05859 62.5928 5.07812C62.8662 5.07812 63.1152 5.05371 63.3398 5.00488C64.1504 4.84863 64.8193 4.73633 65.3467 4.66797C65.8838 4.59961 66.5576 4.54102 67.3682 4.49219H67.4854L67.3682 4.52148C67.1826 4.54102 67.0654 4.5752 67.0166 4.62402V4.63867C67.0166 4.64844 67.0508 4.6582 67.1191 4.66797C67.5684 4.73633 68.0273 4.77051 68.4961 4.77051C68.8867 4.77051 69.2871 4.74609 69.6973 4.69727C69.9414 4.64844 70.1562 4.62402 70.3418 4.62402C70.4004 4.62402 70.5029 4.63379 70.6494 4.65332C70.7959 4.66309 70.9424 4.77539 71.0889 4.99023C71.1377 5.06836 71.2207 5.1123 71.3379 5.12207L72.0117 5.10742C72.207 5.10742 72.4023 5.13184 72.5977 5.18066C71.7871 5.39551 71.0547 5.50293 70.4004 5.50293C70.2539 5.50293 70.1123 5.49805 69.9756 5.48828C69.7607 5.48828 69.624 5.5127 69.5654 5.56152C69.5068 5.60059 69.4775 5.65918 69.4775 5.7373L70.1807 5.72266C71.6943 5.72266 73.0518 5.88867 74.2529 6.2207C73.1592 6.35742 72.124 6.43066 71.1475 6.44043C70.9521 6.51855 70.7471 6.56738 70.5322 6.58691C70.1416 6.66504 69.6045 6.78223 68.9209 6.93848L67.8955 7.1582C67.3877 7.25586 66.543 7.36816 65.3613 7.49512C64.834 7.57324 64.3311 7.70996 63.8525 7.90527C63.4717 8.06152 63.0811 8.18359 62.6807 8.27148C62.5342 8.31055 62.4365 8.37891 62.3877 8.47656C62.3096 8.91602 62.1777 9.49707 61.9922 10.2197C61.8066 10.9326 61.6455 11.5088 61.5088 11.9482C61.8115 11.9482 62.2021 11.9189 62.6807 11.8604C63.1201 11.8115 63.4668 11.7822 63.7207 11.7725C64.2773 11.7725 64.707 11.792 65.0098 11.8311C65.3125 11.8604 65.708 11.9238 66.1963 12.0215C66.3037 12.0508 66.3574 12.0801 66.3574 12.1094C66.3574 12.1289 66.3379 12.1484 66.2988 12.168C65.8691 12.2852 65.4248 12.3828 64.9658 12.4609C65.4736 12.5098 66.0547 12.6416 66.709 12.8564C67.5293 12.8662 68.2861 12.9199 68.9795 13.0176L67.6904 13.1494L67.7637 13.1787L68.0127 13.2373C68.0322 13.2471 68.042 13.2568 68.042 13.2666C68.042 13.2764 68.0322 13.2861 68.0127 13.2959C68.0029 13.3057 67.9932 13.3105 67.9834 13.3105H67.9688C67.3242 13.3105 66.6895 13.3936 66.0645 13.5596L66.0059 13.5742C65.9961 13.6621 65.9473 13.7402 65.8594 13.8086C65.7715 13.8672 65.6689 13.9062 65.5518 13.9258C65.4443 13.9355 65.3418 13.9502 65.2441 13.9697C65.0586 13.999 64.8926 14.0186 64.7461 14.0283H64.1602L63.6914 14.0137C63.2715 14.0137 62.7783 14.0723 62.2119 14.1895C61.8604 14.2676 61.4209 14.3359 60.8936 14.3945C60.7471 14.4043 60.6055 14.4238 60.4688 14.4531C60.2734 14.8145 60.0537 15.1611 59.8096 15.4932C59.7803 15.542 59.7363 15.5762 59.6777 15.5957C59.6094 15.8301 59.5508 16.0205 59.502 16.167C59.4629 16.3037 59.4336 16.4111 59.4141 16.4893C59.3945 16.5576 59.375 16.6064 59.3555 16.6357C59.248 16.7725 59.0771 17.0361 58.8428 17.4268L58.7988 17.8223L59.209 17.251L59.3408 17.1045C59.3994 17.0068 59.4727 16.8262 59.5605 16.5625C59.5703 16.5527 59.585 16.5479 59.6045 16.5479C59.6143 16.5479 59.6191 16.5527 59.6191 16.5625L59.502 17.251C59.4531 17.6123 59.3848 17.9395 59.2969 18.2324C59.209 18.5156 59.0332 18.9111 58.7695 19.4189C58.6035 19.7217 58.4814 19.9805 58.4033 20.1953C58.2178 20.6152 58.0176 21.0107 57.8027 21.3818L57.4805 21.9971C56.709 23.5107 55.8691 25.0146 54.9609 26.5088C54.9414 26.5381 54.9121 26.5576 54.873 26.5674ZM58.4033 10.1025C58.501 9.93652 58.5498 9.75586 58.5498 9.56055L58.5352 9.41406C58.5352 9.42383 58.5303 9.43848 58.5205 9.45801C58.5107 9.46777 58.4912 9.49219 58.4619 9.53125C58.4326 9.56055 58.4082 9.58984 58.3887 9.61914C58.3691 9.64844 58.3594 9.66797 58.3594 9.67773L58.4033 10.1025ZM58.9014 16.1523L59.1504 15.4785L59.1357 15.4199C59.1357 15.2832 59.1455 15.1514 59.165 15.0244C58.9209 15.2197 58.7988 15.4199 58.7988 15.625C58.7988 15.6738 58.8086 15.7275 58.8281 15.7861C58.8672 15.9131 58.8916 16.0352 58.9014 16.1523ZM60.4395 11.6699C60.5859 11.3867 60.8545 10.7959 61.2451 9.89746L61.7285 8.81348C61.7188 8.70605 61.6748 8.60352 61.5967 8.50586C61.4307 8.89648 61.2207 9.42383 60.9668 10.0879C60.7227 10.7422 60.5469 11.2695 60.4395 11.6699ZM71.9824 10.5273C71.9336 10.5273 71.9092 10.5127 71.9092 10.4834L71.9238 10.4688C72.3047 10.0977 72.6123 9.7168 72.8467 9.32617C72.8174 9.16992 72.8027 9.01367 72.8027 8.85742C72.8027 8.45703 72.9395 7.91504 73.2129 7.23145C73.457 6.66504 73.5938 6.08887 73.623 5.50293V5.47363C73.623 5.22949 73.8379 5.04883 74.2676 4.93164C74.707 4.80469 74.9756 4.63379 75.0732 4.41895C74.9854 4.44824 74.9072 4.46289 74.8389 4.46289C74.6631 4.46289 74.5752 4.40918 74.5752 4.30176C74.6143 4.08691 74.751 3.88184 74.9854 3.68652C75.5322 3.2373 76.1426 2.83203 76.8164 2.4707C77.1484 2.1875 77.5928 1.93359 78.1494 1.70898H78.208C78.208 1.71875 78.2031 1.72363 78.1934 1.72363C78.0371 1.81152 77.9102 1.91406 77.8125 2.03125L77.9736 1.95801H78.0176V1.9873L77.666 2.20703C77.5 2.45117 77.4121 2.69531 77.4023 2.93945H77.417C77.4463 2.91992 77.4805 2.91016 77.5195 2.91016C77.5684 2.91016 77.5928 2.9248 77.5928 2.9541C77.5928 2.96387 77.583 2.97852 77.5635 2.99805C77.5439 3.01758 77.5244 3.03711 77.5049 3.05664C77.4854 3.07617 77.4707 3.0957 77.4609 3.11523C77.5098 3.08594 77.5684 3.06152 77.6367 3.04199L77.6514 3.02734C78.0518 2.56836 78.623 2.1582 79.3652 1.79688L79.4385 1.78223L79.4531 1.81152C79.3359 2.2998 79.0771 2.77832 78.6768 3.24707C78.6768 3.45215 78.6182 3.65723 78.501 3.8623C78.3936 4.05762 78.2666 4.25781 78.1201 4.46289L78.0762 4.52148C78.1445 4.56055 78.1787 4.60938 78.1787 4.66797C78.1787 5.0293 77.876 5.47852 77.2705 6.01562C77.0654 6.21094 76.8848 6.40137 76.7285 6.58691C76.2695 7.19238 75.6738 7.76367 74.9414 8.30078C74.9219 8.32031 74.9023 8.33008 74.8828 8.33008C74.834 8.33008 74.8096 8.31543 74.8096 8.28613L74.8975 7.99316C74.7705 8.15918 74.6533 8.3252 74.5459 8.49121C74.3018 8.88184 73.9941 9.24805 73.623 9.58984C73.252 9.93164 72.7344 10.2393 72.0703 10.5127L71.9824 10.5273ZM79.7754 1.35742C79.668 1.35742 79.6143 1.30859 79.6143 1.21094C79.6143 1.17187 79.6387 1.12305 79.6875 1.06445C79.834 0.830078 80.1074 0.639648 80.5078 0.493164L80.5811 0.478516L80.625 0.507812C80.625 0.517578 80.6152 0.527344 80.5957 0.537109C80.4395 0.605469 80.3223 0.683594 80.2441 0.771484C80.1758 0.849609 80.1172 0.952148 80.0684 1.0791C80.0293 1.19629 79.9512 1.28418 79.834 1.34277L79.7754 1.35742ZM90.6299 24.5312H90.5273C90.5078 24.5312 90.4883 24.5166 90.4688 24.4873C90.3906 24.2725 90.3516 24.0674 90.3516 23.8721C90.3516 23.6279 90.4102 23.335 90.5273 22.9932C90.6543 22.6416 90.7178 22.2266 90.7178 21.748L90.7031 21.4258C90.7031 20.957 90.7715 20.4834 90.9082 20.0049C90.8887 19.9561 90.8789 19.9072 90.8789 19.8584C90.8789 19.8291 90.8838 19.79 90.8936 19.7412C90.9131 19.6826 90.9424 19.6143 90.9814 19.5361L90.9961 19.4775L92.5195 15.8887C92.7637 15.752 92.9199 15.5957 92.9883 15.4199C93.0664 15.2344 93.1152 15.0439 93.1348 14.8486C93.1641 14.6436 93.2227 14.4434 93.3105 14.248C93.3398 14.1797 93.3545 14.1211 93.3545 14.0723C93.3545 13.9844 93.3057 13.9111 93.208 13.8525C93.1201 13.7842 92.9834 13.75 92.7979 13.75L92.4463 13.7646C91.958 13.7646 91.543 13.7842 91.2012 13.8232C90.3809 13.9209 89.5508 13.9746 88.7109 13.9844C88.5156 13.9844 88.374 14.0088 88.2861 14.0576C88.1982 14.1064 88.1348 14.1895 88.0957 14.3066C87.9492 14.6582 87.793 15.0098 87.627 15.3613C87.2852 16.0352 87.0215 16.7383 86.8359 17.4707C86.6406 18.4277 86.377 19.1553 86.0449 19.6533C85.4883 20.5127 85.0488 21.4014 84.7266 22.3193C84.6875 22.4268 84.5752 22.4805 84.3896 22.4805C84.2725 22.4512 84.2041 22.4072 84.1846 22.3486C84.1553 22.3779 84.1309 22.4121 84.1113 22.4512C83.6523 23.0762 83.2373 23.6914 82.8662 24.2969C82.8564 24.3066 82.8418 24.3115 82.8223 24.3115L82.749 24.2822V24.2676C82.9834 23.3398 83.1689 22.373 83.3057 21.3672C83.3643 20.9277 83.4326 20.4883 83.5107 20.0488C83.501 20.0586 83.4863 20.0879 83.4668 20.1367C83.4375 20.1758 83.4082 20.2197 83.3789 20.2686C83.3398 20.3076 83.3105 20.3418 83.291 20.3711C83.2617 20.4004 83.2373 20.415 83.2178 20.415C83.0225 20.7178 82.8613 21.0303 82.7344 21.3525L82.7051 21.3672C82.6855 21.3672 82.666 21.3672 82.6465 21.3672C82.627 21.3574 82.5977 21.1865 82.5586 20.8545C82.4707 20.5127 82.4268 20.1709 82.4268 19.8291C82.4268 19.5752 82.4658 19.2725 82.5439 18.9209C82.6221 18.4033 82.7783 18.0273 83.0127 17.793C83.0615 17.5391 83.125 17.2852 83.2031 17.0312L83.2764 16.7529C83.4912 16.0205 83.7451 15.3076 84.0381 14.6143L84.1846 14.2334C83.8135 14.0479 83.4424 13.9404 83.0713 13.9111L82.6318 13.8965C82.4072 13.8965 82.1826 13.9062 81.958 13.9258C81.8604 13.9355 81.7578 13.9404 81.6504 13.9404C81.6309 13.8721 81.6211 13.8135 81.6211 13.7646C81.6211 13.6768 81.665 13.6084 81.7529 13.5596C81.8311 13.5107 81.9531 13.4717 82.1191 13.4424C82.2363 13.4229 82.3438 13.3936 82.4414 13.3545C82.0898 13.2275 81.5869 13.0322 80.9326 12.7686C81.2061 12.6709 81.4893 12.6221 81.7822 12.6221C81.8896 12.6221 81.9922 12.627 82.0898 12.6367C82.1875 12.6465 82.2754 12.6514 82.3535 12.6514C82.5684 12.6514 82.7686 12.6318 82.9541 12.5928L82.9688 12.5049C82.9688 12.4072 82.9199 12.334 82.8223 12.2852C82.7246 12.2363 82.5635 12.1875 82.3389 12.1387C82.3389 12.041 82.3535 11.9824 82.3828 11.9629C82.4414 11.9043 82.749 11.8652 83.3057 11.8457C83.7158 11.8262 84.1211 11.7822 84.5215 11.7139C85.0586 11.626 85.3955 11.4014 85.5322 11.04C85.6689 10.6787 85.8447 10.4004 86.0596 10.2051C86.1475 10.1172 86.2354 10.0098 86.3232 9.88281C86.46 9.66797 86.5674 9.34082 86.6455 8.90137C86.6846 8.69629 86.7432 8.52539 86.8213 8.38867C86.9092 8.24219 87.0947 8.05664 87.3779 7.83203C87.4561 7.76367 87.5098 7.65137 87.5391 7.49512C87.5391 7.40723 87.5684 7.32422 87.627 7.24609C87.6465 7.20703 87.666 7.16309 87.6855 7.11426C87.7051 7.06543 87.7344 7.02148 87.7734 6.98242C87.8125 6.94336 87.8662 6.92383 87.9346 6.92383C88.0322 6.92383 88.1055 6.94824 88.1543 6.99707C88.2031 7.03613 88.2373 7.08008 88.2568 7.12891C88.3154 7.24609 88.3936 7.3291 88.4912 7.37793L89.751 4.97559C89.8779 5.16113 89.9414 5.33691 89.9414 5.50293C89.9414 5.53223 89.9365 5.60059 89.9268 5.70801C89.917 5.80566 89.8779 5.94238 89.8096 6.11816C89.7412 6.28418 89.6973 6.4502 89.6777 6.61621L89.7803 6.63086C89.8389 6.63086 89.8926 6.59668 89.9414 6.52832C89.9902 6.45996 90.0586 6.42578 90.1465 6.42578L90.2637 6.44043C90.293 6.63574 90.3076 6.83105 90.3076 7.02637C90.3076 7.57324 90.1855 8.10059 89.9414 8.6084L89.8682 8.71094C89.6924 8.94531 89.5557 9.19922 89.458 9.47266C89.3799 9.62891 89.3408 9.7168 89.3408 9.73633C89.3115 9.75586 89.2773 9.78027 89.2383 9.80957C89.1992 9.83887 89.1553 9.86328 89.1064 9.88281C89.0576 9.89258 89.0137 9.91211 88.9746 9.94141C88.8867 10.0293 88.8037 10.2246 88.7256 10.5273C88.7061 10.5859 88.6719 10.6396 88.623 10.6885C88.4277 10.8643 88.3301 11.1133 88.3301 11.4355V11.5674C88.5938 11.2646 88.7256 11.0303 88.7256 10.8643L88.7109 10.6299C88.7109 10.6201 88.7109 10.6104 88.7109 10.6006C88.7109 10.5811 88.7402 10.5713 88.7988 10.5713C88.9648 10.5029 89.0771 10.415 89.1357 10.3076C89.2041 10.2002 89.2529 10.083 89.2822 9.95605C89.2822 9.89746 89.3066 9.81934 89.3555 9.72168C89.3555 9.71191 89.3652 9.70215 89.3848 9.69238C89.4629 9.61426 89.6289 9.29199 89.8828 8.72559C89.9121 8.67676 89.9268 8.65234 89.9268 8.65234C89.9268 8.64258 89.9365 8.62793 89.9561 8.6084C90.0635 8.49121 90.2051 8.38379 90.3809 8.28613C89.8438 9.29199 89.4434 10.3662 89.1797 11.5088C89.4336 11.5283 89.6826 11.5381 89.9268 11.5381C90.5322 11.5381 91.1035 11.4697 91.6406 11.333C91.1914 11.2842 90.708 11.2256 90.1904 11.1572C90.8643 11.0693 91.5381 11.0254 92.2119 11.0254L92.8857 11.04C93.2373 11.04 93.584 11.0352 93.9258 11.0254C94.2383 10.2734 94.6484 9.55566 95.1562 8.87207L95.5518 8.27148C95.7959 7.87109 96.001 7.46582 96.167 7.05566C96.333 6.63574 96.5234 6.24023 96.7383 5.86914C96.9531 5.49805 97.2461 5.16602 97.6172 4.87305L97.6318 4.8584C97.6416 4.8584 97.6562 4.86328 97.6758 4.87305C97.6953 4.87305 97.7051 4.88281 97.7051 4.90234C97.6074 5.12695 97.5586 5.33691 97.5586 5.53223C97.5586 5.68848 97.5928 5.83496 97.6611 5.97168C97.8369 5.7666 97.9736 5.54199 98.0713 5.29785C98.2373 4.95605 98.4473 4.63379 98.7012 4.33105C99.0137 3.96973 99.2432 3.5791 99.3896 3.15918C99.6143 3.21777 99.7266 3.28125 99.7266 3.34961V3.36426C99.6582 3.55957 99.624 3.80371 99.624 4.09668C99.624 4.37988 99.585 4.63379 99.5068 4.8584C99.4775 4.8877 99.4385 4.96094 99.3896 5.07812V5.10742C99.3896 5.21484 99.5166 5.30762 99.7705 5.38574C99.8877 5.4248 99.9463 5.52246 99.9463 5.67871C99.9463 5.75684 99.9072 5.91309 99.8291 6.14746C99.7412 6.32324 99.6924 6.45996 99.6826 6.55762C99.6826 6.66504 99.7217 6.78223 99.7998 6.90918C99.8389 6.95801 99.8584 7.01172 99.8584 7.07031C99.8584 7.14844 99.7949 7.27051 99.668 7.43652C99.6094 7.50488 99.5654 7.56836 99.5361 7.62695C98.9502 8.75 98.4473 9.89258 98.0273 11.0547L97.9541 11.2305C97.8955 11.3281 97.8564 11.4355 97.8369 11.5527C97.8369 11.6797 97.8857 11.7969 97.9834 11.9043C97.8564 11.9629 97.7783 12.0361 97.749 12.124C97.7295 12.2119 97.7197 12.3096 97.7197 12.417C97.7197 12.5244 97.71 12.6172 97.6904 12.6953C97.6709 12.7637 97.6025 12.832 97.4854 12.9004C97.3682 12.959 97.2852 13.0371 97.2363 13.1348C97.002 13.6914 96.7334 14.2334 96.4307 14.7607C95.9619 15.542 95.5957 16.3574 95.332 17.207C95.2344 17.5586 95.127 17.9053 95.0098 18.2471C94.8242 18.7354 94.6777 19.2334 94.5703 19.7412C94.5703 19.7998 94.5605 19.8535 94.541 19.9023C94.5215 19.9902 94.4482 20.0342 94.3213 20.0342C94.1455 20.0342 94.0283 20.0488 93.9697 20.0781C93.8721 20.1172 93.8086 20.2246 93.7793 20.4004C93.7305 20.6738 93.6475 20.8789 93.5303 21.0156C93.4424 21.1035 93.2764 21.1768 93.0322 21.2354C92.8955 21.626 92.7344 21.9727 92.5488 22.2754L92.4756 22.3926C92.1729 22.9297 91.792 23.3643 91.333 23.6963C91.1768 23.8037 91.0352 23.9209 90.9082 24.0479C90.791 24.165 90.7178 24.3115 90.6885 24.4873C90.6787 24.5068 90.6592 24.5215 90.6299 24.5312ZM88.3594 6.49902C88.5449 6.46973 88.6426 6.41113 88.6523 6.32324L88.667 6.23535C88.667 6.14746 88.6426 6.03516 88.5938 5.89844L88.4766 6.04492C88.3691 6.17188 88.3154 6.27441 88.3154 6.35254C88.3154 6.3916 88.3301 6.44043 88.3594 6.49902ZM80.3906 13.2959C80.6055 13.2959 80.7959 13.2275 80.9619 13.0908C80.8838 13.1104 80.8057 13.1201 80.7275 13.1201C80.6201 13.1201 80.5029 13.1104 80.376 13.0908C80.249 13.0615 80.1123 13.0469 79.9658 13.0469C79.8193 13.0469 79.6729 13.0811 79.5264 13.1494L79.5557 13.1641C79.8779 13.252 80.1562 13.2959 80.3906 13.2959ZM87.2168 15.0684L87.583 14.1162C87.2607 14.2432 87.0996 14.4238 87.0996 14.6582C87.0996 14.7852 87.1387 14.9219 87.2168 15.0684ZM106.26 23.8721C106.143 23.2373 106.055 22.6074 105.996 21.9824C105.938 21.3477 105.85 20.7178 105.732 20.0928C105.449 20.4346 105.239 20.791 105.103 21.1621C105.083 21.1816 105.059 21.1865 105.029 21.1768C105.02 21.1768 105.005 21.1768 104.985 21.1768C104.976 21.1768 104.971 21.1719 104.971 21.1621C104.902 20.8984 104.849 20.6201 104.81 20.3271C104.692 20.2881 104.634 20.2246 104.634 20.1367C104.634 20.1074 104.644 20.0732 104.663 20.0342C104.712 19.9268 104.756 19.8145 104.795 19.6973C104.814 19.5605 104.854 19.4189 104.912 19.2725C104.971 19.1162 105.029 18.7842 105.088 18.2764C105.127 17.9346 105.19 17.583 105.278 17.2217C105.366 16.8604 105.469 16.4941 105.586 16.123C105.742 15.625 105.874 15.127 105.981 14.6289C106.011 14.5312 106.025 14.4434 106.025 14.3652C106.025 14.2188 105.981 14.126 105.894 14.0869C105.815 14.0381 105.693 14.0137 105.527 14.0137C105.371 14.0137 105.166 14.0332 104.912 14.0723C104.385 14.1406 103.994 14.209 103.74 14.2773C103.496 14.3359 103.301 14.4336 103.154 14.5703C103.008 14.6973 102.827 14.9072 102.612 15.2002L102.583 15.2295C102.056 15.9619 101.162 17.1094 99.9023 18.6719C99.6777 18.9258 99.4238 19.1748 99.1406 19.4189C98.8574 19.6533 98.5986 19.9072 98.3643 20.1807C98.2959 20.2686 98.1299 20.3125 97.8662 20.3125C97.71 20.3125 97.5537 20.332 97.3975 20.3711C97.4951 20.2051 97.5439 20.0195 97.5439 19.8145C96.665 20.5273 95.6982 21.1768 94.6436 21.7627H94.5996V21.748C95.0684 21.25 95.4688 20.7324 95.8008 20.1953C96.0156 19.873 96.2451 19.5557 96.4893 19.2432C96.46 19.2139 96.4453 19.1895 96.4453 19.1699C96.4453 19.1309 96.4697 19.0723 96.5186 18.9941C96.5576 18.9551 96.582 18.9209 96.5918 18.8916C96.7578 18.6475 96.8408 18.457 96.8408 18.3203C96.8408 18.2031 96.792 18.0713 96.6943 17.9248C96.6455 17.8564 96.6211 17.7832 96.6211 17.7051C96.6211 17.5586 96.7334 17.3535 96.958 17.0898L97.0166 17.0166C97.4268 16.5186 97.8516 16.0205 98.291 15.5225L98.335 15.4639C98.5498 15.2588 98.7061 15.0146 98.8037 14.7314C97.7197 14.5947 97.1094 14.5117 96.9727 14.4824L97.1338 14.0137C96.5967 13.9844 96.0693 13.9453 95.5518 13.8965L94.3213 13.8232L94.3066 13.7939H94.3213C94.79 13.7256 95.2539 13.6426 95.7129 13.5449C96.3281 13.3203 96.9873 13.1934 97.6904 13.1641C98.1201 13.125 98.54 13.0371 98.9502 12.9004L99.3604 12.7832C99.2627 12.7832 99.1699 12.7783 99.082 12.7686C98.5547 12.7295 98.291 12.7002 98.291 12.6807C98.291 12.6709 98.3057 12.6611 98.335 12.6514C98.8135 12.6123 99.2822 12.5537 99.7412 12.4756C100.112 12.417 100.483 12.3682 100.854 12.3291C100.874 12.3193 100.903 12.3145 100.942 12.3145C101.05 12.2363 101.143 12.1387 101.221 12.0215C101.885 11.0449 102.578 10.0781 103.301 9.12109C103.564 8.76953 103.823 8.41309 104.077 8.05176C104.233 7.78809 104.404 7.5293 104.59 7.27539C104.727 7.08008 104.878 6.85059 105.044 6.58691C105.298 6.12793 105.645 5.71289 106.084 5.3418C106.279 5.17578 106.46 5.00488 106.626 4.8291C106.792 4.64355 106.895 4.44336 106.934 4.22852C106.943 4.21875 106.958 4.21387 106.978 4.21387C106.987 4.21387 106.992 4.21875 106.992 4.22852C106.992 4.80469 106.914 5.38086 106.758 5.95703C106.924 5.81055 107.1 5.66895 107.285 5.53223C107.617 5.33691 107.998 5.23926 108.428 5.23926C108.975 5.23926 109.248 5.32227 109.248 5.48828L109.233 5.59082C109.233 5.71777 109.292 5.81543 109.409 5.88379C109.536 5.94238 109.702 5.99121 109.907 6.03027L110.098 6.07422C110.41 6.15234 110.635 6.2207 110.771 6.2793C110.908 6.33789 110.991 6.41602 111.021 6.51367C111.04 6.57227 111.05 6.65039 111.05 6.74805L111.035 6.99707C110.898 9.24316 110.562 11.4844 110.024 13.7207C110.571 12.2266 110.977 10.7275 111.24 9.22363C111.24 9.21387 111.25 9.2041 111.27 9.19434H111.313L111.328 9.22363C111.27 10.2197 111.182 11.2061 111.064 12.1826C110.957 13.1592 110.771 14.1406 110.508 15.127C110.352 15.7129 110.21 16.3184 110.083 16.9434C109.956 17.6367 109.795 18.3252 109.6 19.0088C109.414 19.6924 109.146 20.3467 108.794 20.9717C108.774 21.0107 108.735 21.04 108.677 21.0596H108.501C108.413 21.04 108.359 20.8301 108.34 20.4297C108.242 20.6055 108.193 20.7861 108.193 20.9717C108.193 21.0596 108.091 21.1621 107.886 21.2793C107.71 21.3574 107.598 21.4502 107.549 21.5576C107.471 21.7236 107.383 21.8896 107.285 22.0557C107.1 22.3682 106.963 22.6904 106.875 23.0225L106.846 23.0957C106.836 23.2129 106.792 23.335 106.714 23.4619C106.646 23.5889 106.494 23.7256 106.26 23.8721ZM106.348 12.1973C106.455 12.1973 106.577 12.1924 106.714 12.1826C106.851 12.1631 106.958 12.0752 107.036 11.9189C107.378 11.2354 107.549 10.6934 107.549 10.293C107.549 10.166 107.539 10.0391 107.52 9.91211C107.109 10.1758 106.797 10.4541 106.582 10.7471C106.396 10.9912 106.172 11.2109 105.908 11.4062L105.85 11.4355C105.82 11.4355 105.806 11.3428 105.806 11.1572C105.806 11.0986 105.806 11.0645 105.806 11.0547C105.815 11.0352 105.84 11.0059 105.879 10.9668C106.143 10.9082 106.274 10.7764 106.274 10.5713V10.4834C106.05 10.6299 105.913 10.7715 105.864 10.9082C105.845 10.9766 105.815 11.0303 105.776 11.0693H105.762C105.684 11.1182 105.61 11.1719 105.542 11.2305L105.498 11.2598C105.43 11.3281 105.396 11.377 105.396 11.4062C105.396 11.4258 105.42 11.4453 105.469 11.4648H105.498C105.537 11.4648 105.581 11.46 105.63 11.4502C105.679 11.4307 105.732 11.4209 105.791 11.4209C105.84 11.4307 105.864 11.4551 105.864 11.4941C105.864 11.5723 105.811 11.665 105.703 11.7725C105.605 11.8701 105.557 11.9629 105.557 12.0508C105.557 12.0801 105.566 12.1191 105.586 12.168C105.781 12.168 105.933 12.1729 106.04 12.1826C106.147 12.1924 106.25 12.1973 106.348 12.1973ZM112.705 25.2637C112.656 25.2637 112.578 25.2539 112.471 25.2344C112.363 25.2246 112.192 25.0977 111.958 24.8535C111.831 24.7461 111.636 24.6924 111.372 24.6924C111.108 24.6924 110.854 24.6436 110.61 24.5459C110.63 24.4873 110.64 24.4287 110.64 24.3701C110.64 24.1553 110.483 23.9014 110.171 23.6084C110.073 23.4912 110.015 23.3887 109.995 23.3008V23.2861C109.995 23.1982 110.068 23.1543 110.215 23.1543C110.615 23.1543 110.923 23.0908 111.138 22.9639C111.343 22.8271 111.514 22.6855 111.65 22.5391C111.787 22.3828 111.934 22.2461 112.09 22.1289C112.139 22.0996 112.178 22.0605 112.207 22.0117C112.422 21.7969 112.529 21.5234 112.529 21.1914C112.529 21.0645 112.515 20.9277 112.485 20.7812L112.163 21.0596C112.065 21.1572 112.017 21.2061 112.017 21.2061C112.007 21.2061 111.997 21.2061 111.987 21.2061V21.1768C111.987 21.1572 111.978 21.1279 111.958 21.0889C111.938 21.04 111.929 21.0059 111.929 20.9863C111.919 20.9668 111.909 20.9473 111.899 20.9277C111.89 20.8984 111.87 20.874 111.841 20.8545C111.616 20.9424 111.421 21.123 111.255 21.3965C111.089 21.6699 110.884 21.8604 110.64 21.9678C110.591 21.9189 110.552 21.8799 110.522 21.8506C110.493 21.8213 110.479 21.8018 110.479 21.792C110.684 21.3135 110.835 20.8203 110.933 20.3125C111.03 19.8047 111.172 19.3213 111.357 18.8623C112.002 17.4561 112.822 15.5322 113.818 13.0908C114.824 10.6494 115.61 8.70605 116.177 7.26074C116.265 7.00684 116.338 6.74805 116.396 6.48438C116.465 6.06445 116.606 5.66895 116.821 5.29785C117.075 4.8291 117.627 4.34082 118.477 3.83301C118.525 3.80371 118.56 3.76953 118.579 3.73047C118.608 3.69141 118.633 3.64746 118.652 3.59863C118.662 3.58887 118.667 3.57422 118.667 3.55469C118.882 3.17383 119.146 2.82227 119.458 2.5C119.878 2.07031 120.186 1.5918 120.381 1.06445C120.391 0.986328 120.425 0.927734 120.483 0.888672C120.542 0.839844 120.669 0.81543 120.864 0.81543C120.806 1.1377 120.698 1.43555 120.542 1.70898C120.356 2.01172 120.244 2.33887 120.205 2.69043C120.166 3.03223 120.146 3.2666 120.146 3.39355C120.146 3.8623 120.444 4.25781 121.04 4.58008L121.069 4.60938C121.069 4.59961 121.064 4.58984 121.055 4.58008H121.04C121.079 4.77539 121.099 4.9707 121.099 5.16602L121.084 5.47363C121.006 6.0498 120.859 6.60645 120.645 7.14355C120.439 7.6709 120.21 8.18848 119.956 8.69629C119.673 9.27246 119.419 9.85352 119.194 10.4395C119.155 10.5566 119.136 10.6592 119.136 10.7471C119.136 10.7861 119.146 10.8203 119.165 10.8496C119.185 10.8691 119.199 10.8887 119.209 10.9082L119.194 11.0254C119.136 11.1719 119.092 11.2598 119.062 11.2891C119.023 11.3574 118.999 11.4307 118.989 11.5088V11.5234C118.989 11.6113 119.043 11.7188 119.15 11.8457C119.414 11.543 119.595 11.2988 119.692 11.1133C119.8 10.918 119.888 10.7275 119.956 10.542C120.024 10.3174 120.166 10.0049 120.381 9.60449C120.352 10.2197 120.283 10.6982 120.176 11.04C120.078 11.3721 119.941 11.7188 119.766 12.0801L119.062 13.6035C118.994 14.2871 118.823 14.9463 118.55 15.5811L118.301 16.2842C117.998 17.3389 117.559 18.3301 116.982 19.2578H116.968C116.948 19.2578 116.929 19.2578 116.909 19.2578C116.89 19.248 116.88 19.0332 116.88 18.6133C116.88 18.2812 116.895 17.9492 116.924 17.6172C115.684 19.9316 114.937 21.4062 114.683 22.041C114.946 22.0898 115.176 22.1143 115.371 22.1143C115.654 22.1143 115.889 22.0996 116.074 22.0703L116.177 22.0557C117.378 21.8799 118.413 21.748 119.282 21.6602C119.36 21.6504 119.443 21.6357 119.531 21.6162C119.629 21.5869 119.746 21.5723 119.883 21.5723C119.912 21.5723 119.98 21.5771 120.088 21.5869C120.195 21.5967 120.386 21.7041 120.659 21.9092C120.776 21.9775 120.903 22.0117 121.04 22.0117C121.235 22.0117 121.421 21.9922 121.597 21.9531C121.831 21.9043 122.065 21.8799 122.3 21.8799C122.329 21.9189 122.344 21.9482 122.344 21.9678C122.344 22.0068 122.295 22.0459 122.197 22.085C122.109 22.1143 122.065 22.1436 122.065 22.1729C122.065 22.1924 122.08 22.2168 122.109 22.2461C122.207 22.3438 122.31 22.3975 122.417 22.4072H122.754C122.822 22.3975 122.896 22.3926 122.974 22.3926C123.306 22.3926 123.584 22.334 123.809 22.2168C123.965 22.0898 124.199 22.0264 124.512 22.0264C124.697 22.0264 124.912 22.0508 125.156 22.0996C125.146 22.1973 125.103 22.2754 125.024 22.334C124.956 22.3828 124.873 22.4268 124.775 22.4658C124.678 22.5049 124.6 22.5488 124.541 22.5977C124.482 22.6465 124.399 22.6758 124.292 22.6855C124.194 22.6953 124.082 22.7002 123.955 22.7002L123.794 22.6855C123.657 22.6855 123.53 22.7051 123.413 22.7441C123.296 22.7832 123.237 22.8809 123.237 23.0371V23.1396C123.237 23.2373 123.091 23.3203 122.798 23.3887C122.651 23.4277 122.515 23.4814 122.388 23.5498C122.271 23.6084 122.212 23.7012 122.212 23.8281C122.212 23.8574 122.192 23.877 122.153 23.8867C122.056 23.9258 121.938 23.9453 121.802 23.9453C119.761 24.1113 117.808 24.3701 115.942 24.7217C115.054 24.8779 114.16 25.0195 113.262 25.1465L113.042 25.2051C112.935 25.2441 112.822 25.2637 112.705 25.2637ZM119.766 6.90918C120.166 6.43066 120.366 5.86914 120.366 5.22461V5.09277C120.151 5.26855 120.01 5.47363 119.941 5.70801C119.883 5.93262 119.844 6.16699 119.824 6.41113C119.814 6.57715 119.795 6.74316 119.766 6.90918ZM116.836 11.4209L116.88 11.333C117.026 11.1084 117.1 10.9082 117.1 10.7324C117.1 10.6152 117.07 10.4932 117.012 10.3662L116.821 10.7471L116.836 11.4209ZM113.657 19.4629L114.009 18.8184C114.097 18.0176 114.268 17.2461 114.521 16.5039C114.785 15.752 115.073 15.0049 115.386 14.2627C115.747 13.4131 116.069 12.5488 116.353 11.6699C116.03 12.2949 115.674 12.9883 115.283 13.75C114.902 14.502 114.57 15.1855 114.287 15.8008C114.004 16.4062 113.857 16.792 113.848 16.958C113.623 17.085 113.447 17.2461 113.32 17.4414C113.262 17.5293 113.232 17.6123 113.232 17.6904C113.232 17.7783 113.267 17.8613 113.335 17.9395C113.53 18.1348 113.628 18.3008 113.628 18.4375C113.628 18.4766 113.618 18.5205 113.599 18.5693C113.589 18.6182 113.564 18.6719 113.525 18.7305C113.486 18.7793 113.457 18.8281 113.438 18.877C113.398 18.9453 113.379 19.0137 113.379 19.082C113.379 19.0918 113.384 19.126 113.394 19.1846C113.403 19.2334 113.491 19.3262 113.657 19.4629ZM121.934 25.2637C121.885 25.2637 121.807 25.2539 121.699 25.2344C121.592 25.2246 121.421 25.0977 121.187 24.8535C121.06 24.7461 120.864 24.6924 120.601 24.6924C120.337 24.6924 120.083 24.6436 119.839 24.5459C119.858 24.4873 119.868 24.4287 119.868 24.3701C119.868 24.1553 119.712 23.9014 119.399 23.6084C119.302 23.4912 119.243 23.3887 119.224 23.3008V23.2861C119.224 23.1982 119.297 23.1543 119.443 23.1543C119.844 23.1543 120.151 23.0908 120.366 22.9639C120.571 22.8271 120.742 22.6855 120.879 22.5391C121.016 22.3828 121.162 22.2461 121.318 22.1289C121.367 22.0996 121.406 22.0605 121.436 22.0117C121.65 21.7969 121.758 21.5234 121.758 21.1914C121.758 21.0645 121.743 20.9277 121.714 20.7812L121.392 21.0596C121.294 21.1572 121.245 21.2061 121.245 21.2061C121.235 21.2061 121.226 21.2061 121.216 21.2061V21.1768C121.216 21.1572 121.206 21.1279 121.187 21.0889C121.167 21.04 121.157 21.0059 121.157 20.9863C121.147 20.9668 121.138 20.9473 121.128 20.9277C121.118 20.8984 121.099 20.874 121.069 20.8545C120.845 20.9424 120.649 21.123 120.483 21.3965C120.317 21.6699 120.112 21.8604 119.868 21.9678C119.819 21.9189 119.78 21.8799 119.751 21.8506C119.722 21.8213 119.707 21.8018 119.707 21.792C119.912 21.3135 120.063 20.8203 120.161 20.3125C120.259 19.8047 120.4 19.3213 120.586 18.8623C121.23 17.4561 122.051 15.5322 123.047 13.0908C124.053 10.6494 124.839 8.70605 125.405 7.26074C125.493 7.00684 125.566 6.74805 125.625 6.48438C125.693 6.06445 125.835 5.66895 126.05 5.29785C126.304 4.8291 126.855 4.34082 127.705 3.83301C127.754 3.80371 127.788 3.76953 127.808 3.73047C127.837 3.69141 127.861 3.64746 127.881 3.59863C127.891 3.58887 127.896 3.57422 127.896 3.55469C128.11 3.17383 128.374 2.82227 128.687 2.5C129.106 2.07031 129.414 1.5918 129.609 1.06445C129.619 0.986328 129.653 0.927734 129.712 0.888672C129.771 0.839844 129.897 0.81543 130.093 0.81543C130.034 1.1377 129.927 1.43555 129.771 1.70898C129.585 2.01172 129.473 2.33887 129.434 2.69043C129.395 3.03223 129.375 3.2666 129.375 3.39355C129.375 3.8623 129.673 4.25781 130.269 4.58008L130.298 4.60938C130.298 4.59961 130.293 4.58984 130.283 4.58008H130.269C130.308 4.77539 130.327 4.9707 130.327 5.16602L130.312 5.47363C130.234 6.0498 130.088 6.60645 129.873 7.14355C129.668 7.6709 129.438 8.18848 129.185 8.69629C128.901 9.27246 128.647 9.85352 128.423 10.4395C128.384 10.5566 128.364 10.6592 128.364 10.7471C128.364 10.7861 128.374 10.8203 128.394 10.8496C128.413 10.8691 128.428 10.8887 128.438 10.9082L128.423 11.0254C128.364 11.1719 128.32 11.2598 128.291 11.2891C128.252 11.3574 128.228 11.4307 128.218 11.5088V11.5234C128.218 11.6113 128.271 11.7188 128.379 11.8457C128.643 11.543 128.823 11.2988 128.921 11.1133C129.028 10.918 129.116 10.7275 129.185 10.542C129.253 10.3174 129.395 10.0049 129.609 9.60449C129.58 10.2197 129.512 10.6982 129.404 11.04C129.307 11.3721 129.17 11.7188 128.994 12.0801L128.291 13.6035C128.223 14.2871 128.052 14.9463 127.778 15.5811L127.529 16.2842C127.227 17.3389 126.787 18.3301 126.211 19.2578H126.196C126.177 19.2578 126.157 19.2578 126.138 19.2578C126.118 19.248 126.108 19.0332 126.108 18.6133C126.108 18.2812 126.123 17.9492 126.152 17.6172C124.912 19.9316 124.165 21.4062 123.911 22.041C124.175 22.0898 124.404 22.1143 124.6 22.1143C124.883 22.1143 125.117 22.0996 125.303 22.0703L125.405 22.0557C126.606 21.8799 127.642 21.748 128.511 21.6602C128.589 21.6504 128.672 21.6357 128.76 21.6162C128.857 21.5869 128.975 21.5723 129.111 21.5723C129.141 21.5723 129.209 21.5771 129.316 21.5869C129.424 21.5967 129.614 21.7041 129.888 21.9092C130.005 21.9775 130.132 22.0117 130.269 22.0117C130.464 22.0117 130.649 21.9922 130.825 21.9531C131.06 21.9043 131.294 21.8799 131.528 21.8799C131.558 21.9189 131.572 21.9482 131.572 21.9678C131.572 22.0068 131.523 22.0459 131.426 22.085C131.338 22.1143 131.294 22.1436 131.294 22.1729C131.294 22.1924 131.309 22.2168 131.338 22.2461C131.436 22.3438 131.538 22.3975 131.646 22.4072H131.982C132.051 22.3975 132.124 22.3926 132.202 22.3926C132.534 22.3926 132.812 22.334 133.037 22.2168C133.193 22.0898 133.428 22.0264 133.74 22.0264C133.926 22.0264 134.141 22.0508 134.385 22.0996C134.375 22.1973 134.331 22.2754 134.253 22.334C134.185 22.3828 134.102 22.4268 134.004 22.4658C133.906 22.5049 133.828 22.5488 133.77 22.5977C133.711 22.6465 133.628 22.6758 133.521 22.6855C133.423 22.6953 133.311 22.7002 133.184 22.7002L133.022 22.6855C132.886 22.6855 132.759 22.7051 132.642 22.7441C132.524 22.7832 132.466 22.8809 132.466 23.0371V23.1396C132.466 23.2373 132.319 23.3203 132.026 23.3887C131.88 23.4277 131.743 23.4814 131.616 23.5498C131.499 23.6084 131.44 23.7012 131.44 23.8281C131.44 23.8574 131.421 23.877 131.382 23.8867C131.284 23.9258 131.167 23.9453 131.03 23.9453C128.989 24.1113 127.036 24.3701 125.171 24.7217C124.282 24.8779 123.389 25.0195 122.49 25.1465L122.271 25.2051C122.163 25.2441 122.051 25.2637 121.934 25.2637ZM128.994 6.90918C129.395 6.43066 129.595 5.86914 129.595 5.22461V5.09277C129.38 5.26855 129.238 5.47363 129.17 5.70801C129.111 5.93262 129.072 6.16699 129.053 6.41113C129.043 6.57715 129.023 6.74316 128.994 6.90918ZM126.064 11.4209L126.108 11.333C126.255 11.1084 126.328 10.9082 126.328 10.7324C126.328 10.6152 126.299 10.4932 126.24 10.3662L126.05 10.7471L126.064 11.4209ZM122.886 19.4629L123.237 18.8184C123.325 18.0176 123.496 17.2461 123.75 16.5039C124.014 15.752 124.302 15.0049 124.614 14.2627C124.976 13.4131 125.298 12.5488 125.581 11.6699C125.259 12.2949 124.902 12.9883 124.512 13.75C124.131 14.502 123.799 15.1855 123.516 15.8008C123.232 16.4062 123.086 16.792 123.076 16.958C122.852 17.085 122.676 17.2461 122.549 17.4414C122.49 17.5293 122.461 17.6123 122.461 17.6904C122.461 17.7783 122.495 17.8613 122.563 17.9395C122.759 18.1348 122.856 18.3008 122.856 18.4375C122.856 18.4766 122.847 18.5205 122.827 18.5693C122.817 18.6182 122.793 18.6719 122.754 18.7305C122.715 18.7793 122.686 18.8281 122.666 18.877C122.627 18.9453 122.607 19.0137 122.607 19.082C122.607 19.0918 122.612 19.126 122.622 19.1846C122.632 19.2334 122.72 19.3262 122.886 19.4629ZM133.857 20.9424L133.228 20.9277C132.905 20.9277 132.593 20.8203 132.29 20.6055L132.554 20.5908C132.72 20.5908 132.876 20.6055 133.022 20.6348C133.169 20.6543 133.301 20.6641 133.418 20.6641C133.672 20.6641 133.887 20.6201 134.062 20.5322C133.955 20.4248 133.828 20.3516 133.682 20.3125C133.535 20.2734 133.384 20.2441 133.228 20.2246L132.935 20.1807L132.773 20.1514C132.178 20.0635 131.636 19.9072 131.147 19.6826L131.104 19.6533C130.84 19.5459 130.708 19.4482 130.708 19.3604L130.723 19.0674C130.723 18.6572 130.64 18.2617 130.474 17.8809C130.298 17.4902 130.21 17.0947 130.21 16.6943C130.21 16.5771 130.215 16.4648 130.225 16.3574L130.444 15.3906L130.576 14.7754C130.625 14.6289 130.649 14.5361 130.649 14.4971L130.635 14.4092C130.508 13.9307 130.444 13.6035 130.444 13.4277C130.444 13.3594 130.454 13.2861 130.474 13.208C130.483 13.1201 130.527 12.9883 130.605 12.8125L130.62 12.7832C130.874 12.1387 131.113 11.4941 131.338 10.8496C131.357 10.8203 131.372 10.7861 131.382 10.7471C131.431 10.6006 131.499 10.459 131.587 10.3223C131.821 9.80469 132.124 9.30664 132.495 8.82812C132.876 8.33984 133.271 7.87109 133.682 7.42188C133.838 7.25586 133.989 7.08496 134.136 6.90918H134.15V6.92383C133.691 7.61719 133.379 8.34961 133.213 9.12109L133.242 9.04785C133.555 8.42285 133.921 7.86621 134.341 7.37793C134.761 6.87988 135.332 6.44531 136.055 6.07422C136.865 5.63477 137.744 5.41504 138.691 5.41504C139.004 5.41504 139.326 5.43945 139.658 5.48828C139.941 5.52734 140.229 5.54688 140.522 5.54688C141.362 5.54688 142.119 5.63965 142.793 5.8252C143.359 5.98145 143.789 6.29395 144.082 6.7627C144.18 6.91895 144.312 7.06055 144.478 7.1875L144.536 7.23145C144.36 6.63574 143.979 6.15234 143.394 5.78125C142.808 5.40039 141.963 5.16602 140.859 5.07812C141.172 5.05859 141.47 5.04883 141.753 5.04883C143.052 5.04883 144.053 5.33691 144.756 5.91309C145.518 6.54785 145.898 7.50977 145.898 8.79883C145.898 9.80469 145.713 10.8594 145.342 11.9629C145.547 11.543 145.776 11.123 146.03 10.7031C146.04 10.6934 146.055 10.6885 146.074 10.6885C146.104 10.6885 146.118 10.7031 146.118 10.7324C145.913 11.25 145.767 11.8311 145.679 12.4756C145.591 13.1104 145.425 13.7305 145.181 14.3359C144.946 14.9414 144.492 15.4297 143.818 15.8008L143.701 15.8154L143.599 15.8008C142.651 17.3633 141.973 18.1445 141.562 18.1445L141.416 18.1299C140.947 18.6182 140.415 19.0771 139.819 19.5068C139.526 19.7217 139.199 19.9072 138.838 20.0635C137.266 20.6494 135.605 20.9424 133.857 20.9424ZM136.362 18.7891C136.46 18.7891 136.567 18.7793 136.685 18.7598C136.812 18.7402 136.953 18.7207 137.109 18.7012C137.441 18.6719 137.749 18.6133 138.032 18.5254C138.315 18.4375 138.501 18.2666 138.589 18.0127C138.208 18.2666 137.754 18.4375 137.227 18.5254L136.934 18.54C136.465 18.54 135.928 18.3252 135.322 17.8955L135.293 17.8662C135.771 18.1006 136.211 18.2178 136.611 18.2178C137.422 18.2178 138.198 17.7539 138.94 16.8262C139.409 16.2402 139.834 15.625 140.215 14.9805C140.732 14.1016 141.226 13.4619 141.694 13.0615H141.709C141.924 12.5439 142.07 12.0215 142.148 11.4941C142.168 11.3672 142.178 11.2402 142.178 11.1133C142.178 10.7227 142.095 10.3223 141.929 9.91211V9.80957C141.938 9.79004 141.958 9.76562 141.987 9.73633C142.017 9.69727 142.051 9.62402 142.09 9.5166V9.47266C142.002 9.19922 141.87 8.92578 141.694 8.65234L141.68 8.62305L141.519 8.37402C140.737 7.90527 140.107 7.6709 139.629 7.6709C139.463 7.6709 139.292 7.69043 139.116 7.72949C138.462 7.91504 137.9 8.22754 137.432 8.66699C137.471 8.82324 137.49 8.91602 137.49 8.94531C137.49 9.00391 137.456 9.05273 137.388 9.0918C136.997 9.39453 136.694 9.72168 136.479 10.0732C136.265 10.415 135.986 10.7275 135.645 11.0107C135.654 11.0107 135.659 11.0156 135.659 11.0254C135.659 11.0254 135.664 11.0303 135.674 11.04L135.63 11.0254L135.645 10.9961V10.9814C135.098 11.9092 134.8 12.8662 134.751 13.8525C134.751 13.8818 134.731 13.8965 134.692 13.8965C134.683 13.8965 134.668 13.8965 134.648 13.8965C134.629 13.8965 134.614 13.8867 134.604 13.8672C134.478 13.4668 134.414 12.9883 134.414 12.4316C134.072 13.6523 133.892 14.8877 133.872 16.1377C133.872 16.333 133.906 16.4893 133.975 16.6064C134.033 16.2158 134.141 15.8301 134.297 15.4492C134.365 15.2637 134.429 15.0684 134.487 14.8633H134.517V14.8779C134.497 15.0635 134.487 15.2441 134.487 15.4199C134.487 16.0449 134.59 16.6602 134.795 17.2656C135.146 18.2812 135.669 18.7891 136.362 18.7891ZM132.627 19.2432C132.539 18.9893 132.383 18.7842 132.158 18.6279C131.934 18.4717 131.709 18.3447 131.484 18.2471L131.396 18.2031C131.514 18.4863 131.655 18.7109 131.821 18.877C131.997 19.043 132.266 19.165 132.627 19.2432ZM143.921 9.86816C143.96 9.77051 143.979 9.68262 143.979 9.60449C143.979 9.46777 143.921 9.30664 143.804 9.12109C143.862 9.42383 143.901 9.67285 143.921 9.86816ZM139.937 16.8115C140.044 16.7041 140.146 16.5869 140.244 16.46C140.479 16.1768 140.742 15.9082 141.035 15.6543C141.094 15.6055 141.123 15.5518 141.123 15.4932C141.123 15.4736 141.128 15.4443 141.138 15.4053C141.147 15.3662 141.235 15.293 141.401 15.1855C141.606 15.0488 141.709 14.9365 141.709 14.8486C141.709 14.7803 141.67 14.707 141.592 14.6289C141.494 14.6875 141.416 14.7559 141.357 14.834C141.299 14.9023 141.245 14.9805 141.196 15.0684C141.157 15.1465 141.133 15.2295 141.123 15.3174C141.113 15.3955 141.108 15.4541 141.108 15.4932C141.108 15.5322 141.094 15.5518 141.064 15.5518L140.889 15.5371C140.596 15.9961 140.278 16.4209 139.937 16.8115ZM154.614 23.6816C154.575 23.6816 154.536 23.6768 154.497 23.667C154.468 23.6572 154.453 23.4863 154.453 23.1543C154.453 22.3633 154.624 21.5869 154.966 20.8252C154.907 20.8545 154.858 20.8691 154.819 20.8691C154.712 20.8691 154.639 20.8008 154.6 20.6641C154.561 20.5078 154.541 20.3027 154.541 20.0488C154.541 19.6289 154.453 18.4619 154.277 16.5479C154.219 15.7471 154.175 15.3125 154.146 15.2441C154.126 15.2832 154.062 15.3564 153.955 15.4639C152.9 16.7627 152.031 17.8906 151.348 18.8477L151.318 18.8623C151.299 18.8623 151.284 18.8623 151.274 18.8623C151.265 18.8525 151.26 18.8379 151.26 18.8184C151.562 18.2324 151.846 17.6416 152.109 17.0459C152.119 17.0166 152.134 16.9922 152.153 16.9727C152.017 17.1094 151.602 17.627 150.908 18.5254C150.361 19.2285 150.02 19.6436 149.883 19.7705C149.873 19.79 149.858 19.8096 149.839 19.8291C149.819 19.8389 149.81 19.8584 149.81 19.8877C149.81 19.9365 149.814 19.9805 149.824 20.0195C149.834 20.0586 149.839 20.0977 149.839 20.1367C149.839 20.2539 149.688 20.3418 149.385 20.4004C149.326 20.6152 149.258 20.8301 149.18 21.0449C148.955 21.6602 148.843 22.1436 148.843 22.4951C148.843 22.6514 148.857 22.8076 148.887 22.9639C148.887 23.042 148.857 23.1006 148.799 23.1396C148.74 23.1787 148.677 23.1982 148.608 23.1982C148.53 23.1982 148.477 23.1641 148.447 23.0957C148.174 22.4219 147.959 21.7334 147.803 21.0303C147.734 20.8447 147.646 20.6592 147.539 20.4736C147.441 20.5713 147.383 20.6689 147.363 20.7666L147.349 20.9424V21.1621C147.339 21.2109 147.314 21.2549 147.275 21.2939C147.188 21.3525 147.119 21.3818 147.07 21.3818C147.041 21.3818 147.026 21.3623 147.026 21.3232C147.026 20.6299 146.973 20.0293 146.865 19.5215C146.768 19.0137 146.719 18.501 146.719 17.9834C146.719 17.8271 146.724 17.6758 146.733 17.5293L146.748 17.207C146.748 16.6309 146.655 16.0596 146.47 15.4932L146.309 14.8193C146.26 14.5557 146.235 14.292 146.235 14.0283L146.221 13.5303C146.221 13.4814 146.23 13.4375 146.25 13.3984C146.543 13.0762 146.704 12.7539 146.733 12.4316L146.748 12.124C146.748 11.9092 146.729 11.6992 146.689 11.4941C146.65 11.2793 146.631 11.0693 146.631 10.8643L146.646 10.5566C146.646 10.3711 146.641 10.2441 146.631 10.1758C146.621 10.0977 146.616 10.0244 146.616 9.95605C146.616 9.83887 146.636 9.70215 146.675 9.5459C146.714 9.38965 146.851 9.21875 147.085 9.0332C147.222 8.92578 147.29 8.79395 147.29 8.6377C147.29 8.51074 147.246 8.34473 147.158 8.13965C147.109 8.04199 147.085 7.9541 147.085 7.87598C147.085 7.83691 147.1 7.79297 147.129 7.74414C147.168 7.68555 147.31 7.59766 147.554 7.48047L147.539 7.2168C147.539 6.81641 147.559 6.47949 147.598 6.20605C147.646 5.92285 147.808 5.61523 148.081 5.2832L148.096 5.26855H148.125V5.29785C148.018 5.4834 147.964 5.66895 147.964 5.85449C147.964 5.95215 147.988 6.09375 148.037 6.2793C148.096 6.46484 148.198 6.68945 148.345 6.95312L148.477 7.2168C148.662 6.06445 148.755 5.18066 148.755 4.56543C148.755 4.28223 148.74 4.00879 148.711 3.74512C148.711 3.72559 148.721 3.71094 148.74 3.70117C148.779 3.70117 148.804 3.70605 148.813 3.71582C148.882 3.97949 148.955 4.23828 149.033 4.49219C149.219 5.11719 149.385 5.74707 149.531 6.38184C149.688 7.00684 149.775 7.64648 149.795 8.30078C149.824 8.82812 149.873 9.36523 149.941 9.91211L149.956 10.0879L150.015 10.0146C150.103 10.4541 150.146 10.8887 150.146 11.3184C150.146 11.7383 150.103 12.1582 150.015 12.5781L149.956 13.0029L149.912 13.0908C149.756 13.9014 149.678 14.707 149.678 15.5078C149.678 15.918 149.697 16.3232 149.736 16.7236C149.932 16.7041 150.059 16.665 150.117 16.6064C150.186 16.5381 150.244 16.4307 150.293 16.2842L150.337 16.2256C151.255 14.7998 152.139 13.3691 152.988 11.9336C153.291 11.4551 153.657 11.001 154.087 10.5713C154.37 10.2783 154.629 9.98047 154.863 9.67773C154.883 9.64844 154.907 9.62402 154.937 9.60449C155.327 9.50684 155.586 9.375 155.713 9.20898C155.85 9.04297 155.942 8.8623 155.991 8.66699C156.021 8.54004 156.069 8.41797 156.138 8.30078L156.255 8.05176C156.353 7.85645 156.475 7.66113 156.621 7.46582C156.768 7.27051 156.973 7.08984 157.236 6.92383C157.188 7.09961 157.163 7.26562 157.163 7.42188C157.163 7.59766 157.192 7.76855 157.251 7.93457C157.28 8.02246 157.295 8.11035 157.295 8.19824C157.295 8.35449 157.222 8.58887 157.075 8.90137C156.997 9.04785 156.934 9.19434 156.885 9.34082C156.865 9.39941 156.836 9.46289 156.797 9.53125C156.709 9.63867 156.665 9.7168 156.665 9.76562C156.665 9.88281 156.797 9.98047 157.061 10.0586C157.109 10.0684 157.139 10.1025 157.148 10.1611C157.148 10.2197 157.134 10.2881 157.104 10.3662C157.085 10.4346 157.065 10.5029 157.046 10.5713L157.017 10.6445C156.968 10.8301 156.943 11.0156 156.943 11.2012C156.943 11.3965 156.973 11.5869 157.031 11.7725C157.129 12.2607 157.178 12.6904 157.178 13.0615L157.163 13.3838C157.163 13.7646 157.183 14.0674 157.222 14.292L157.236 14.1455C157.383 13.2373 157.456 12.334 157.456 11.4355L157.441 10.7324L157.471 10.7178C157.48 10.7178 157.485 10.7227 157.485 10.7324C157.778 12.3145 157.925 14.0332 157.925 15.8887C157.983 15.8594 158.037 15.7715 158.086 15.625C160.117 11.8555 161.182 9.85352 161.279 9.61914C161.367 9.44336 161.45 9.33105 161.528 9.28223C161.88 9.07715 162.144 8.85254 162.319 8.6084C162.505 8.36426 162.656 8.11523 162.773 7.86133C162.842 7.75391 162.905 7.63672 162.964 7.50977C163.022 7.38281 163.105 7.26562 163.213 7.1582C163.33 7.05078 163.535 6.97754 163.828 6.93848C163.945 6.91895 164.028 6.87988 164.077 6.82129C164.136 6.7627 164.185 6.69922 164.224 6.63086L164.414 6.33789C164.541 6.10352 164.717 5.91797 164.941 5.78125L164.985 5.92773C165.386 5.42969 165.791 4.94141 166.201 4.46289C166.377 4.24805 166.475 4.14062 166.494 4.14062C166.533 4.14062 166.553 4.15527 166.553 4.18457V4.19922C165.928 5.30273 165.43 6.44043 165.059 7.6123L164.985 7.78809C165.005 7.82715 165.034 7.87109 165.073 7.91992C165.513 7.41211 165.918 6.91406 166.289 6.42578C166.309 6.40625 166.328 6.39648 166.348 6.39648C166.396 6.39648 166.421 6.41113 166.421 6.44043V6.45508C166.118 7.04102 165.82 7.65625 165.527 8.30078L164.956 9.53125C165.015 9.61914 165.044 9.70215 165.044 9.78027C165.044 9.84863 165.01 9.93652 164.941 10.0439C164.883 10.1416 164.785 10.2588 164.648 10.3955C164.541 10.5029 164.448 10.6104 164.37 10.7178L164.209 10.9521C163.867 11.5674 163.472 12.1484 163.022 12.6953C162.72 13.3008 162.358 13.9014 161.938 14.4971C161.724 14.8096 161.519 15.127 161.323 15.4492L160.986 16.0059C160.381 17.1094 159.648 18.1641 158.789 19.1699L158.76 19.1846C158.74 19.1846 158.726 19.1846 158.716 19.1846C158.706 19.1748 158.701 19.165 158.701 19.1553L159.521 17.5879L158.862 18.4521C158.198 19.292 157.627 20.1514 157.148 21.0303C156.963 21.4209 156.665 21.8066 156.255 22.1875C156.177 22.168 156.128 22.1436 156.108 22.1143C156.099 22.0752 156.094 22.0361 156.094 21.9971C156.094 21.9482 156.084 21.9092 156.064 21.8799C156.045 21.8408 155.986 21.8164 155.889 21.8066C155.82 21.8359 155.767 21.8652 155.728 21.8945C155.337 22.4609 154.995 23.0322 154.702 23.6084C154.683 23.6475 154.653 23.6719 154.614 23.6816ZM156.533 11.9629C156.592 11.9336 156.621 11.8945 156.621 11.8457C156.621 11.7969 156.582 11.7334 156.504 11.6553C156.494 11.6748 156.479 11.6943 156.46 11.7139C156.45 11.7236 156.44 11.7334 156.431 11.7432C156.421 11.7529 156.416 11.7676 156.416 11.7871V11.9043C156.416 11.9434 156.44 11.9629 156.489 11.9629H156.533ZM167.812 20.6494C167.432 20.6494 167.031 20.625 166.611 20.5762C166.562 20.5762 166.533 20.5664 166.523 20.5469L165.732 20.6201C165.488 20.6396 165.244 20.6494 165 20.6494H164.751C164.429 20.6494 164.111 20.5811 163.799 20.4443C163.682 20.4443 163.408 20.4639 162.979 20.5029C162.969 20.5029 162.964 20.5029 162.964 20.5029C162.954 20.4932 162.949 20.4834 162.949 20.4736H162.964C163.159 20.415 163.34 20.3711 163.506 20.3418C163.35 20.3125 163.174 20.2979 162.979 20.2979C162.852 20.2881 162.729 20.2783 162.612 20.2686C162.485 20.2588 162.373 20.2393 162.275 20.21C162.178 20.1807 162.109 20.127 162.07 20.0488L162.056 19.9902C162.056 19.9023 162.183 19.8242 162.437 19.7559C162.524 19.707 162.656 19.6777 162.832 19.668C163.125 19.6387 163.291 19.5752 163.33 19.4775C163.33 19.3701 163.267 19.2822 163.14 19.2139C162.886 19.0674 162.759 18.9307 162.759 18.8037C162.759 18.7939 162.769 18.75 162.788 18.6719C162.798 18.5938 162.915 18.4766 163.14 18.3203C163.315 18.1738 163.452 18.0078 163.55 17.8223L163.711 17.5879C163.73 17.5586 163.794 17.4902 163.901 17.3828L163.916 17.3242C163.916 17.3047 163.911 17.29 163.901 17.2803C163.882 17.2705 163.872 17.2607 163.872 17.251C163.657 17.5635 163.447 17.8809 163.242 18.2031C163.232 18.2227 163.213 18.2324 163.184 18.2324C163.115 18.2324 163.081 18.2129 163.081 18.1738C163.169 17.7246 163.335 17.2852 163.579 16.8555C163.521 16.8555 163.477 16.8408 163.447 16.8115C163.408 16.7725 163.389 16.7383 163.389 16.709L163.403 16.665C163.511 16.2939 163.638 15.918 163.784 15.5371C163.599 15.5273 163.506 15.4639 163.506 15.3467C163.506 15.3076 163.535 15.2441 163.594 15.1562C163.623 15.1074 163.643 15.0586 163.652 15.0098C163.906 14.3066 164.316 13.6279 164.883 12.9736C164.961 12.7783 165.039 12.6025 165.117 12.4463C165.166 11.9971 165.347 11.5625 165.659 11.1426C165.913 10.8203 166.089 10.4883 166.187 10.1465C166.284 9.80469 166.353 9.45801 166.392 9.10645C166.44 8.5791 166.582 8.05664 166.816 7.53906C166.904 7.36328 166.997 7.12891 167.095 6.83594C167.271 6.39648 167.407 6.03027 167.505 5.7373C167.622 5.75684 167.725 5.7666 167.812 5.7666C168.027 5.7666 168.223 5.69336 168.398 5.54688C168.477 5.48828 168.56 5.43945 168.647 5.40039C168.745 5.35156 168.857 5.32715 168.984 5.32715C169.121 5.31738 169.219 5.28809 169.277 5.23926C169.346 5.19043 169.399 5.13672 169.438 5.07812C169.478 5.01953 169.531 4.96582 169.6 4.91699C169.922 4.69238 170.249 4.58008 170.581 4.58008C170.894 4.58008 171.211 4.67773 171.533 4.87305C171.709 4.96094 171.89 5.00488 172.075 5.00488L172.28 4.99023C173.042 4.90234 173.472 4.84375 173.569 4.81445C173.716 4.78516 173.965 4.76074 174.316 4.74121C174.814 4.71191 175.298 4.69727 175.767 4.69727C176.021 4.69727 176.27 4.70215 176.514 4.71191C176.807 4.72168 177.251 4.72656 177.847 4.72656C177.964 4.72656 178.071 4.74609 178.169 4.78516C178.276 4.81445 178.359 4.89258 178.418 5.01953L177.51 5.00488L176.602 5.01953C177.07 5.08789 177.534 5.16113 177.993 5.23926C178.628 5.34668 179.253 5.43457 179.868 5.50293C179.976 5.50293 180.078 5.49805 180.176 5.48828L180.205 5.50293V5.51758L180.176 5.53223L180.308 5.54688C180.386 5.55664 180.488 5.56641 180.615 5.57617C180.742 5.57617 180.874 5.57617 181.011 5.57617L181.377 5.59082V5.60547C181.377 5.61523 181.372 5.62012 181.362 5.62012C180.522 5.69824 179.521 5.7373 178.359 5.7373C178.311 5.77637 178.286 5.82031 178.286 5.86914C178.286 5.9082 178.311 5.95703 178.359 6.01562C178.408 6.07422 178.516 6.10352 178.682 6.10352L179.106 6.07422L181.553 5.98633L182.534 5.94238C182.231 6.14746 181.934 6.2793 181.641 6.33789C181.357 6.38672 181.074 6.41602 180.791 6.42578L180.688 6.44043C180.444 6.44043 180.264 6.45996 180.146 6.49902C180.039 6.53809 179.985 6.62598 179.985 6.7627V6.80664C179.985 6.88477 179.932 6.93848 179.824 6.96777C179.648 7.0166 179.458 7.04102 179.253 7.04102L177.876 7.23145C177.388 7.30957 176.938 7.36816 176.528 7.40723C176.128 7.43652 175.503 7.45605 174.653 7.46582C174.458 7.46582 174.341 7.45605 174.302 7.43652C174.253 7.43652 174.224 7.43164 174.214 7.42188L173.818 7.43652C173.467 7.45605 173.208 7.51953 173.042 7.62695C172.876 7.72461 172.769 7.86621 172.72 8.05176L172.471 8.78418C172.158 9.72168 172.002 10.2441 172.002 10.3516C172.002 10.459 172.046 10.542 172.134 10.6006C172.222 10.6494 172.495 10.6738 172.954 10.6738H173.438L173.892 10.7031C173.921 10.7129 173.945 10.7275 173.965 10.7471C173.994 10.7666 174.028 10.7861 174.067 10.8057C174.106 10.8252 174.248 10.8545 174.492 10.8936C174.961 10.9619 175.601 11.0059 176.411 11.0254L177.188 11.04C176.953 11.1963 176.641 11.2744 176.25 11.2744C175.938 11.2744 175.679 11.3281 175.474 11.4355C175.981 11.582 176.514 11.6553 177.07 11.6553C177.217 11.6553 177.368 11.6504 177.524 11.6406C177.681 11.6309 177.837 11.626 177.993 11.626C178.521 11.626 179.033 11.6992 179.531 11.8457C179.326 11.8164 179.131 11.8018 178.945 11.8018C178.389 11.8018 177.881 11.9287 177.422 12.1826C177.266 12.2705 177.021 12.3145 176.689 12.3145C176.299 12.373 175.913 12.4512 175.532 12.5488C174.819 12.7441 174.097 12.8418 173.364 12.8418C173.13 12.8418 172.905 12.8223 172.69 12.7832C172.563 12.7539 172.329 12.7197 171.987 12.6807C171.577 12.7686 170.977 12.8418 170.186 12.9004C169.834 12.9297 169.595 13.0176 169.468 13.1641C169.351 13.3008 169.272 13.4521 169.233 13.6182C168.979 14.3311 168.682 15.0391 168.34 15.7422C169.121 14.5996 169.595 13.8965 169.761 13.6328L169.79 13.6182C169.8 13.6279 169.81 13.6328 169.819 13.6328C169.829 13.6328 169.834 13.6377 169.834 13.6475L169.819 13.6621C169.468 14.7559 169.048 15.8301 168.56 16.8848L168.018 18.0713C168.506 18.0225 168.867 17.998 169.102 17.998C169.258 17.998 169.541 17.9883 169.951 17.9688C170.508 17.9297 171.069 17.9053 171.636 17.8955C171.89 17.7783 172.139 17.7197 172.383 17.7197C172.676 17.7197 173.032 17.7734 173.452 17.8809C173.647 17.9199 173.848 17.9541 174.053 17.9834C174.062 17.9932 174.097 17.998 174.155 17.998C174.272 18.0176 174.395 18.0273 174.521 18.0273C174.541 18.0273 174.565 18.042 174.595 18.0713L175.415 18.2324L175.444 18.2764C175.425 18.2959 175.005 18.3105 174.185 18.3203C173.823 18.3691 173.569 18.418 173.423 18.4668C173.286 18.5059 173.203 18.5986 173.174 18.7451C173.564 18.7842 173.955 18.8037 174.346 18.8037C174.99 18.8037 175.635 18.75 176.279 18.6426C176.719 18.584 177.168 18.5352 177.627 18.4961C177.373 18.7598 176.997 18.916 176.499 18.9648C176.353 18.9844 176.211 19.0088 176.074 19.0381C175.859 19.0967 175.625 19.1406 175.371 19.1699C175.127 19.1895 174.893 19.2285 174.668 19.2871C174.443 19.3359 174.258 19.4385 174.111 19.5947C174.072 19.6338 173.926 19.6533 173.672 19.6533L173.481 19.6387C173.413 19.6387 173.35 19.6436 173.291 19.6533C173.125 19.6826 172.954 19.7021 172.778 19.7119C172.28 19.7314 171.807 19.8193 171.357 19.9756C172.139 19.9268 172.915 19.8438 173.687 19.7266H173.73C173.73 19.7559 173.721 19.7705 173.701 19.7705C172.402 20.1514 171.055 20.3906 169.658 20.4883L168.823 20.5615C168.472 20.6104 168.135 20.6396 167.812 20.6494ZM165.293 13.5889C165.645 13.0908 165.928 12.5928 166.143 12.0947L166.465 11.4355C166.475 11.4258 166.484 11.4111 166.494 11.3916C166.514 11.3721 166.523 11.3477 166.523 11.3184C166.514 11.3086 166.509 11.3037 166.509 11.3037C166.509 11.2939 166.504 11.2793 166.494 11.2598C166.494 11.2305 166.494 11.2012 166.494 11.1719C166.514 11.0352 166.562 10.8984 166.641 10.7617C166.748 10.5859 166.802 10.3955 166.802 10.1904L166.641 10.3369L166.362 10.8936C166.362 11.0107 166.392 11.1084 166.45 11.1865L166.509 11.2891C166.509 11.3184 166.475 11.333 166.406 11.333C166.338 11.333 166.284 11.3428 166.245 11.3623C166.206 11.3721 166.167 11.3818 166.128 11.3916C165.864 12.0166 165.62 12.6416 165.396 13.2666L165.293 13.5889ZM170.977 10.6592C171.23 10.2881 171.416 9.91211 171.533 9.53125L170.962 10.6445L170.977 10.6592ZM170.962 9.63379C171.167 9.31152 171.367 8.98438 171.562 8.65234L171.899 8.11035L171.987 7.72949C171.772 7.90527 171.572 8.17383 171.387 8.53516C171.201 8.88672 171.06 9.25293 170.962 9.63379ZM181.465 20.6494C181.084 20.6494 180.684 20.625 180.264 20.5762C180.215 20.5762 180.186 20.5664 180.176 20.5469L179.385 20.6201C179.141 20.6396 178.896 20.6494 178.652 20.6494H178.403C178.081 20.6494 177.764 20.5811 177.451 20.4443C177.334 20.4443 177.061 20.4639 176.631 20.5029C176.621 20.5029 176.616 20.5029 176.616 20.5029C176.606 20.4932 176.602 20.4834 176.602 20.4736H176.616C176.812 20.415 176.992 20.3711 177.158 20.3418C177.002 20.3125 176.826 20.2979 176.631 20.2979C176.504 20.2881 176.382 20.2783 176.265 20.2686C176.138 20.2588 176.025 20.2393 175.928 20.21C175.83 20.1807 175.762 20.127 175.723 20.0488L175.708 19.9902C175.708 19.9023 175.835 19.8242 176.089 19.7559C176.177 19.707 176.309 19.6777 176.484 19.668C176.777 19.6387 176.943 19.5752 176.982 19.4775C176.982 19.3701 176.919 19.2822 176.792 19.2139C176.538 19.0674 176.411 18.9307 176.411 18.8037C176.411 18.7939 176.421 18.75 176.44 18.6719C176.45 18.5938 176.567 18.4766 176.792 18.3203C176.968 18.1738 177.104 18.0078 177.202 17.8223L177.363 17.5879C177.383 17.5586 177.446 17.4902 177.554 17.3828L177.568 17.3242C177.568 17.3047 177.563 17.29 177.554 17.2803C177.534 17.2705 177.524 17.2607 177.524 17.251C177.31 17.5635 177.1 17.8809 176.895 18.2031C176.885 18.2227 176.865 18.2324 176.836 18.2324C176.768 18.2324 176.733 18.2129 176.733 18.1738C176.821 17.7246 176.987 17.2852 177.231 16.8555C177.173 16.8555 177.129 16.8408 177.1 16.8115C177.061 16.7725 177.041 16.7383 177.041 16.709L177.056 16.665C177.163 16.2939 177.29 15.918 177.437 15.5371C177.251 15.5273 177.158 15.4639 177.158 15.3467C177.158 15.3076 177.188 15.2441 177.246 15.1562C177.275 15.1074 177.295 15.0586 177.305 15.0098C177.559 14.3066 177.969 13.6279 178.535 12.9736C178.613 12.7783 178.691 12.6025 178.77 12.4463C178.818 11.9971 178.999 11.5625 179.312 11.1426C179.565 10.8203 179.741 10.4883 179.839 10.1465C179.937 9.80469 180.005 9.45801 180.044 9.10645C180.093 8.5791 180.234 8.05664 180.469 7.53906C180.557 7.36328 180.649 7.12891 180.747 6.83594C180.923 6.39648 181.06 6.03027 181.157 5.7373C181.274 5.75684 181.377 5.7666 181.465 5.7666C181.68 5.7666 181.875 5.69336 182.051 5.54688C182.129 5.48828 182.212 5.43945 182.3 5.40039C182.397 5.35156 182.51 5.32715 182.637 5.32715C182.773 5.31738 182.871 5.28809 182.93 5.23926C182.998 5.19043 183.052 5.13672 183.091 5.07812C183.13 5.01953 183.184 4.96582 183.252 4.91699C183.574 4.69238 183.901 4.58008 184.233 4.58008C184.546 4.58008 184.863 4.67773 185.186 4.87305C185.361 4.96094 185.542 5.00488 185.728 5.00488L185.933 4.99023C186.694 4.90234 187.124 4.84375 187.222 4.81445C187.368 4.78516 187.617 4.76074 187.969 4.74121C188.467 4.71191 188.95 4.69727 189.419 4.69727C189.673 4.69727 189.922 4.70215 190.166 4.71191C190.459 4.72168 190.903 4.72656 191.499 4.72656C191.616 4.72656 191.724 4.74609 191.821 4.78516C191.929 4.81445 192.012 4.89258 192.07 5.01953L191.162 5.00488L190.254 5.01953C190.723 5.08789 191.187 5.16113 191.646 5.23926C192.28 5.34668 192.905 5.43457 193.521 5.50293C193.628 5.50293 193.73 5.49805 193.828 5.48828L193.857 5.50293V5.51758L193.828 5.53223L193.96 5.54688C194.038 5.55664 194.141 5.56641 194.268 5.57617C194.395 5.57617 194.526 5.57617 194.663 5.57617L195.029 5.59082V5.60547C195.029 5.61523 195.024 5.62012 195.015 5.62012C194.175 5.69824 193.174 5.7373 192.012 5.7373C191.963 5.77637 191.938 5.82031 191.938 5.86914C191.938 5.9082 191.963 5.95703 192.012 6.01562C192.061 6.07422 192.168 6.10352 192.334 6.10352L192.759 6.07422L195.205 5.98633L196.187 5.94238C195.884 6.14746 195.586 6.2793 195.293 6.33789C195.01 6.38672 194.727 6.41602 194.443 6.42578L194.341 6.44043C194.097 6.44043 193.916 6.45996 193.799 6.49902C193.691 6.53809 193.638 6.62598 193.638 6.7627V6.80664C193.638 6.88477 193.584 6.93848 193.477 6.96777C193.301 7.0166 193.11 7.04102 192.905 7.04102L191.528 7.23145C191.04 7.30957 190.591 7.36816 190.181 7.40723C189.78 7.43652 189.155 7.45605 188.306 7.46582C188.11 7.46582 187.993 7.45605 187.954 7.43652C187.905 7.43652 187.876 7.43164 187.866 7.42188L187.471 7.43652C187.119 7.45605 186.86 7.51953 186.694 7.62695C186.528 7.72461 186.421 7.86621 186.372 8.05176L186.123 8.78418C185.811 9.72168 185.654 10.2441 185.654 10.3516C185.654 10.459 185.698 10.542 185.786 10.6006C185.874 10.6494 186.147 10.6738 186.606 10.6738H187.09L187.544 10.7031C187.573 10.7129 187.598 10.7275 187.617 10.7471C187.646 10.7666 187.681 10.7861 187.72 10.8057C187.759 10.8252 187.9 10.8545 188.145 10.8936C188.613 10.9619 189.253 11.0059 190.063 11.0254L190.84 11.04C190.605 11.1963 190.293 11.2744 189.902 11.2744C189.59 11.2744 189.331 11.3281 189.126 11.4355C189.634 11.582 190.166 11.6553 190.723 11.6553C190.869 11.6553 191.021 11.6504 191.177 11.6406C191.333 11.6309 191.489 11.626 191.646 11.626C192.173 11.626 192.686 11.6992 193.184 11.8457C192.979 11.8164 192.783 11.8018 192.598 11.8018C192.041 11.8018 191.533 11.9287 191.074 12.1826C190.918 12.2705 190.674 12.3145 190.342 12.3145C189.951 12.373 189.565 12.4512 189.185 12.5488C188.472 12.7441 187.749 12.8418 187.017 12.8418C186.782 12.8418 186.558 12.8223 186.343 12.7832C186.216 12.7539 185.981 12.7197 185.64 12.6807C185.229 12.7686 184.629 12.8418 183.838 12.9004C183.486 12.9297 183.247 13.0176 183.12 13.1641C183.003 13.3008 182.925 13.4521 182.886 13.6182C182.632 14.3311 182.334 15.0391 181.992 15.7422C182.773 14.5996 183.247 13.8965 183.413 13.6328L183.442 13.6182C183.452 13.6279 183.462 13.6328 183.472 13.6328C183.481 13.6328 183.486 13.6377 183.486 13.6475L183.472 13.6621C183.12 14.7559 182.7 15.8301 182.212 16.8848L181.67 18.0713C182.158 18.0225 182.52 17.998 182.754 17.998C182.91 17.998 183.193 17.9883 183.604 17.9688C184.16 17.9297 184.722 17.9053 185.288 17.8955C185.542 17.7783 185.791 17.7197 186.035 17.7197C186.328 17.7197 186.685 17.7734 187.104 17.8809C187.3 17.9199 187.5 17.9541 187.705 17.9834C187.715 17.9932 187.749 17.998 187.808 17.998C187.925 18.0176 188.047 18.0273 188.174 18.0273C188.193 18.0273 188.218 18.042 188.247 18.0713L189.067 18.2324L189.097 18.2764C189.077 18.2959 188.657 18.3105 187.837 18.3203C187.476 18.3691 187.222 18.418 187.075 18.4668C186.938 18.5059 186.855 18.5986 186.826 18.7451C187.217 18.7842 187.607 18.8037 187.998 18.8037C188.643 18.8037 189.287 18.75 189.932 18.6426C190.371 18.584 190.82 18.5352 191.279 18.4961C191.025 18.7598 190.649 18.916 190.151 18.9648C190.005 18.9844 189.863 19.0088 189.727 19.0381C189.512 19.0967 189.277 19.1406 189.023 19.1699C188.779 19.1895 188.545 19.2285 188.32 19.2871C188.096 19.3359 187.91 19.4385 187.764 19.5947C187.725 19.6338 187.578 19.6533 187.324 19.6533L187.134 19.6387C187.065 19.6387 187.002 19.6436 186.943 19.6533C186.777 19.6826 186.606 19.7021 186.431 19.7119C185.933 19.7314 185.459 19.8193 185.01 19.9756C185.791 19.9268 186.567 19.8438 187.339 19.7266H187.383C187.383 19.7559 187.373 19.7705 187.354 19.7705C186.055 20.1514 184.707 20.3906 183.311 20.4883L182.476 20.5615C182.124 20.6104 181.787 20.6396 181.465 20.6494ZM178.945 13.5889C179.297 13.0908 179.58 12.5928 179.795 12.0947L180.117 11.4355C180.127 11.4258 180.137 11.4111 180.146 11.3916C180.166 11.3721 180.176 11.3477 180.176 11.3184C180.166 11.3086 180.161 11.3037 180.161 11.3037C180.161 11.2939 180.156 11.2793 180.146 11.2598C180.146 11.2305 180.146 11.2012 180.146 11.1719C180.166 11.0352 180.215 10.8984 180.293 10.7617C180.4 10.5859 180.454 10.3955 180.454 10.1904L180.293 10.3369L180.015 10.8936C180.015 11.0107 180.044 11.1084 180.103 11.1865L180.161 11.2891C180.161 11.3184 180.127 11.333 180.059 11.333C179.99 11.333 179.937 11.3428 179.897 11.3623C179.858 11.3721 179.819 11.3818 179.78 11.3916C179.517 12.0166 179.272 12.6416 179.048 13.2666L178.945 13.5889ZM184.629 10.6592C184.883 10.2881 185.068 9.91211 185.186 9.53125L184.614 10.6445L184.629 10.6592ZM184.614 9.63379C184.819 9.31152 185.02 8.98438 185.215 8.65234L185.552 8.11035L185.64 7.72949C185.425 7.90527 185.225 8.17383 185.039 8.53516C184.854 8.88672 184.712 9.25293 184.614 9.63379ZM190.269 22.6416C190.249 22.6416 190.229 22.6367 190.21 22.627C190.19 22.6172 190.181 22.6074 190.181 22.5977V22.583C190.444 21.9287 190.615 21.2646 190.693 20.5908C190.732 20.2881 190.786 19.9902 190.854 19.6973C190.796 19.5996 190.693 19.5459 190.547 19.5361C190.4 19.5361 190.161 19.5654 189.829 19.624C189.78 19.5654 189.756 19.5068 189.756 19.4482C189.756 19.3799 189.79 19.2969 189.858 19.1992L189.961 19.0381C190.059 18.8818 190.107 18.7842 190.107 18.7451C190.107 18.7158 190.098 18.6914 190.078 18.6719C189.902 18.5156 189.814 18.3643 189.814 18.2178C189.814 18.1982 189.824 18.1445 189.844 18.0566C189.854 17.9688 189.917 17.8467 190.034 17.6904C190.093 17.5928 190.146 17.5 190.195 17.4121C190.234 17.3242 190.254 17.2314 190.254 17.1338C190.254 17.0264 190.308 16.9482 190.415 16.8994C190.522 16.8506 190.63 16.8164 190.737 16.7969C190.845 16.7676 190.923 16.7432 190.972 16.7236C191.011 16.6943 191.03 16.6699 191.03 16.6504C191.03 16.6309 191.016 16.6113 190.986 16.5918C190.859 16.4648 190.796 16.3477 190.796 16.2402C190.796 16.1328 190.825 16.0205 190.884 15.9033C190.894 15.8936 190.898 15.8789 190.898 15.8594C191.025 15.8789 191.099 15.918 191.118 15.9766V16.1084C191.118 16.1572 191.133 16.1914 191.162 16.2109C191.191 15.9473 191.221 15.7471 191.25 15.6104C191.27 15.5322 191.294 15.4834 191.323 15.4639C191.343 15.4443 191.362 15.4248 191.382 15.4053C191.401 15.376 191.426 15.3369 191.455 15.2881C191.475 15.2393 191.504 15.166 191.543 15.0684L191.558 14.9951C191.636 14.5361 191.816 14.0576 192.1 13.5596C192.432 12.6611 192.7 11.8848 192.905 11.2305C193.11 10.5371 193.291 10.0391 193.447 9.73633C193.574 9.31641 193.711 8.93555 193.857 8.59375C194.15 7.8418 194.59 7.14844 195.176 6.51367V6.49902L195.278 6.33789L195.176 5.86914C195.176 5.83008 195.2 5.81055 195.249 5.81055C195.298 5.81055 195.327 5.8252 195.337 5.85449C195.347 5.88379 195.361 5.91797 195.381 5.95703C195.4 5.99609 195.415 6.03027 195.425 6.05957C195.464 5.98145 195.508 5.91309 195.557 5.85449C195.615 5.7959 195.693 5.7666 195.791 5.7666C195.889 5.7666 195.957 5.79102 195.996 5.83984L196.172 6.14746L196.626 5.62012C196.88 5.33691 197.114 5.03906 197.329 4.72656C197.339 4.7168 197.354 4.71191 197.373 4.71191C197.412 4.71191 197.432 4.72656 197.432 4.75586V4.77051C197.314 5.13184 197.256 5.50781 197.256 5.89844L197.271 6.51367L197.461 6.01562L197.505 5.98633H197.549C197.568 5.99609 197.578 6.00586 197.578 6.01562C197.656 6.29883 197.71 6.58203 197.739 6.86523C197.876 6.94336 197.964 7.04102 198.003 7.1582C198.12 7.4707 198.223 7.7832 198.311 8.0957C198.438 8.54492 198.589 8.98438 198.765 9.41406L198.809 9.50195C198.887 9.58984 198.936 9.68262 198.955 9.78027C199.023 9.8877 199.116 9.96094 199.233 10C199.351 10.0391 199.473 10.0684 199.6 10.0879C199.736 10.0977 199.854 10.127 199.951 10.1758C200.049 10.2148 200.098 10.2979 200.098 10.4248C200.088 10.542 200.034 10.6445 199.937 10.7324C200.044 10.8398 200.112 10.9619 200.142 11.0986L200.156 11.1426L200.024 11.1572C199.995 11.1572 199.961 11.1523 199.922 11.1426C199.893 11.123 199.863 11.0938 199.834 11.0547C199.814 11.0156 199.785 10.9863 199.746 10.9668C199.717 10.9375 199.673 10.9229 199.614 10.9229C199.614 11.1865 199.683 11.5771 199.819 12.0947C199.956 12.6123 200.127 13.1396 200.332 13.6768C200.537 14.2041 200.723 14.5703 200.889 14.7754V14.5264C200.889 14.2334 200.859 13.9893 200.801 13.7939C200.752 13.5986 200.566 13.418 200.244 13.252V13.2227H200.229C200.386 13.1445 200.469 13.0615 200.479 12.9736C200.479 12.9248 200.42 12.7051 200.303 12.3145C200.215 12.1289 200.171 11.9287 200.171 11.7139L200.186 11.5381C200.303 11.6748 200.464 11.9824 200.669 12.4609C200.884 12.9395 201.177 13.6963 201.548 14.7314C201.636 14.7021 201.724 14.6777 201.812 14.6582C201.909 14.6289 201.978 14.6045 202.017 14.585C202.056 14.5557 202.075 14.5312 202.075 14.5117C202.075 14.4922 202.065 14.4678 202.046 14.4385C201.938 14.3018 201.885 14.1797 201.885 14.0723V13.9551C201.895 13.877 201.938 13.7646 202.017 13.6182C202.153 13.6377 202.222 13.6816 202.222 13.75L202.207 13.8525V13.9697C202.217 13.999 202.251 14.0283 202.31 14.0576C202.31 14.0479 202.314 14.043 202.324 14.043L202.573 12.9297C202.505 13.0273 202.417 13.1299 202.31 13.2373C202.329 13.0615 202.485 12.6074 202.778 11.875C202.896 11.2891 203.12 10.7324 203.452 10.2051C203.901 9.07227 204.209 8.24707 204.375 7.72949C204.551 7.21191 204.688 6.89453 204.785 6.77734C205.176 6.06445 205.601 5.37109 206.06 4.69727C206.079 4.67773 206.104 4.66309 206.133 4.65332C206.191 4.65332 206.221 4.67773 206.221 4.72656C206.055 5.24414 205.923 5.77637 205.825 6.32324L206.279 5.88379C206.729 5.5127 207.051 5.08789 207.246 4.60938C207.451 3.90625 207.734 3.21289 208.096 2.5293C208.105 2.50977 208.125 2.49512 208.154 2.48535C208.174 2.48535 208.193 2.49512 208.213 2.51465C208.232 2.52441 208.242 2.53418 208.242 2.54395V2.55859C208.184 2.83203 208.154 3.11035 208.154 3.39355C208.154 3.55957 208.164 3.73047 208.184 3.90625C208.213 4.07227 208.228 4.23828 208.228 4.4043C208.228 4.72656 208.179 5.04395 208.081 5.35645C207.954 5.63965 207.793 5.89355 207.598 6.11816C207.705 6.16699 207.759 6.43555 207.759 6.92383C207.759 7.20703 207.72 7.56348 207.642 7.99316C207.524 8.6377 207.207 9.32617 206.689 10.0586L206.411 11.084C206.821 10.4004 207.173 9.69238 207.466 8.95996C207.485 8.94043 207.52 8.93066 207.568 8.93066C207.588 8.94043 207.598 8.95508 207.598 8.97461L207.627 9.29688C207.666 9.7168 207.686 10.0391 207.686 10.2637C207.676 10.498 207.617 10.7275 207.51 10.9521C207.402 11.167 207.222 11.4746 206.968 11.875L206.851 12.0801C206.528 12.6367 206.147 13.4277 205.708 14.4531L205.605 14.6582C205.576 14.7363 205.542 14.8096 205.503 14.8779C205.464 15.4443 205.342 16.001 205.137 16.5479C204.941 17.085 204.712 17.6221 204.448 18.1592C204.126 18.8135 203.853 19.4775 203.628 20.1514C203.618 20.1904 203.579 20.21 203.511 20.21C203.423 20.21 203.379 20.1807 203.379 20.1221L203.394 19.5361C203.394 19.3311 203.389 19.1309 203.379 18.9355C203.057 19.6191 202.71 20.2979 202.339 20.9717C202.349 21.0107 202.363 21.0547 202.383 21.1035C202.402 21.1426 202.417 21.1914 202.427 21.25V21.2646C202.427 21.2939 202.397 21.3086 202.339 21.3086C202.31 21.3086 202.285 21.2939 202.266 21.2646C202.256 21.2256 202.241 21.2012 202.222 21.1914C202.192 21.25 202.168 21.2939 202.148 21.3232C202.129 21.3525 202.095 21.3672 202.046 21.3672C202.017 21.3672 201.997 21.3574 201.987 21.3379C201.772 21.0156 201.611 20.6934 201.504 20.3711L201.46 20.3271C201.411 20.3955 201.367 20.4639 201.328 20.5322C201.299 20.5908 201.265 20.6494 201.226 20.708L201.24 20.8105V21.001C201.24 21.0889 201.182 21.1328 201.064 21.1328L200.977 21.1182C200.967 21.1377 200.957 21.1523 200.947 21.1621C200.947 21.1719 200.942 21.1865 200.933 21.2061C200.923 21.2158 200.894 21.2207 200.845 21.2207C200.825 21.2207 200.806 21.2158 200.786 21.2061C200.776 21.1963 200.771 21.1816 200.771 21.1621C200.811 21.0938 200.84 21.0303 200.859 20.9717C200.742 20.5518 200.576 20.0879 200.361 19.5801C200.146 19.0723 199.961 18.5547 199.805 18.0273C198.906 17.1289 198.413 16.1572 198.325 15.1123C198.169 14.8193 198.042 14.624 197.944 14.5264C197.847 14.4189 197.759 14.3457 197.681 14.3066C197.505 14.1992 197.324 13.9111 197.139 13.4424L196.919 12.8857C196.665 12.4561 196.475 12.002 196.348 11.5234L196.23 11.6846C196.074 12.3193 195.923 12.8564 195.776 13.2959C195.64 13.7256 195.449 14.248 195.205 14.8633L194.985 15.4346C194.888 15.9521 194.697 16.4746 194.414 17.002C194.131 17.5195 193.823 18.0273 193.491 18.5254C193.169 19.0234 192.886 19.4971 192.642 19.9463C192.622 19.9658 192.583 19.9756 192.524 19.9756L192.495 19.9316C192.534 19.7168 192.568 19.4971 192.598 19.2725H192.568C192.529 19.2725 192.51 19.2578 192.51 19.2285C192.549 19.1699 192.583 19.1064 192.612 19.0381L192.627 19.0234L192.642 18.8623C192.505 19.0674 192.388 19.2676 192.29 19.4629C191.997 20.0293 191.655 20.5811 191.265 21.1182C190.923 21.6064 190.615 22.1045 190.342 22.6123C190.322 22.6318 190.298 22.6416 190.269 22.6416Z" fill="black"/>
</svg>
